<?xml version="1.0" encoding="utf-8" ?>
<svg xmlns="http://www.w3.org/2000/svg" xmlns:xlink="http://www.w3.org/1999/xlink" width="76" height="76">
	<rect fill="white" width="76" height="76"/>
	<rect width="4.0032001" height="8.0064001"/>
	<rect x="4.0032001" width="8.0063992" height="4.0032001"/>
	<rect x="20.015999" width="4.0032005" height="4.0032001"/>
	<rect x="24.019199" width="4.0032005" height="16.0128"/>
	<rect x="28.0224" width="8.0064011" height="4.0032001"/>
	<rect x="40.031998" width="4.0032005" height="4.0032001"/>
	<rect x="52.041603" width="4.0032005" height="12.0096"/>
	<rect x="56.0448" width="4.0032005" height="8.0064001"/>
	<rect x="60.048004" width="4.0031967" height="4.0032001"/>
	<rect x="68.054398" width="4.0031967" height="4.0032001"/>
	<rect x="72.057602" width="4.0031967" height="8.0064001"/>
	<rect x="16.0128" y="4.0032001" width="4.0032005" height="28.0224"/>
	<rect x="36.028801" y="4.0032001" width="4.0032005" height="4.0032001"/>
	<rect x="64.051201" y="4.0032001" width="4.0031967" height="16.0128"/>
	<rect x="4.0032001" y="8.0064001" width="4.0032001" height="8.0064001"/>
	<rect x="8.0064001" y="8.0064001" width="8.0064001" height="4.0031996"/>
	<rect x="28.0224" y="8.0064001" width="4.0032005" height="16.012798"/>
	<rect x="32.0256" y="8.0064001" width="4.0032005" height="4.0031996"/>
	<rect x="48.038399" y="8.0064001" width="4.0032005" height="4.0031996"/>
	<rect x="60.048004" y="8.0064001" width="4.0031967" height="12.009599"/>
	<rect x="68.054398" y="8.0064001" width="4.0031967" height="4.0031996"/>
	<rect x="20.015999" y="12.0096" width="4.0032005" height="44.035202"/>
	<rect x="36.028801" y="12.0096" width="4.0032005" height="12.0096"/>
	<rect x="40.031998" y="12.0096" width="8.0064011" height="4.0032005"/>
	<rect x="72.057602" y="12.0096" width="4.0031967" height="16.0128"/>
	<rect x="8.0064001" y="16.0128" width="4.0031996" height="4.0032005"/>
	<rect x="48.038399" y="16.0128" width="4.0032005" height="8.0063992"/>
	<rect x="56.0448" y="16.0128" width="4.0032005" height="8.0063992"/>
	<rect y="20.015999" width="4.0032001" height="12.009598"/>
	<rect x="24.019199" y="20.015999" width="4.0032005" height="4.0032005"/>
	<rect x="32.0256" y="20.015999" width="4.0032005" height="4.0032005"/>
	<rect x="40.031998" y="20.015999" width="8.0064011" height="4.0032005"/>
	<rect x="52.041603" y="20.015999" width="4.0032005" height="36.028801"/>
	<rect x="8.0064001" y="24.019199" width="4.0031996" height="24.019199"/>
	<rect x="4.0032001" y="28.0224" width="4.0032001" height="8.0064011"/>
	<rect x="28.0224" y="28.0224" width="4.0032005" height="20.015999"/>
	<rect x="32.0256" y="28.0224" width="12.009602" height="4.0032005"/>
	<rect x="44.035202" y="28.0224" width="4.0032005" height="20.015999"/>
	<rect x="56.0448" y="28.0224" width="4.0032005" height="4.0032005"/>
	<rect x="60.048004" y="28.0224" width="4.0031967" height="12.009598"/>
	<rect x="64.051201" y="28.0224" width="4.0031967" height="24.019199"/>
	<rect x="68.054398" y="28.0224" width="4.0031967" height="16.012802"/>
	<rect x="12.0096" y="32.0256" width="4.0032005" height="4.0032005"/>
	<rect y="36.028801" width="4.0032001" height="4.0032005"/>
	<rect x="36.028801" y="36.028801" width="4.0032005" height="4.0032005"/>
	<rect x="12.0096" y="40.031998" width="4.0032005" height="4.0032005"/>
	<rect x="16.0128" y="40.031998" width="4.0032005" height="8.0064011"/>
	<rect x="56.0448" y="40.031998" width="4.0032005" height="4.0032005"/>
	<rect y="44.035202" width="4.0032001" height="20.015999"/>
	<rect x="32.0256" y="44.035202" width="12.009602" height="4.0032005"/>
	<rect x="60.048004" y="44.035202" width="4.0031967" height="8.0064011"/>
	<rect x="72.057602" y="48.038399" width="4.0031967" height="4.0032005"/>
	<rect x="12.0096" y="52.041603" width="4.0032005" height="4.0032005"/>
	<rect x="24.019199" y="52.041603" width="20.015999" height="4.0032005"/>
	<rect x="44.035202" y="52.041603" width="4.0032005" height="20.015999"/>
	<rect x="48.038399" y="52.041603" width="4.0032005" height="4.0032005"/>
	<rect x="56.0448" y="52.041603" width="4.0032005" height="4.0032005"/>
	<rect x="68.054398" y="52.041603" width="4.0031967" height="4.0032005"/>
	<rect x="60.048004" y="56.0448" width="4.0031967" height="8.0064011"/>
	<rect x="64.051201" y="56.0448" width="4.0031967" height="4.0032005"/>
	<rect x="72.057602" y="56.0448" width="4.0031967" height="8.0064011"/>
	<rect x="8.0064001" y="60.048004" width="4.0031996" height="12.009598"/>
	<rect x="16.0128" y="60.048004" width="4.0032005" height="4.0031967"/>
	<rect x="28.0224" y="60.048004" width="8.0064011" height="8.0064011"/>
	<rect x="40.031998" y="64.051201" width="4.0032005" height="8.0064011"/>
	<rect x="52.041603" y="64.051201" width="4.0032005" height="8.0064011"/>
	<rect x="20.015999" y="68.054398" width="4.0032005" height="4.0031967"/>
	<rect x="56.0448" y="68.054398" width="12.009598" height="4.0031967"/>
	<rect x="12.0096" y="72.057602" width="8.0063992" height="4.0031967"/>
	<rect x="32.0256" y="72.057602" width="8.0064011" height="4.0031967"/>
</svg>
