<?xml version="1.0" encoding="UTF-8"?>
<svg id="Layer_2" data-name="Layer 2" xmlns="http://www.w3.org/2000/svg" viewBox="0 0 20.75 20.75">
  <g id="Layer_1-2" data-name="Layer 1">
    <g>
      <path d="m16.96,1.43v1.43c0,.52-.42.93-.93.93h-1.43c-.52,0-.93-.42-.93-.93v-1.43c0-.52-.42-.93-.93-.93H1.43c-.52,0-.93.42-.93.93v4.72c0,.52.42.93.93.93h17.88c.52,0,.93-.42.93-.93V1.43c0-.52-.42-.93-.93-.93h-1.43c-.52,0-.93.42-.93.93Z" fill="none" stroke="#e7dfcd" stroke-miterlimit="10"/>
      <path d="m13.67,8.02v1.25c0,.43-.29.8-.71.91l-4.72,1.18c-.59.15-1.16-.3-1.16-.91v-2.43c0-.52.42-.93.93-.93h4.72c.52,0,.93.42.93.93Z" fill="none" stroke="#e7dfcd" stroke-miterlimit="10"/>
      <path d="m13.67,16.13v3.19c0,.52-.42.93-.93.93h-4.72c-.52,0-.93-.42-.93-.93v-2.01c0-.43.29-.8.71-.91l4.72-1.18c.59-.15,1.16.3,1.16.91Z" fill="none" stroke="#e7dfcd" stroke-miterlimit="10"/>
      <path d="m13.67,11.19v3.01c0,.43-.29.8-.71.91l-4.72,1.18c-.59.15-1.16-.3-1.16-.91v-3.01c0-.43.29-.8.71-.91l4.72-1.18c.59-.15,1.16.3,1.16.91Z" fill="none" stroke="#e7dfcd" stroke-miterlimit="10"/>
    </g>
  </g>
</svg>