<?xml version="1.0" encoding="UTF-8"?>
<svg id="Layer_2" data-name="Layer 2" xmlns="http://www.w3.org/2000/svg" viewBox="0 0 213.02 213.02">
  <g id="Layer_1-2" data-name="Layer 1">
    <rect x="0" y="0" width="213.02" height="213.02" rx="11.32" ry="11.32" transform="translate(0 213.02) rotate(-90)" fill="#ff4824"/>
    <g>
      <path d="m101.01,113.6v89.74h-21.66v-89.74c0-4.41-.36-8.17-1.06-11.26-.72-3.06-1.94-5.81-3.72-8.17s-4.26-4.14-7.43-5.29c-3.18-1.15-7.12-1.71-11.82-1.71s-8.71.56-11.87,1.67c-3.15,1.1-5.63,2.84-7.41,5.18-1.76,2.36-2.99,5.09-3.69,8.2-.72,3.08-1.06,6.89-1.06,11.39v89.74H9.68v-89.74c0-9.21.81-17.16,2.41-23.87,1.62-6.71,4.19-12.43,7.77-17.2,3.56-4.77,8.26-8.33,14.14-10.7,5.83-2.32,12.88-3.49,21.12-3.51l.34.34.34-.34c6.91.05,12.95.81,18.08,2.34,5.25,1.58,9.61,3.81,13.06,6.71,3.47,2.88,6.24,6.64,8.33,11.28,2.09,4.64,3.58,9.75,4.44,15.33.88,5.58,1.31,12.14,1.31,19.61Z"/>
      <g>
        <polygon points="87.55 26.46 55.8 58.32 55.12 58.32 23.17 26.48 39.9 9.68 55.42 25.15 70.77 9.73 87.55 26.46"/>
        <polygon points="55.8 58.32 55.46 58.66 55.12 58.32 55.8 58.32"/>
      </g>
    </g>
    <g>
      <path d="m203.34,99.42V9.68h-21.66v89.74c0,4.41-.36,8.17-1.06,11.26-.72,3.06-1.94,5.81-3.72,8.17-1.78,2.36-4.26,4.14-7.43,5.29-3.18,1.15-7.12,1.71-11.82,1.71s-8.71-.56-11.87-1.67c-3.15-1.1-5.63-2.84-7.41-5.18-1.76-2.36-2.99-5.09-3.69-8.2-.72-3.08-1.06-6.89-1.06-11.39V9.68h-21.62v89.74c0,9.21.81,17.16,2.41,23.87,1.62,6.71,4.19,12.43,7.77,17.2,3.56,4.77,8.26,8.33,14.14,10.7,5.83,2.32,12.88,3.49,21.12,3.51l.34-.34.34.34c6.91-.05,12.95-.81,18.08-2.34,5.25-1.58,9.61-3.81,13.06-6.71,3.47-2.88,6.24-6.64,8.33-11.28,2.09-4.64,3.58-9.75,4.44-15.33.88-5.58,1.31-12.14,1.31-19.61Z"/>
      <g>
        <polygon points="189.87 186.56 158.12 154.7 157.45 154.7 125.5 186.54 142.23 203.34 157.74 187.87 173.1 203.29 189.87 186.56"/>
        <polygon points="158.12 154.7 157.79 154.36 157.45 154.7 158.12 154.7"/>
      </g>
    </g>
  </g>
</svg>