<?xml version="1.0" encoding="UTF-8"?>
<svg id="Layer_2" data-name="Layer 2" xmlns="http://www.w3.org/2000/svg" viewBox="0 0 68.39 40.56">
  <g id="Layer_1-2" data-name="Layer 1">
    <g>
      <path d="m46.15,0h22.24v9.62h-22.24c-1.96,0-3.63.16-5,.47-1.36.32-2.58.86-3.63,1.65s-1.84,1.89-2.35,3.3c-.51,1.41-.76,3.16-.76,5.25s.25,3.87.74,5.27c.49,1.4,1.26,2.5,2.3,3.29,1.05.78,2.26,1.33,3.64,1.64,1.37.32,3.06.47,5.06.47h22.24v9.6h-22.24c-4.09,0-7.62-.36-10.6-1.07-2.98-.72-5.52-1.86-7.64-3.45-2.12-1.58-3.7-3.67-4.75-6.28-1.03-2.59-1.55-5.72-1.56-9.38l.15-.15-.15-.15c.02-3.07.36-5.75,1.04-8.03.7-2.33,1.69-4.27,2.98-5.8,1.28-1.54,2.95-2.77,5.01-3.7s4.33-1.59,6.81-1.97c2.48-.39,5.39-.58,8.71-.58Z"/>
      <g>
        <polygon points="7.45 5.98 21.6 20.08 21.6 20.38 7.46 34.57 0 27.14 6.87 20.25 .02 13.43 7.45 5.98"/>
        <polygon points="21.6 20.08 21.75 20.23 21.6 20.38 21.6 20.08"/>
      </g>
    </g>
  </g>
</svg>