<?xml version="1.0" encoding="UTF-8"?>
<svg id="Layer_2" data-name="Layer 2" xmlns="http://www.w3.org/2000/svg" xmlns:xlink="http://www.w3.org/1999/xlink" viewBox="0 0 2932.27 2932.32">
  <defs>
    <clipPath id="clippath">
      <rect x="891.82" y="899.04" width="1223.31" height="1210" fill="none"/>
    </clipPath>
  </defs>
  <g id="Layer_1-2" data-name="Layer 1">
    <g clip-path="url(#clippath)" fill="none">
      <g>
        <g>
          <path d="m1757.32,1272.62c6.62,6.59,13.21,11.3,19.75,14.12,6.61,2.82,13.23,3.74,19.91,2.76,6.7-.96,13.34-3.48,20.02-7.56,6.66-4.1,13.68-9.82,21.07-17.2l114.59-114.59h0s199.12-199.13,199.12-199.13c5.99-5.99,10.9-11.59,14.68-16.77,3.79-5.16,6.7-10.45,8.74-15.85s2.83-10.63,2.36-15.72c-.43-5.09-2.15-10.38-5.09-15.85-2.89-5.34-7.11-10.79-12.62-16.37h-.54s0-.54,0-.54c-6.62-6.59-13.21-11.3-19.75-14.12-6.61-2.82-13.23-3.74-19.91-2.76-6.7.96-13.34,3.48-20.02,7.56-6.66,4.1-13.68,9.82-21.07,17.2l-199.12,199.12h0s-114.59,114.6-114.59,114.6c-5.99,5.99-10.9,11.59-14.68,16.77-3.79,5.16-6.7,10.45-8.74,15.85-2.04,5.4-2.83,10.63-2.36,15.72.43,5.09,2.15,10.38,5.09,15.85,2.89,5.34,7.11,10.79,12.62,16.37h.54s0,.54,0,.54Zm14.86-34.14c-1.62-3.47-2.18-6.88-1.71-10.2.47-3.32,1.7-6.5,3.57-9.53,1.91-3.03,4.64-6.34,8.18-9.87l114.59-114.59-.05-.05,199.12-199.12c3.61-3.61,6.93-6.39,9.98-8.29,3.05-1.93,6.23-3.12,9.53-3.61,3.3-.45,6.68.14,10.09,1.79,3.41,1.64,7.04,4.37,10.85,8.18,3.77,3.77,6.48,7.38,8.11,10.85,1.62,3.47,2.18,6.88,1.71,10.2-.47,3.32-1.7,6.5-3.57,9.53-1.91,3.03-4.64,6.34-8.18,9.87l-199.12,199.12.05.05-114.59,114.59c-3.61,3.61-6.93,6.39-9.98,8.29-3.05,1.93-6.23,3.12-9.53,3.61-3.3.45-6.68-.14-10.09-1.79-3.41-1.64-7.04-4.37-10.85-8.18s-6.48-7.38-8.11-10.85Z" fill="none" stroke="#000" stroke-miterlimit="10" stroke-width="2"/>
          <polygon points="1730.54 1323.81 1757.41 1323.76 1757.32 1272.62 1756.78 1272.07 1705.79 1272.17 1705.82 1299.03 1730.5 1298.97 1730.54 1323.81" fill="none" stroke="#000" stroke-miterlimit="10" stroke-width="2"/>
          <polygon points="2210.84 870.35 2210.8 843.49 2186.12 843.55 2186.09 818.71 2159.21 818.76 2159.3 869.9 2159.84 870.44 2210.84 870.35" fill="none" stroke="#000" stroke-miterlimit="10" stroke-width="2"/>
        </g>
        <g>
          <path d="m2520.4,1950.4c6.62,6.59,13.21,11.3,19.75,14.12,6.61,2.82,13.23,3.74,19.91,2.76,6.7-.96,13.34-3.48,20.02-7.56,6.66-4.1,13.68-9.82,21.07-17.2l71.94-71.94h0s199.12-199.13,199.12-199.13c5.99-5.99,10.9-11.59,14.68-16.77,3.79-5.16,6.7-10.45,8.74-15.85,2.04-5.4,2.83-10.63,2.36-15.72-.43-5.09-2.15-10.38-5.09-15.85-2.89-5.34-7.11-10.79-12.62-16.37h-.54s0-.54,0-.54c-6.62-6.59-13.21-11.3-19.75-14.12-6.61-2.82-13.23-3.74-19.91-2.76-6.7.96-13.34,3.48-20.02,7.56-6.66,4.1-13.68,9.82-21.07,17.2l-199.12,199.12h0s-71.94,71.95-71.94,71.95c-5.99,5.99-10.9,11.59-14.68,16.77-3.79,5.16-6.7,10.45-8.74,15.85-2.04,5.4-2.83,10.63-2.36,15.72.43,5.09,2.15,10.38,5.09,15.85,2.89,5.34,7.11,10.79,12.62,16.37h.54s0,.54,0,.54Zm14.86-34.14c-1.62-3.47-2.18-6.88-1.71-10.2.47-3.32,1.7-6.5,3.57-9.53,1.91-3.03,4.64-6.34,8.18-9.87l71.94-71.94-.05-.05,199.12-199.12c3.61-3.61,6.93-6.39,9.98-8.29,3.05-1.93,6.23-3.12,9.53-3.61,3.3-.45,6.68.14,10.09,1.79,3.41,1.64,7.04,4.37,10.85,8.18,3.77,3.77,6.48,7.38,8.11,10.85,1.62,3.47,2.18,6.88,1.71,10.2-.47,3.32-1.7,6.5-3.57,9.53-1.91,3.03-4.64,6.34-8.18,9.87l-199.12,199.12.05.05-71.94,71.94c-3.61,3.61-6.93,6.39-9.98,8.29-3.05,1.93-6.23,3.12-9.53,3.61-3.3.45-6.68-.14-10.09-1.79-3.41-1.64-7.04-4.37-10.85-8.18s-6.48-7.38-8.11-10.85Z" fill="none" stroke="#000" stroke-miterlimit="10" stroke-width="2"/>
          <polygon points="2493.61 2001.59 2520.49 2001.54 2520.4 1950.4 2519.86 1949.85 2468.86 1949.94 2468.9 1976.81 2493.58 1976.75 2493.61 2001.59" fill="none" stroke="#000" stroke-miterlimit="10" stroke-width="2"/>
          <polygon points="2931.26 1590.78 2931.23 1563.92 2906.55 1563.98 2906.52 1539.14 2879.64 1539.19 2879.73 1590.33 2880.27 1590.87 2931.26 1590.78" fill="none" stroke="#000" stroke-miterlimit="10" stroke-width="2"/>
        </g>
        <g>
          <path d="m2178.59,1468.86c6.62,6.59,13.21,11.3,19.75,14.12,6.61,2.82,13.23,3.74,19.91,2.76,6.7-.96,13.34-3.48,20.02-7.56,6.66-4.1,13.68-9.82,21.07-17.2l2.08-2.08h0s199.12-199.13,199.12-199.13c5.99-5.99,10.9-11.59,14.68-16.77,3.79-5.16,6.7-10.45,8.74-15.85,2.04-5.4,2.83-10.63,2.36-15.72-.43-5.09-2.15-10.38-5.09-15.85-2.89-5.34-7.11-10.79-12.62-16.37h-.54s0-.54,0-.54c-6.62-6.59-13.21-11.3-19.75-14.12-6.61-2.82-13.23-3.74-19.91-2.76-6.7.96-13.34,3.48-20.02,7.56-6.66,4.1-13.68,9.82-21.07,17.2l-199.12,199.12h0s-2.08,2.09-2.08,2.09c-5.99,5.99-10.9,11.59-14.68,16.77-3.79,5.16-6.7,10.45-8.74,15.85-2.04,5.4-2.83,10.63-2.36,15.72.43,5.09,2.15,10.38,5.09,15.85,2.89,5.34,7.11,10.79,12.62,16.37h.54s0,.54,0,.54Zm14.86-34.14c-1.62-3.47-2.18-6.88-1.71-10.2.47-3.32,1.7-6.5,3.57-9.53,1.91-3.03,4.64-6.34,8.18-9.87l2.08-2.08-.05-.05,199.12-199.12c3.61-3.61,6.93-6.39,9.98-8.29,3.05-1.93,6.23-3.12,9.53-3.61,3.3-.45,6.68.14,10.09,1.79,3.41,1.64,7.04,4.37,10.85,8.18,3.77,3.77,6.48,7.38,8.11,10.85,1.62,3.47,2.18,6.88,1.71,10.2-.47,3.32-1.7,6.5-3.57,9.53-1.91,3.03-4.64,6.34-8.18,9.87l-199.12,199.12.05.05-2.08,2.08c-3.61,3.61-6.93,6.39-9.98,8.29-3.05,1.93-6.23,3.12-9.53,3.61-3.3.45-6.68-.14-10.09-1.79-3.41-1.64-7.04-4.37-10.85-8.18s-6.48-7.38-8.11-10.85Z" fill="none" stroke="#000" stroke-miterlimit="10" stroke-width="2"/>
          <polygon points="2151.8 1520.06 2178.68 1520 2178.59 1468.86 2178.05 1468.32 2127.05 1468.41 2127.09 1495.27 2151.76 1495.22 2151.8 1520.06" fill="none" stroke="#000" stroke-miterlimit="10" stroke-width="2"/>
          <polygon points="2519.59 1179.11 2519.55 1152.25 2494.88 1152.3 2494.84 1127.46 2467.96 1127.52 2468.05 1178.66 2468.6 1179.2 2519.59 1179.11" fill="none" stroke="#000" stroke-miterlimit="10" stroke-width="2"/>
        </g>
        <g>
          <path d="m2322.68,1942.28c6.62,6.59,13.21,11.3,19.75,14.12,6.61,2.82,13.23,3.74,19.91,2.76,6.7-.96,13.34-3.48,20.02-7.56,6.66-4.1,13.68-9.82,21.07-17.2l166.74-166.74h0s199.12-199.13,199.12-199.13c5.99-5.99,10.9-11.59,14.68-16.77,3.79-5.16,6.7-10.45,8.74-15.85,2.04-5.4,2.83-10.63,2.36-15.72-.43-5.09-2.15-10.38-5.09-15.85-2.89-5.34-7.11-10.79-12.62-16.37h-.54s0-.54,0-.54c-6.62-6.59-13.21-11.3-19.75-14.12-6.61-2.82-13.23-3.74-19.91-2.76-6.7.96-13.34,3.48-20.02,7.56-6.66,4.1-13.68,9.82-21.07,17.2l-199.12,199.12h0s-166.74,166.75-166.74,166.75c-5.99,5.99-10.9,11.59-14.68,16.77-3.79,5.16-6.7,10.45-8.74,15.85-2.04,5.4-2.83,10.63-2.36,15.72.43,5.09,2.15,10.38,5.09,15.85,2.89,5.34,7.11,10.79,12.62,16.37h.54s0,.54,0,.54Zm14.86-34.14c-1.62-3.47-2.18-6.88-1.71-10.2.47-3.32,1.7-6.5,3.57-9.53,1.91-3.03,4.64-6.34,8.18-9.87l166.74-166.74-.05-.05,199.12-199.12c3.61-3.61,6.93-6.39,9.98-8.29,3.05-1.93,6.23-3.12,9.53-3.61,3.3-.45,6.68.14,10.09,1.79,3.41,1.64,7.04,4.37,10.85,8.18,3.77,3.77,6.48,7.38,8.11,10.85,1.62,3.47,2.18,6.88,1.71,10.2-.47,3.32-1.7,6.5-3.57,9.53-1.91,3.03-4.64,6.34-8.18,9.87l-199.12,199.12.05.05-166.74,166.74c-3.61,3.61-6.93,6.39-9.98,8.29-3.05,1.93-6.23,3.12-9.53,3.61-3.3.45-6.68-.14-10.09-1.79-3.41-1.64-7.04-4.37-10.85-8.18s-6.48-7.38-8.11-10.85Z" fill="none" stroke="#000" stroke-miterlimit="10" stroke-width="2"/>
          <polygon points="2295.89 1993.47 2322.77 1993.42 2322.68 1942.28 2322.14 1941.74 2271.15 1941.83 2271.18 1968.69 2295.86 1968.63 2295.89 1993.47" fill="none" stroke="#000" stroke-miterlimit="10" stroke-width="2"/>
          <polygon points="2828.35 1487.86 2828.31 1461 2803.63 1461.06 2803.6 1436.22 2776.72 1436.27 2776.81 1487.41 2777.35 1487.95 2828.35 1487.86" fill="none" stroke="#000" stroke-miterlimit="10" stroke-width="2"/>
        </g>
        <g>
          <path d="m2464.65,1594.48c6.62,6.59,13.21,11.3,19.75,14.12,6.61,2.82,13.23,3.74,19.91,2.76,6.7-.96,13.34-3.48,20.02-7.56,6.66-4.1,13.68-9.82,21.07-17.2l71.94-71.94h0s49.04-49.05,49.04-49.05c5.99-5.99,10.9-11.59,14.68-16.77,3.79-5.16,6.7-10.45,8.74-15.85s2.83-10.63,2.36-15.72c-.43-5.09-2.15-10.38-5.09-15.85-2.89-5.34-7.11-10.79-12.62-16.37h-.54s0-.54,0-.54c-6.62-6.59-13.21-11.3-19.75-14.12-6.61-2.82-13.23-3.74-19.91-2.76-6.7.96-13.34,3.48-20.02,7.56-6.66,4.1-13.68,9.82-21.07,17.2l-49.04,49.04h0s-71.94,71.95-71.94,71.95c-5.99,5.99-10.9,11.59-14.68,16.77-3.79,5.16-6.7,10.45-8.74,15.85-2.04,5.4-2.83,10.63-2.36,15.72.43,5.09,2.15,10.38,5.09,15.85,2.89,5.34,7.11,10.79,12.62,16.37h.54s0,.54,0,.54Zm14.86-34.14c-1.62-3.47-2.18-6.88-1.71-10.2.47-3.32,1.7-6.5,3.57-9.53,1.91-3.03,4.64-6.34,8.18-9.87l71.94-71.94-.05-.05,49.04-49.04c3.61-3.61,6.93-6.39,9.98-8.29,3.05-1.93,6.23-3.12,9.53-3.61,3.3-.45,6.68.14,10.09,1.79,3.41,1.64,7.04,4.37,10.85,8.18,3.77,3.77,6.48,7.38,8.11,10.85,1.62,3.47,2.18,6.88,1.71,10.2-.47,3.32-1.7,6.5-3.57,9.53-1.91,3.03-4.64,6.34-8.18,9.87l-49.04,49.04.05.05-71.94,71.94c-3.61,3.61-6.93,6.39-9.98,8.29-3.05,1.93-6.23,3.12-9.53,3.61-3.3.45-6.68-.14-10.09-1.79-3.41-1.64-7.04-4.37-10.85-8.18-3.77-3.77-6.48-7.38-8.11-10.85Z" fill="none" stroke="#000" stroke-miterlimit="10" stroke-width="2"/>
          <polygon points="2437.86 1645.67 2464.74 1645.62 2464.65 1594.48 2464.1 1593.94 2413.11 1594.03 2413.14 1620.89 2437.82 1620.83 2437.86 1645.67" fill="none" stroke="#000" stroke-miterlimit="10" stroke-width="2"/>
          <polygon points="2725.43 1384.94 2725.39 1358.08 2700.72 1358.14 2700.68 1333.3 2673.8 1333.35 2673.89 1384.49 2674.43 1385.03 2725.43 1384.94" fill="none" stroke="#000" stroke-miterlimit="10" stroke-width="2"/>
        </g>
        <g>
          <path d="m2211.65,1641.64c6.62,6.59,13.21,11.3,19.75,14.12,6.61,2.82,13.23,3.74,19.91,2.76,6.7-.96,13.34-3.48,20.02-7.56,6.66-4.1,13.68-9.82,21.07-17.2l71.94-71.94h0s199.12-199.13,199.12-199.13c5.99-5.99,10.9-11.59,14.68-16.77,3.79-5.16,6.7-10.45,8.74-15.85s2.83-10.63,2.36-15.72c-.43-5.09-2.15-10.38-5.09-15.85-2.89-5.34-7.11-10.79-12.62-16.37h-.54s0-.54,0-.54c-6.62-6.59-13.21-11.3-19.75-14.12-6.61-2.82-13.23-3.74-19.91-2.76-6.7.96-13.34,3.48-20.02,7.56-6.66,4.1-13.68,9.82-21.07,17.2l-199.12,199.12h0s-71.94,71.95-71.94,71.95c-5.99,5.99-10.9,11.59-14.68,16.77-3.79,5.16-6.7,10.45-8.74,15.85-2.04,5.4-2.83,10.63-2.36,15.72.43,5.09,2.15,10.38,5.09,15.85,2.89,5.34,7.11,10.79,12.62,16.37h.54s0,.54,0,.54Zm14.86-34.14c-1.62-3.47-2.18-6.88-1.71-10.2.47-3.32,1.7-6.5,3.57-9.53,1.91-3.03,4.64-6.34,8.18-9.87l71.94-71.94-.05-.05,199.12-199.12c3.61-3.61,6.93-6.39,9.98-8.29,3.05-1.93,6.23-3.12,9.53-3.61,3.3-.45,6.68.14,10.09,1.79,3.41,1.64,7.04,4.37,10.85,8.18,3.77,3.77,6.48,7.38,8.11,10.85,1.62,3.47,2.18,6.88,1.71,10.2-.47,3.32-1.7,6.5-3.57,9.53-1.91,3.03-4.64,6.34-8.18,9.87l-199.12,199.12.05.05-71.94,71.94c-3.61,3.61-6.93,6.39-9.98,8.29-3.05,1.93-6.23,3.12-9.53,3.61-3.3.45-6.68-.14-10.09-1.79-3.41-1.64-7.04-4.37-10.85-8.18-3.77-3.77-6.48-7.38-8.11-10.85Z" fill="none" stroke="#000" stroke-miterlimit="10" stroke-width="2"/>
          <polygon points="2184.86 1692.83 2211.74 1692.78 2211.65 1641.64 2211.1 1641.1 2160.11 1641.19 2160.15 1668.05 2184.82 1668 2184.86 1692.83" fill="none" stroke="#000" stroke-miterlimit="10" stroke-width="2"/>
          <polygon points="2622.51 1282.03 2622.47 1255.17 2597.8 1255.22 2597.76 1230.38 2570.88 1230.44 2570.97 1281.57 2571.51 1282.12 2622.51 1282.03" fill="none" stroke="#000" stroke-miterlimit="10" stroke-width="2"/>
        </g>
        <g>
          <path d="m1773.67,1462.11c6.62,6.59,13.21,11.3,19.75,14.12,6.61,2.82,13.23,3.74,19.91,2.76,6.7-.96,13.34-3.48,20.02-7.56,6.66-4.1,13.68-9.82,21.07-17.2l201.16-201.16h0s199.12-199.13,199.12-199.13c5.99-5.99,10.9-11.59,14.68-16.77,3.79-5.16,6.7-10.45,8.74-15.85s2.83-10.63,2.36-15.72c-.43-5.09-2.15-10.38-5.09-15.85-2.89-5.34-7.11-10.79-12.62-16.37h-.54s0-.54,0-.54c-6.62-6.59-13.21-11.3-19.75-14.12-6.61-2.82-13.23-3.74-19.91-2.76-6.7.96-13.34,3.48-20.02,7.56-6.66,4.1-13.68,9.82-21.07,17.2l-199.12,199.12h0s-201.16,201.17-201.16,201.17c-5.99,5.99-10.9,11.59-14.68,16.77-3.79,5.16-6.7,10.45-8.74,15.85-2.04,5.4-2.83,10.63-2.36,15.72.43,5.09,2.15,10.38,5.09,15.85,2.89,5.34,7.11,10.79,12.62,16.37h.54s0,.54,0,.54Zm14.86-34.14c-1.62-3.47-2.18-6.88-1.71-10.2.47-3.32,1.7-6.5,3.57-9.53,1.91-3.03,4.64-6.34,8.18-9.87l201.16-201.16-.05-.05,199.12-199.12c3.61-3.61,6.93-6.39,9.98-8.29,3.05-1.93,6.23-3.12,9.53-3.61,3.3-.45,6.68.14,10.09,1.79,3.41,1.64,7.04,4.37,10.85,8.18s6.48,7.38,8.11,10.85c1.62,3.47,2.18,6.88,1.71,10.2-.47,3.32-1.7,6.5-3.57,9.53-1.91,3.03-4.64,6.34-8.18,9.87l-199.12,199.12.05.05-201.16,201.16c-3.61,3.61-6.93,6.39-9.98,8.29-3.05,1.93-6.23,3.12-9.53,3.61-3.3.45-6.68-.14-10.09-1.79-3.41-1.64-7.04-4.37-10.85-8.18s-6.48-7.38-8.11-10.85Z" fill="none" stroke="#000" stroke-miterlimit="10" stroke-width="2"/>
          <polygon points="1746.88 1513.3 1773.76 1513.25 1773.67 1462.11 1773.13 1461.57 1722.13 1461.66 1722.17 1488.52 1746.84 1488.46 1746.88 1513.3" fill="none" stroke="#000" stroke-miterlimit="10" stroke-width="2"/>
          <polygon points="2313.75 973.27 2313.72 946.41 2289.04 946.46 2289.01 921.63 2262.13 921.68 2262.22 972.82 2262.76 973.36 2313.75 973.27" fill="none" stroke="#000" stroke-miterlimit="10" stroke-width="2"/>
        </g>
        <g>
          <path d="m2005.81,1435.8c6.62,6.59,13.21,11.3,19.75,14.12,6.61,2.82,13.23,3.74,19.91,2.76,6.7-.96,13.34-3.48,20.02-7.56,6.66-4.1,13.68-9.82,21.07-17.2l71.94-71.94h0s199.12-199.13,199.12-199.13c5.99-5.99,10.9-11.59,14.68-16.77,3.79-5.16,6.7-10.45,8.74-15.85s2.83-10.63,2.36-15.72c-.43-5.09-2.15-10.38-5.09-15.85-2.89-5.34-7.11-10.79-12.62-16.37h-.54s0-.54,0-.54c-6.62-6.59-13.21-11.3-19.75-14.12-6.61-2.82-13.23-3.74-19.91-2.76-6.7.96-13.34,3.48-20.02,7.56-6.66,4.1-13.68,9.82-21.07,17.2l-199.12,199.12h0s-71.94,71.95-71.94,71.95c-5.99,5.99-10.9,11.59-14.68,16.77-3.79,5.16-6.7,10.45-8.74,15.85-2.04,5.4-2.83,10.63-2.36,15.72.43,5.09,2.15,10.38,5.09,15.85,2.89,5.34,7.11,10.79,12.62,16.37h.54s0,.54,0,.54Zm14.86-34.14c-1.62-3.47-2.18-6.88-1.71-10.2.47-3.32,1.7-6.5,3.57-9.53,1.91-3.03,4.64-6.34,8.18-9.87l71.94-71.94-.05-.05,199.12-199.12c3.61-3.61,6.93-6.39,9.98-8.29,3.05-1.93,6.23-3.12,9.53-3.61,3.3-.45,6.68.14,10.09,1.79,3.41,1.64,7.04,4.37,10.85,8.18,3.77,3.77,6.48,7.38,8.11,10.85,1.62,3.47,2.18,6.88,1.71,10.2-.47,3.32-1.7,6.5-3.57,9.53-1.91,3.03-4.64,6.34-8.18,9.87l-199.12,199.12.05.05-71.94,71.94c-3.61,3.61-6.93,6.39-9.98,8.29-3.05,1.93-6.23,3.12-9.53,3.61-3.3.45-6.68-.14-10.09-1.79-3.41-1.64-7.04-4.37-10.85-8.18-3.77-3.77-6.48-7.38-8.11-10.85Z" fill="none" stroke="#000" stroke-miterlimit="10" stroke-width="2"/>
          <polygon points="1979.02 1487 2005.9 1486.94 2005.81 1435.8 2005.27 1435.26 1954.27 1435.35 1954.31 1462.21 1978.99 1462.16 1979.02 1487" fill="none" stroke="#000" stroke-miterlimit="10" stroke-width="2"/>
          <polygon points="2416.67 1076.19 2416.64 1049.33 2391.96 1049.38 2391.92 1024.54 2365.05 1024.6 2365.14 1075.74 2365.68 1076.28 2416.67 1076.19" fill="none" stroke="#000" stroke-miterlimit="10" stroke-width="2"/>
        </g>
        <g>
          <path d="m1204.17,1825.77c6.62,6.59,13.21,11.3,19.75,14.12,6.61,2.82,13.23,3.74,19.91,2.76,6.7-.96,13.34-3.48,20.02-7.56,6.66-4.1,13.68-9.82,21.07-17.2l202.88-202.88h0s156.47-156.48,156.47-156.48c5.99-5.99,10.9-11.59,14.68-16.77,3.79-5.16,6.7-10.45,8.74-15.85s2.83-10.63,2.36-15.72c-.43-5.09-2.15-10.38-5.09-15.85-2.89-5.34-7.11-10.79-12.62-16.37h-.54s0-.54,0-.54c-6.62-6.59-13.21-11.3-19.75-14.12-6.61-2.82-13.23-3.74-19.91-2.76-6.7.96-13.34,3.48-20.02,7.56-6.66,4.1-13.68,9.82-21.07,17.2l-156.47,156.47h0s-202.88,202.89-202.88,202.89c-5.99,5.99-10.9,11.59-14.68,16.77-3.79,5.16-6.7,10.45-8.74,15.85-2.04,5.4-2.83,10.63-2.36,15.72.43,5.09,2.15,10.38,5.09,15.85,2.89,5.34,7.11,10.79,12.62,16.37h.54s0,.54,0,.54Zm14.86-34.14c-1.62-3.47-2.18-6.88-1.71-10.2.47-3.32,1.7-6.5,3.57-9.53,1.91-3.03,4.64-6.34,8.18-9.87l202.88-202.88-.05-.05,156.47-156.47c3.61-3.61,6.93-6.39,9.98-8.29,3.05-1.93,6.23-3.12,9.53-3.61,3.3-.45,6.68.14,10.09,1.79,3.41,1.64,7.04,4.37,10.85,8.18,3.77,3.77,6.48,7.38,8.11,10.85,1.62,3.47,2.18,6.88,1.71,10.2-.47,3.32-1.7,6.5-3.57,9.53-1.91,3.03-4.64,6.34-8.18,9.87l-156.47,156.47.05.05-202.88,202.88c-3.61,3.61-6.93,6.39-9.98,8.29-3.05,1.93-6.23,3.12-9.53,3.61-3.3.45-6.68-.14-10.09-1.79-3.41-1.64-7.04-4.37-10.85-8.18-3.77-3.77-6.48-7.38-8.11-10.85Z" fill="none" stroke="#000" stroke-miterlimit="10" stroke-width="2"/>
          <polygon points="1177.38 1876.96 1204.26 1876.91 1204.17 1825.77 1203.63 1825.23 1152.63 1825.32 1152.67 1852.18 1177.35 1852.12 1177.38 1876.96" fill="none" stroke="#000" stroke-miterlimit="10" stroke-width="2"/>
          <polygon points="1703.32 1377.87 1703.29 1351.01 1678.61 1351.06 1678.57 1326.22 1651.69 1326.28 1651.78 1377.41 1652.33 1377.96 1703.32 1377.87" fill="none" stroke="#000" stroke-miterlimit="10" stroke-width="2"/>
        </g>
        <g>
          <path d="m1927.37,2543.42c6.62,6.59,13.21,11.3,19.75,14.12,6.61,2.82,13.23,3.74,19.91,2.76,6.7-.96,13.34-3.48,20.02-7.56,6.66-4.1,13.68-9.82,21.07-17.2l71.94-71.94h0s327.29-327.29,327.29-327.29c5.99-5.99,10.9-11.59,14.68-16.77,3.79-5.16,6.7-10.45,8.74-15.85s2.83-10.63,2.36-15.72c-.43-5.09-2.15-10.38-5.09-15.85-2.89-5.34-7.11-10.79-12.62-16.37h-.54s0-.54,0-.54c-6.62-6.59-13.21-11.3-19.75-14.12-6.61-2.82-13.23-3.74-19.91-2.76-6.7.96-13.34,3.48-20.02,7.56-6.66,4.1-13.68,9.82-21.07,17.2l-327.29,327.29h0s-71.94,71.95-71.94,71.95c-5.99,5.99-10.9,11.59-14.68,16.77-3.79,5.16-6.7,10.45-8.74,15.85-2.04,5.4-2.83,10.63-2.36,15.72.43,5.09,2.15,10.38,5.09,15.85,2.89,5.34,7.11,10.79,12.62,16.37h.54s0,.54,0,.54Zm14.86-34.14c-1.62-3.47-2.18-6.88-1.71-10.2.47-3.32,1.7-6.5,3.57-9.53,1.91-3.03,4.64-6.34,8.18-9.87l71.94-71.94-.05-.05,327.29-327.29c3.61-3.61,6.93-6.39,9.98-8.29,3.05-1.93,6.23-3.12,9.53-3.61,3.3-.45,6.68.14,10.09,1.79,3.41,1.64,7.04,4.37,10.85,8.18s6.48,7.38,8.11,10.85c1.62,3.47,2.18,6.88,1.71,10.2-.47,3.32-1.7,6.5-3.57,9.53-1.91,3.03-4.64,6.34-8.18,9.87l-327.29,327.29.05.05-71.94,71.94c-3.61,3.61-6.93,6.39-9.98,8.29-3.05,1.93-6.23,3.12-9.53,3.61-3.3.45-6.68-.14-10.09-1.79-3.41-1.64-7.04-4.37-10.85-8.18-3.77-3.77-6.48-7.38-8.11-10.85Z" fill="none" stroke="#000" stroke-miterlimit="10" stroke-width="2"/>
          <polygon points="1900.59 2594.62 1927.46 2594.56 1927.37 2543.42 1926.83 2542.88 1875.84 2542.97 1875.87 2569.83 1900.55 2569.78 1900.59 2594.62" fill="none" stroke="#000" stroke-miterlimit="10" stroke-width="2"/>
          <polygon points="2466.4 2055.65 2466.36 2028.79 2441.69 2028.84 2441.65 2004 2414.77 2004.06 2414.86 2055.19 2415.4 2055.74 2466.4 2055.65" fill="none" stroke="#000" stroke-miterlimit="10" stroke-width="2"/>
        </g>
        <g>
          <path d="m1589.04,2058.41c6.62,6.59,13.21,11.3,19.75,14.12,6.61,2.82,13.23,3.74,19.91,2.76,6.7-.96,13.34-3.48,20.02-7.56,6.66-4.1,13.68-9.82,21.07-17.2l126.76-126.76h0s228.81-228.82,228.81-228.82c5.99-5.99,10.9-11.59,14.68-16.77,3.79-5.16,6.7-10.45,8.74-15.85,2.04-5.4,2.83-10.63,2.36-15.72-.43-5.09-2.15-10.38-5.09-15.85-2.89-5.34-7.11-10.79-12.62-16.37h-.54s0-.54,0-.54c-6.62-6.59-13.21-11.3-19.75-14.12-6.61-2.82-13.23-3.74-19.91-2.76-6.7.96-13.34,3.48-20.02,7.56-6.66,4.1-13.68,9.82-21.07,17.2l-228.81,228.81h0s-126.76,126.77-126.76,126.77c-5.99,5.99-10.9,11.59-14.68,16.77-3.79,5.16-6.7,10.45-8.74,15.85-2.04,5.4-2.83,10.63-2.36,15.72.43,5.09,2.15,10.38,5.09,15.85,2.89,5.34,7.11,10.79,12.62,16.37h.54s0,.54,0,.54Zm14.86-34.14c-1.62-3.47-2.18-6.88-1.71-10.2.47-3.32,1.7-6.5,3.57-9.53,1.91-3.03,4.64-6.34,8.18-9.87l126.76-126.76-.05-.05,228.81-228.81c3.61-3.61,6.93-6.39,9.98-8.29,3.05-1.93,6.23-3.12,9.53-3.61,3.3-.45,6.68.14,10.09,1.79,3.41,1.64,7.04,4.37,10.85,8.18s6.48,7.38,8.11,10.85c1.62,3.47,2.18,6.88,1.71,10.2-.47,3.32-1.7,6.5-3.57,9.53-1.91,3.03-4.64,6.34-8.18,9.87l-228.81,228.81.05.05-126.76,126.76c-3.61,3.61-6.93,6.39-9.98,8.29-3.05,1.93-6.23,3.12-9.53,3.61-3.3.45-6.68-.14-10.09-1.79-3.41-1.64-7.04-4.37-10.85-8.18s-6.48-7.38-8.11-10.85Z" fill="none" stroke="#000" stroke-miterlimit="10" stroke-width="2"/>
          <polygon points="1562.25 2109.6 1589.13 2109.55 1589.04 2058.41 1588.5 2057.87 1537.5 2057.96 1537.54 2084.82 1562.22 2084.76 1562.25 2109.6" fill="none" stroke="#000" stroke-miterlimit="10" stroke-width="2"/>
          <polygon points="2084.41 1614.29 2084.37 1587.43 2059.7 1587.48 2059.66 1562.64 2032.78 1562.7 2032.87 1613.84 2033.42 1614.38 2084.41 1614.29" fill="none" stroke="#000" stroke-miterlimit="10" stroke-width="2"/>
        </g>
        <g>
          <path d="m2022.48,2230.88c6.62,6.59,13.21,11.3,19.75,14.12,6.61,2.82,13.23,3.74,19.91,2.76,6.7-.96,13.34-3.48,20.02-7.56,6.66-4.1,13.68-9.82,21.07-17.2l-9.52,9.52h0s104.32-104.33,104.32-104.33c5.99-5.99,10.9-11.59,14.68-16.77,3.79-5.16,6.7-10.45,8.74-15.85,2.04-5.4,2.83-10.63,2.36-15.72-.43-5.09-2.15-10.38-5.09-15.85-2.89-5.34-7.11-10.79-12.62-16.37h-.54s0-.54,0-.54c-6.62-6.59-13.21-11.3-19.75-14.12-6.61-2.82-13.23-3.74-19.91-2.76-6.7.96-13.34,3.48-20.02,7.56-6.66,4.1-13.68,9.82-21.07,17.2l-104.32,104.32h0s9.52-9.51,9.52-9.51c-5.99,5.99-10.9,11.59-14.68,16.77-3.79,5.16-6.7,10.45-8.74,15.85-2.04,5.4-2.83,10.63-2.36,15.72.43,5.09,2.15,10.38,5.09,15.85,2.89,5.34,7.11,10.79,12.62,16.37h.54s0,.54,0,.54Zm14.86-34.14c-1.62-3.47-2.18-6.88-1.71-10.2.47-3.32,1.7-6.5,3.57-9.53,1.91-3.03,4.64-6.34,8.18-9.87l-9.52,9.52-.05-.05,104.32-104.32c3.61-3.61,6.93-6.39,9.98-8.29,3.05-1.93,6.23-3.12,9.53-3.61,3.3-.45,6.68.14,10.09,1.79,3.41,1.64,7.04,4.37,10.85,8.18s6.48,7.38,8.11,10.85c1.62,3.47,2.18,6.88,1.71,10.2-.47,3.32-1.7,6.5-3.57,9.53-1.91,3.03-4.64,6.34-8.18,9.87l-104.32,104.32.05.05,9.52-9.52c-3.61,3.61-6.93,6.39-9.98,8.29-3.05,1.93-6.23,3.12-9.53,3.61-3.3.45-6.68-.14-10.09-1.79-3.41-1.64-7.04-4.37-10.85-8.18s-6.48-7.38-8.11-10.85Z" fill="none" stroke="#000" stroke-miterlimit="10" stroke-width="2"/>
          <polygon points="1995.69 2282.07 2022.57 2282.02 2022.48 2230.88 2021.94 2230.34 1970.94 2230.43 1970.98 2257.29 1995.65 2257.23 1995.69 2282.07" fill="none" stroke="#000" stroke-miterlimit="10" stroke-width="2"/>
          <polygon points="2257.08 2047.53 2257.04 2020.67 2232.37 2020.72 2232.33 1995.88 2205.45 1995.94 2205.54 2047.08 2206.08 2047.62 2257.08 2047.53" fill="none" stroke="#000" stroke-miterlimit="10" stroke-width="2"/>
        </g>
        <g>
          <path d="m1849.7,2209.42c6.62,6.59,13.21,11.3,19.75,14.12,6.61,2.82,13.23,3.74,19.91,2.76,6.7-.96,13.34-3.48,20.02-7.56,6.66-4.1,13.68-9.82,21.07-17.2l71.94-71.94h0s349.2-349.21,349.2-349.21c5.99-5.99,10.9-11.59,14.68-16.77,3.79-5.16,6.7-10.45,8.74-15.85,2.04-5.4,2.83-10.63,2.36-15.72-.43-5.09-2.15-10.38-5.09-15.85-2.89-5.34-7.11-10.79-12.62-16.37h-.54s0-.54,0-.54c-6.62-6.59-13.21-11.3-19.75-14.12-6.61-2.82-13.23-3.74-19.91-2.76-6.7.96-13.34,3.48-20.02,7.56-6.66,4.1-13.68,9.82-21.07,17.2l-349.2,349.2h0s-71.94,71.95-71.94,71.95c-5.99,5.99-10.9,11.59-14.68,16.77-3.79,5.16-6.7,10.45-8.74,15.85-2.04,5.4-2.83,10.63-2.36,15.72.43,5.09,2.15,10.38,5.09,15.85,2.89,5.34,7.11,10.79,12.62,16.37h.54s0,.54,0,.54Zm14.86-34.14c-1.62-3.47-2.18-6.88-1.71-10.2.47-3.32,1.7-6.5,3.57-9.53,1.91-3.03,4.64-6.34,8.18-9.87l71.94-71.94-.05-.05,349.2-349.2c3.61-3.61,6.93-6.39,9.98-8.29,3.05-1.93,6.23-3.12,9.53-3.61,3.3-.45,6.68.14,10.09,1.79,3.41,1.64,7.04,4.37,10.85,8.18,3.77,3.77,6.48,7.38,8.11,10.85,1.62,3.47,2.18,6.88,1.71,10.2-.47,3.32-1.7,6.5-3.57,9.53-1.91,3.03-4.64,6.34-8.18,9.87l-349.2,349.2.05.05-71.94,71.94c-3.61,3.61-6.93,6.39-9.98,8.29-3.05,1.93-6.23,3.12-9.53,3.61-3.3.45-6.68-.14-10.09-1.79-3.41-1.64-7.04-4.37-10.85-8.18s-6.48-7.38-8.11-10.85Z" fill="none" stroke="#000" stroke-miterlimit="10" stroke-width="2"/>
          <polygon points="1822.91 2260.62 1849.79 2260.56 1849.7 2209.42 1849.16 2208.88 1798.16 2208.97 1798.2 2235.83 1822.88 2235.78 1822.91 2260.62" fill="none" stroke="#000" stroke-miterlimit="10" stroke-width="2"/>
          <polygon points="2410.64 1699.73 2410.61 1672.87 2385.93 1672.92 2385.9 1648.08 2359.02 1648.14 2359.11 1699.28 2359.65 1699.82 2410.64 1699.73" fill="none" stroke="#000" stroke-miterlimit="10" stroke-width="2"/>
        </g>
        <g>
          <path d="m1571.71,2281.58c6.62,6.59,13.21,11.3,19.75,14.12,6.61,2.82,13.23,3.74,19.91,2.76,6.7-.96,13.34-3.48,20.02-7.56,6.66-4.1,13.68-9.82,21.07-17.2l71.94-71.94h0s464.9-464.91,464.9-464.91c5.99-5.99,10.9-11.59,14.68-16.77,3.79-5.16,6.7-10.45,8.74-15.85,2.04-5.4,2.83-10.63,2.36-15.72-.43-5.09-2.15-10.38-5.09-15.85-2.89-5.34-7.11-10.79-12.62-16.37h-.54s0-.54,0-.54c-6.62-6.59-13.21-11.3-19.75-14.12-6.61-2.82-13.23-3.74-19.91-2.76-6.7.96-13.34,3.48-20.02,7.56-6.66,4.1-13.68,9.82-21.07,17.2l-464.9,464.9h0s-71.94,71.95-71.94,71.95c-5.99,5.99-10.9,11.59-14.68,16.77-3.79,5.16-6.7,10.45-8.74,15.85-2.04,5.4-2.83,10.63-2.36,15.72.43,5.09,2.15,10.38,5.09,15.85,2.89,5.34,7.11,10.79,12.62,16.37h.54s0,.54,0,.54Zm14.86-34.14c-1.62-3.47-2.18-6.88-1.71-10.2.47-3.32,1.7-6.5,3.57-9.53,1.91-3.03,4.64-6.34,8.18-9.87l71.94-71.94-.05-.05,464.9-464.9c3.61-3.61,6.93-6.39,9.98-8.29,3.05-1.93,6.23-3.12,9.53-3.61,3.3-.45,6.68.14,10.09,1.79,3.41,1.64,7.04,4.37,10.85,8.18s6.48,7.38,8.11,10.85c1.62,3.47,2.18,6.88,1.71,10.2-.47,3.32-1.7,6.5-3.57,9.53-1.91,3.03-4.64,6.34-8.18,9.87l-464.9,464.9.05.05-71.94,71.94c-3.61,3.61-6.93,6.39-9.98,8.29-3.05,1.93-6.23,3.12-9.53,3.61-3.3.45-6.68-.14-10.09-1.79-3.41-1.64-7.04-4.37-10.85-8.18s-6.48-7.38-8.11-10.85Z" fill="none" stroke="#000" stroke-miterlimit="10" stroke-width="2"/>
          <polygon points="1544.92 2332.77 1571.8 2332.72 1571.71 2281.58 1571.17 2281.04 1520.17 2281.13 1520.21 2307.99 1544.88 2307.93 1544.92 2332.77" fill="none" stroke="#000" stroke-miterlimit="10" stroke-width="2"/>
          <polygon points="2248.35 1656.18 2248.31 1629.32 2223.64 1629.38 2223.6 1604.54 2196.72 1604.59 2196.81 1655.73 2197.36 1656.27 2248.35 1656.18" fill="none" stroke="#000" stroke-miterlimit="10" stroke-width="2"/>
        </g>
        <g>
          <path d="m1438.03,1797.75c6.62,6.59,13.21,11.3,19.75,14.12,6.61,2.82,13.23,3.74,19.91,2.76,6.7-.96,13.34-3.48,20.02-7.56,6.66-4.1,13.68-9.82,21.07-17.2l71.94-71.94h0s69.9-69.91,69.9-69.91c5.99-5.99,10.9-11.59,14.68-16.77,3.79-5.16,6.7-10.45,8.74-15.85,2.04-5.4,2.83-10.63,2.36-15.72-.43-5.09-2.15-10.38-5.09-15.85-2.89-5.34-7.11-10.79-12.62-16.37h-.54s0-.54,0-.54c-6.62-6.59-13.21-11.3-19.75-14.12-6.61-2.82-13.23-3.74-19.91-2.76-6.7.96-13.34,3.48-20.02,7.56-6.66,4.1-13.68,9.82-21.07,17.2l-69.9,69.9h0s-71.94,71.95-71.94,71.95c-5.99,5.99-10.9,11.59-14.68,16.77-3.79,5.16-6.7,10.45-8.74,15.85-2.04,5.4-2.83,10.63-2.36,15.72.43,5.09,2.15,10.38,5.09,15.85,2.89,5.34,7.11,10.79,12.62,16.37h.54s0,.54,0,.54Zm14.86-34.14c-1.62-3.47-2.18-6.88-1.71-10.2.47-3.32,1.7-6.5,3.57-9.53,1.91-3.03,4.64-6.34,8.18-9.87l71.94-71.94-.05-.05,69.9-69.9c3.61-3.61,6.93-6.39,9.98-8.29,3.05-1.93,6.23-3.12,9.53-3.61,3.3-.45,6.68.14,10.09,1.79,3.41,1.64,7.04,4.37,10.85,8.18,3.77,3.77,6.48,7.38,8.11,10.85,1.62,3.47,2.18,6.88,1.71,10.2-.47,3.32-1.7,6.5-3.57,9.53-1.91,3.03-4.64,6.34-8.18,9.87l-69.9,69.9.05.05-71.94,71.94c-3.61,3.61-6.93,6.39-9.98,8.29-3.05,1.93-6.23,3.12-9.53,3.61-3.3.45-6.68-.14-10.09-1.79-3.41-1.64-7.04-4.37-10.85-8.18-3.77-3.77-6.48-7.38-8.11-10.85Z" fill="none" stroke="#000" stroke-miterlimit="10" stroke-width="2"/>
          <polygon points="1411.24 1848.94 1438.12 1848.89 1438.03 1797.75 1437.48 1797.21 1386.49 1797.3 1386.53 1824.16 1411.2 1824.11 1411.24 1848.94" fill="none" stroke="#000" stroke-miterlimit="10" stroke-width="2"/>
          <polygon points="1719.67 1567.36 1719.63 1540.5 1694.95 1540.55 1694.92 1515.71 1668.04 1515.77 1668.13 1566.91 1668.67 1567.45 1719.67 1567.36" fill="none" stroke="#000" stroke-miterlimit="10" stroke-width="2"/>
        </g>
        <g>
          <path d="m1686.54,1755.07c6.62,6.59,13.21,11.3,19.75,14.12,6.61,2.82,13.23,3.74,19.91,2.76,6.7-.96,13.34-3.48,20.02-7.56,6.66-4.1,13.68-9.82,21.07-17.2l71.94-71.94h0s53.53-53.54,53.53-53.54c5.99-5.99,10.9-11.59,14.68-16.77,3.79-5.16,6.7-10.45,8.74-15.85,2.04-5.4,2.83-10.63,2.36-15.72-.43-5.09-2.15-10.38-5.09-15.85-2.89-5.34-7.11-10.79-12.62-16.37h-.54s0-.54,0-.54c-6.62-6.59-13.21-11.3-19.75-14.12-6.61-2.82-13.23-3.74-19.91-2.76-6.7.96-13.34,3.48-20.02,7.56-6.66,4.1-13.68,9.82-21.07,17.2l-53.53,53.53h0s-71.94,71.95-71.94,71.95c-5.99,5.99-10.9,11.59-14.68,16.77-3.79,5.16-6.7,10.45-8.74,15.85-2.04,5.4-2.83,10.63-2.36,15.72.43,5.09,2.15,10.38,5.09,15.85,2.89,5.34,7.11,10.79,12.62,16.37h.54s0,.54,0,.54Zm14.86-34.14c-1.62-3.47-2.18-6.88-1.71-10.2.47-3.32,1.7-6.5,3.57-9.53,1.91-3.03,4.64-6.34,8.18-9.87l71.94-71.94-.05-.05,53.53-53.53c3.61-3.61,6.93-6.39,9.98-8.29,3.05-1.93,6.23-3.12,9.53-3.61,3.3-.45,6.68.14,10.09,1.79,3.41,1.64,7.04,4.37,10.85,8.18,3.77,3.77,6.48,7.38,8.11,10.85,1.62,3.47,2.18,6.88,1.71,10.2-.47,3.32-1.7,6.5-3.57,9.53-1.91,3.03-4.64,6.34-8.18,9.87l-53.53,53.53.05.05-71.94,71.94c-3.61,3.61-6.93,6.39-9.98,8.29-3.05,1.93-6.23,3.12-9.53,3.61-3.3.45-6.68-.14-10.09-1.79-3.41-1.64-7.04-4.37-10.85-8.18-3.77-3.77-6.48-7.38-8.11-10.85Z" fill="none" stroke="#000" stroke-miterlimit="10" stroke-width="2"/>
          <polygon points="1659.75 1806.27 1686.63 1806.21 1686.54 1755.07 1686 1754.53 1635 1754.62 1635.04 1781.48 1659.72 1781.43 1659.75 1806.27" fill="none" stroke="#000" stroke-miterlimit="10" stroke-width="2"/>
          <polygon points="1951.81 1541.05 1951.77 1514.19 1927.1 1514.25 1927.06 1489.41 1900.18 1489.46 1900.27 1540.6 1900.81 1541.14 1951.81 1541.05" fill="none" stroke="#000" stroke-miterlimit="10" stroke-width="2"/>
        </g>
        <g>
          <path d="m870.24,2159.7c6.62,6.59,13.21,11.3,19.75,14.12,6.61,2.82,13.23,3.74,19.91,2.76,6.7-.96,13.34-3.48,20.02-7.56,6.66-4.1,13.68-9.82,21.07-17.2l71.94-71.94h0s68.18-68.19,68.18-68.19c5.99-5.99,10.9-11.59,14.68-16.77,3.79-5.16,6.7-10.45,8.74-15.85,2.04-5.4,2.83-10.63,2.36-15.72-.43-5.09-2.15-10.38-5.09-15.85-2.89-5.34-7.11-10.79-12.62-16.37h-.54s0-.54,0-.54c-6.62-6.59-13.21-11.3-19.75-14.12-6.61-2.82-13.23-3.74-19.91-2.76-6.7.96-13.34,3.48-20.02,7.56-6.66,4.1-13.68,9.82-21.07,17.2l-68.18,68.18h0s-71.94,71.95-71.94,71.95c-5.99,5.99-10.9,11.59-14.68,16.77-3.79,5.16-6.7,10.45-8.74,15.85-2.04,5.4-2.83,10.63-2.36,15.72.43,5.09,2.15,10.38,5.09,15.85,2.89,5.34,7.11,10.79,12.62,16.37h.54s0,.54,0,.54Zm14.86-34.14c-1.62-3.47-2.18-6.88-1.71-10.2.47-3.32,1.7-6.5,3.57-9.53,1.91-3.03,4.64-6.34,8.18-9.87l71.94-71.94-.05-.05,68.18-68.18c3.61-3.61,6.93-6.39,9.98-8.29,3.05-1.93,6.23-3.12,9.53-3.61,3.3-.45,6.68.14,10.09,1.79,3.41,1.64,7.04,4.37,10.85,8.18,3.77,3.77,6.48,7.38,8.11,10.85,1.62,3.47,2.18,6.88,1.71,10.2-.47,3.32-1.7,6.5-3.57,9.53-1.91,3.03-4.64,6.34-8.18,9.87l-68.18,68.18.05.05-71.94,71.94c-3.61,3.61-6.93,6.39-9.98,8.29-3.05,1.93-6.23,3.12-9.53,3.61-3.3.45-6.68-.14-10.09-1.79-3.41-1.64-7.04-4.37-10.85-8.18-3.77-3.77-6.48-7.38-8.11-10.85Z" fill="none" stroke="#000" stroke-miterlimit="10" stroke-width="2"/>
          <polygon points="843.45 2210.89 870.33 2210.84 870.24 2159.7 869.7 2159.15 818.71 2159.25 818.74 2186.11 843.42 2186.05 843.45 2210.89" fill="none" stroke="#000" stroke-miterlimit="10" stroke-width="2"/>
          <polygon points="1150.17 1931.02 1150.13 1904.16 1125.46 1904.21 1125.42 1879.37 1098.54 1879.43 1098.63 1930.57 1099.17 1931.11 1150.17 1931.02" fill="none" stroke="#000" stroke-miterlimit="10" stroke-width="2"/>
        </g>
        <g>
          <path d="m1590.67,2880.13c6.62,6.59,13.21,11.3,19.75,14.12,6.61,2.82,13.23,3.74,19.91,2.76,6.7-.96,13.34-3.48,20.02-7.56,6.66-4.1,13.68-9.82,21.07-17.2l71.94-71.94h0s70.96-70.97,70.96-70.97c5.99-5.99,10.9-11.59,14.68-16.77,3.79-5.16,6.7-10.45,8.74-15.85,2.04-5.4,2.83-10.63,2.36-15.72-.43-5.09-2.15-10.38-5.09-15.85-2.89-5.34-7.11-10.79-12.62-16.37h-.54s0-.54,0-.54c-6.62-6.59-13.21-11.3-19.75-14.12-6.61-2.82-13.23-3.74-19.91-2.76-6.7.96-13.34,3.48-20.02,7.56-6.66,4.1-13.68,9.82-21.07,17.2l-70.96,70.96h0s-71.94,71.95-71.94,71.95c-5.99,5.99-10.9,11.59-14.68,16.77-3.79,5.16-6.7,10.45-8.74,15.85-2.04,5.4-2.83,10.63-2.36,15.72.43,5.09,2.15,10.38,5.09,15.85,2.89,5.34,7.11,10.79,12.62,16.37h.54s0,.54,0,.54Zm14.86-34.14c-1.62-3.47-2.18-6.88-1.71-10.2.47-3.32,1.7-6.5,3.57-9.53,1.91-3.03,4.64-6.34,8.18-9.87l71.94-71.94-.05-.05,70.96-70.96c3.61-3.61,6.93-6.39,9.98-8.29,3.05-1.93,6.23-3.12,9.53-3.61,3.3-.45,6.68.14,10.09,1.79,3.41,1.64,7.04,4.37,10.85,8.18,3.77,3.77,6.48,7.38,8.11,10.85,1.62,3.47,2.18,6.88,1.71,10.2-.47,3.32-1.7,6.5-3.57,9.53-1.91,3.03-4.64,6.34-8.18,9.87l-70.96,70.96.05.05-71.94,71.94c-3.61,3.61-6.93,6.39-9.98,8.29-3.05,1.93-6.23,3.12-9.53,3.61-3.3.45-6.68-.14-10.09-1.79-3.41-1.64-7.04-4.37-10.85-8.18-3.77-3.77-6.48-7.38-8.11-10.85Z" fill="none" stroke="#000" stroke-miterlimit="10" stroke-width="2"/>
          <polygon points="1563.88 2931.32 1590.76 2931.27 1590.67 2880.13 1590.13 2879.58 1539.14 2879.67 1539.17 2906.53 1563.85 2906.48 1563.88 2931.32" fill="none" stroke="#000" stroke-miterlimit="10" stroke-width="2"/>
          <polygon points="1873.37 2648.67 1873.34 2621.81 1848.66 2621.87 1848.62 2597.03 1821.75 2597.08 1821.84 2648.22 1822.38 2648.76 1873.37 2648.67" fill="none" stroke="#000" stroke-miterlimit="10" stroke-width="2"/>
        </g>
        <g>
          <path d="m1179,2468.45c6.62,6.59,13.21,11.3,19.75,14.12,6.61,2.82,13.23,3.74,19.91,2.76,6.7-.96,13.34-3.48,20.02-7.56,6.66-4.1,13.68-9.82,21.07-17.2l71.94-71.94h0s144.3-144.31,144.3-144.31c5.99-5.99,10.9-11.59,14.68-16.77,3.79-5.16,6.7-10.45,8.74-15.85,2.04-5.4,2.83-10.63,2.36-15.72-.43-5.09-2.15-10.38-5.09-15.85-2.89-5.34-7.11-10.79-12.62-16.37h-.54s0-.54,0-.54c-6.62-6.59-13.21-11.3-19.75-14.12-6.61-2.82-13.23-3.74-19.91-2.76-6.7.96-13.34,3.48-20.02,7.56-6.66,4.1-13.68,9.82-21.07,17.2l-144.3,144.3h0s-71.94,71.95-71.94,71.95c-5.99,5.99-10.9,11.59-14.68,16.77-3.79,5.16-6.7,10.45-8.74,15.85-2.04,5.4-2.83,10.63-2.36,15.72.43,5.09,2.15,10.38,5.09,15.85,2.89,5.34,7.11,10.79,12.62,16.37h.54s0,.54,0,.54Zm14.86-34.14c-1.62-3.47-2.18-6.88-1.71-10.2.47-3.32,1.7-6.5,3.57-9.53,1.91-3.03,4.64-6.34,8.18-9.87l71.94-71.94-.05-.05,144.3-144.3c3.61-3.61,6.93-6.39,9.98-8.29,3.05-1.93,6.23-3.12,9.53-3.61,3.3-.45,6.68.14,10.09,1.79,3.41,1.64,7.04,4.37,10.85,8.18s6.48,7.38,8.11,10.85c1.62,3.47,2.18,6.88,1.71,10.2-.47,3.32-1.7,6.5-3.57,9.53-1.91,3.03-4.64,6.34-8.18,9.87l-144.3,144.3.05.05-71.94,71.94c-3.61,3.61-6.93,6.39-9.98,8.29-3.05,1.93-6.23,3.12-9.53,3.61-3.3.45-6.68-.14-10.09-1.79-3.41-1.64-7.04-4.37-10.85-8.18-3.77-3.77-6.48-7.38-8.11-10.85Z" fill="none" stroke="#000" stroke-miterlimit="10" stroke-width="2"/>
          <polygon points="1152.21 2519.65 1179.09 2519.59 1179 2468.45 1178.46 2467.91 1127.46 2468 1127.5 2494.86 1152.17 2494.81 1152.21 2519.65" fill="none" stroke="#000" stroke-miterlimit="10" stroke-width="2"/>
          <polygon points="1535.04 2163.66 1535 2136.8 1510.33 2136.85 1510.29 2112.01 1483.41 2112.07 1483.5 2163.21 1484.04 2163.75 1535.04 2163.66" fill="none" stroke="#000" stroke-miterlimit="10" stroke-width="2"/>
        </g>
        <g>
          <path d="m1487.75,2777.21c6.62,6.59,13.21,11.3,19.75,14.12,6.61,2.82,13.23,3.74,19.91,2.76,6.7-.96,13.34-3.48,20.02-7.56,6.66-4.1,13.68-9.82,21.07-17.2l71.94-71.94h0s280.59-280.59,280.59-280.59c5.99-5.99,10.9-11.59,14.68-16.77,3.79-5.16,6.7-10.45,8.74-15.85,2.04-5.4,2.83-10.63,2.36-15.72-.43-5.09-2.15-10.38-5.09-15.85-2.89-5.34-7.11-10.79-12.62-16.37h-.54s0-.54,0-.54c-6.62-6.59-13.21-11.3-19.75-14.12-6.61-2.82-13.23-3.74-19.91-2.76-6.7.96-13.34,3.48-20.02,7.56-6.66,4.1-13.68,9.82-21.07,17.2l-280.59,280.59h0s-71.94,71.95-71.94,71.95c-5.99,5.99-10.9,11.59-14.68,16.77-3.79,5.16-6.7,10.45-8.74,15.85-2.04,5.4-2.83,10.63-2.36,15.72.43,5.09,2.15,10.38,5.09,15.85,2.89,5.34,7.11,10.79,12.62,16.37h.54s0,.54,0,.54Zm14.86-34.14c-1.62-3.47-2.18-6.88-1.71-10.2.47-3.32,1.7-6.5,3.57-9.53,1.91-3.03,4.64-6.34,8.18-9.87l71.94-71.94-.05-.05,280.59-280.59c3.61-3.61,6.93-6.39,9.98-8.29,3.05-1.93,6.23-3.12,9.53-3.61,3.3-.45,6.68.14,10.09,1.79,3.41,1.64,7.04,4.37,10.85,8.18s6.48,7.38,8.11,10.85c1.62,3.47,2.18,6.88,1.71,10.2-.47,3.32-1.7,6.5-3.57,9.53-1.91,3.03-4.64,6.34-8.18,9.87l-280.59,280.59.05.05-71.94,71.94c-3.61,3.61-6.93,6.39-9.98,8.29-3.05,1.93-6.23,3.12-9.53,3.61-3.3.45-6.68-.14-10.09-1.79-3.41-1.64-7.04-4.37-10.85-8.18-3.77-3.77-6.48-7.38-8.11-10.85Z" fill="none" stroke="#000" stroke-miterlimit="10" stroke-width="2"/>
          <polygon points="1460.97 2828.4 1487.84 2828.35 1487.75 2777.21 1487.21 2776.67 1436.22 2776.76 1436.25 2803.62 1460.93 2803.56 1460.97 2828.4" fill="none" stroke="#000" stroke-miterlimit="10" stroke-width="2"/>
          <polygon points="1980.08 2336.13 1980.04 2309.27 1955.37 2309.32 1955.33 2284.48 1928.45 2284.54 1928.54 2335.68 1929.08 2336.22 1980.08 2336.13" fill="none" stroke="#000" stroke-miterlimit="10" stroke-width="2"/>
        </g>
        <g>
          <path d="m1384.84,2674.29c6.62,6.59,13.21,11.3,19.75,14.12,6.61,2.82,13.23,3.74,19.91,2.76,6.7-.96,13.34-3.48,20.02-7.56,6.66-4.1,13.68-9.82,21.07-17.2l71.94-71.94h0s199.12-199.13,199.12-199.13c5.99-5.99,10.9-11.59,14.68-16.77,3.79-5.16,6.7-10.45,8.74-15.85s2.83-10.63,2.36-15.72c-.43-5.09-2.15-10.38-5.09-15.85-2.89-5.34-7.11-10.79-12.62-16.37h-.54s0-.54,0-.54c-6.62-6.59-13.21-11.3-19.75-14.12-6.61-2.82-13.23-3.74-19.91-2.76-6.7.96-13.34,3.48-20.02,7.56-6.66,4.1-13.68,9.82-21.07,17.2l-199.12,199.12h0s-71.94,71.95-71.94,71.95c-5.99,5.99-10.9,11.59-14.68,16.77-3.79,5.16-6.7,10.45-8.74,15.85-2.04,5.4-2.83,10.63-2.36,15.72.43,5.09,2.15,10.38,5.09,15.85,2.89,5.34,7.11,10.79,12.62,16.37h.54s0,.54,0,.54Zm14.86-34.14c-1.62-3.47-2.18-6.88-1.71-10.2.47-3.32,1.7-6.5,3.57-9.53,1.91-3.03,4.64-6.34,8.18-9.87l71.94-71.94-.05-.05,199.12-199.12c3.61-3.61,6.93-6.39,9.98-8.29,3.05-1.93,6.23-3.12,9.53-3.61,3.3-.45,6.68.14,10.09,1.79,3.41,1.64,7.04,4.37,10.85,8.18s6.48,7.38,8.11,10.85c1.62,3.47,2.18,6.88,1.71,10.2-.47,3.32-1.7,6.5-3.57,9.53-1.91,3.03-4.64,6.34-8.18,9.87l-199.12,199.12.05.05-71.94,71.94c-3.61,3.61-6.93,6.39-9.98,8.29-3.05,1.93-6.23,3.12-9.53,3.61-3.3.45-6.68-.14-10.09-1.79-3.41-1.64-7.04-4.37-10.85-8.18-3.77-3.77-6.48-7.38-8.11-10.85Z" fill="none" stroke="#000" stroke-miterlimit="10" stroke-width="2"/>
          <polygon points="1358.05 2725.48 1384.93 2725.43 1384.84 2674.29 1384.29 2673.75 1333.3 2673.84 1333.33 2700.7 1358.01 2700.64 1358.05 2725.48" fill="none" stroke="#000" stroke-miterlimit="10" stroke-width="2"/>
          <polygon points="1795.7 2314.67 1795.66 2287.81 1770.99 2287.87 1770.95 2263.03 1744.07 2263.08 1744.16 2314.22 1744.7 2314.76 1795.7 2314.67" fill="none" stroke="#000" stroke-miterlimit="10" stroke-width="2"/>
        </g>
        <g>
          <path d="m1281.92,2571.37c6.62,6.59,13.21,11.3,19.75,14.12,6.61,2.82,13.23,3.74,19.91,2.76,6.7-.96,13.34-3.48,20.02-7.56,6.66-4.1,13.68-9.82,21.07-17.2l71.94-71.94h0s24.05-24.06,24.05-24.06c5.99-5.99,10.9-11.59,14.68-16.77,3.79-5.16,6.7-10.45,8.74-15.85s2.83-10.63,2.36-15.72c-.43-5.09-2.15-10.38-5.09-15.85-2.89-5.34-7.11-10.79-12.62-16.37h-.54s0-.54,0-.54c-6.62-6.59-13.21-11.3-19.75-14.12-6.61-2.82-13.23-3.74-19.91-2.76-6.7.96-13.34,3.48-20.02,7.56-6.66,4.1-13.68,9.82-21.07,17.2l-24.05,24.05h0s-71.94,71.95-71.94,71.95c-5.99,5.99-10.9,11.59-14.68,16.77-3.79,5.16-6.7,10.45-8.74,15.85-2.04,5.4-2.83,10.63-2.36,15.72.43,5.09,2.15,10.38,5.09,15.85,2.89,5.34,7.11,10.79,12.62,16.37h.54s0,.54,0,.54Zm14.86-34.14c-1.62-3.47-2.18-6.88-1.71-10.2.47-3.32,1.7-6.5,3.57-9.53,1.91-3.03,4.64-6.34,8.18-9.87l71.94-71.94-.05-.05,24.05-24.05c3.61-3.61,6.93-6.39,9.98-8.29,3.05-1.93,6.23-3.12,9.53-3.61,3.3-.45,6.68.14,10.09,1.79,3.41,1.64,7.04,4.37,10.85,8.18,3.77,3.77,6.48,7.38,8.11,10.85,1.62,3.47,2.18,6.88,1.71,10.2-.47,3.32-1.7,6.5-3.57,9.53-1.91,3.03-4.64,6.34-8.18,9.87l-24.05,24.05.05.05-71.94,71.94c-3.61,3.61-6.93,6.39-9.98,8.29-3.05,1.93-6.23,3.12-9.53,3.61-3.3.45-6.68-.14-10.09-1.79-3.41-1.64-7.04-4.37-10.85-8.18-3.77-3.77-6.48-7.38-8.11-10.85Z" fill="none" stroke="#000" stroke-miterlimit="10" stroke-width="2"/>
          <polygon points="1255.13 2622.56 1282.01 2622.51 1281.92 2571.37 1281.38 2570.83 1230.38 2570.92 1230.42 2597.78 1255.09 2597.73 1255.13 2622.56" fill="none" stroke="#000" stroke-miterlimit="10" stroke-width="2"/>
          <polygon points="1517.71 2386.83 1517.67 2359.97 1493 2360.02 1492.96 2335.18 1466.08 2335.24 1466.17 2386.38 1466.71 2386.92 1517.71 2386.83" fill="none" stroke="#000" stroke-miterlimit="10" stroke-width="2"/>
        </g>
        <g>
          <path d="m973.16,2262.61c6.62,6.59,13.21,11.3,19.75,14.12,6.61,2.82,13.23,3.74,19.91,2.76,6.7-.96,13.34-3.48,20.02-7.56,6.66-4.1,13.68-9.82,21.07-17.2l71.94-71.94h0s199.12-199.13,199.12-199.13c5.99-5.99,10.9-11.59,14.68-16.77,3.79-5.16,6.7-10.45,8.74-15.85,2.04-5.4,2.83-10.63,2.36-15.72-.43-5.09-2.15-10.38-5.09-15.85-2.89-5.34-7.11-10.79-12.62-16.37h-.54s0-.54,0-.54c-6.62-6.59-13.21-11.3-19.75-14.12-6.61-2.82-13.23-3.74-19.91-2.76-6.7.96-13.34,3.48-20.02,7.56-6.66,4.1-13.68,9.82-21.07,17.2l-199.12,199.12h0s-71.94,71.95-71.94,71.95c-5.99,5.99-10.9,11.59-14.68,16.77-3.79,5.16-6.7,10.45-8.74,15.85-2.04,5.4-2.83,10.63-2.36,15.72.43,5.09,2.15,10.38,5.09,15.85,2.89,5.34,7.11,10.79,12.62,16.37h.54s0,.54,0,.54Zm14.86-34.14c-1.62-3.47-2.18-6.88-1.71-10.2.47-3.32,1.7-6.5,3.57-9.53,1.91-3.03,4.64-6.34,8.18-9.87l71.94-71.94-.05-.05,199.12-199.12c3.61-3.61,6.93-6.39,9.98-8.29,3.05-1.93,6.23-3.12,9.53-3.61,3.3-.45,6.68.14,10.09,1.79,3.41,1.64,7.04,4.37,10.85,8.18,3.77,3.77,6.48,7.38,8.11,10.85,1.62,3.47,2.18,6.88,1.71,10.2-.47,3.32-1.7,6.5-3.57,9.53-1.91,3.03-4.64,6.34-8.18,9.87l-199.12,199.12.05.05-71.94,71.94c-3.61,3.61-6.93,6.39-9.98,8.29-3.05,1.93-6.23,3.12-9.53,3.61-3.3.45-6.68-.14-10.09-1.79-3.41-1.64-7.04-4.37-10.85-8.18-3.77-3.77-6.48-7.38-8.11-10.85Z" fill="none" stroke="#000" stroke-miterlimit="10" stroke-width="2"/>
          <polygon points="946.37 2313.81 973.25 2313.75 973.16 2262.61 972.62 2262.07 921.62 2262.16 921.66 2289.02 946.34 2288.97 946.37 2313.81" fill="none" stroke="#000" stroke-miterlimit="10" stroke-width="2"/>
          <polygon points="1384.02 1903 1383.99 1876.14 1359.31 1876.19 1359.28 1851.35 1332.4 1851.41 1332.49 1902.55 1333.03 1903.09 1384.02 1903" fill="none" stroke="#000" stroke-miterlimit="10" stroke-width="2"/>
        </g>
        <g>
          <path d="m1076.08,2365.53c6.62,6.59,13.21,11.3,19.75,14.12,6.61,2.82,13.23,3.74,19.91,2.76,6.7-.96,13.34-3.48,20.02-7.56,6.66-4.1,13.68-9.82,21.07-17.2l71.94-71.94h0s344.72-344.73,344.72-344.73c5.99-5.99,10.9-11.59,14.68-16.77,3.79-5.16,6.7-10.45,8.74-15.85,2.04-5.4,2.83-10.63,2.36-15.72-.43-5.09-2.15-10.38-5.09-15.85-2.89-5.34-7.11-10.79-12.62-16.37h-.54s0-.54,0-.54c-6.62-6.59-13.21-11.3-19.75-14.12-6.61-2.82-13.23-3.74-19.91-2.76-6.7.96-13.34,3.48-20.02,7.56-6.66,4.1-13.68,9.82-21.07,17.2l-344.72,344.72h0s-71.94,71.95-71.94,71.95c-5.99,5.99-10.9,11.59-14.68,16.77-3.79,5.16-6.7,10.45-8.74,15.85-2.04,5.4-2.83,10.63-2.36,15.72.43,5.09,2.15,10.38,5.09,15.85,2.89,5.34,7.11,10.79,12.62,16.37h.54s0,.54,0,.54Zm14.86-34.14c-1.62-3.47-2.18-6.88-1.71-10.2.47-3.32,1.7-6.5,3.57-9.53,1.91-3.03,4.64-6.34,8.18-9.87l71.94-71.94-.05-.05,344.72-344.72c3.61-3.61,6.93-6.39,9.98-8.29,3.05-1.93,6.23-3.12,9.53-3.61,3.3-.45,6.68.14,10.09,1.79,3.41,1.64,7.04,4.37,10.85,8.18,3.77,3.77,6.48,7.38,8.11,10.85,1.62,3.47,2.18,6.88,1.71,10.2-.47,3.32-1.7,6.5-3.57,9.53-1.91,3.03-4.64,6.34-8.18,9.87l-344.72,344.72.05.05-71.94,71.94c-3.61,3.61-6.93,6.39-9.98,8.29-3.05,1.93-6.23,3.12-9.53,3.61-3.3.45-6.68-.14-10.09-1.79-3.41-1.64-7.04-4.37-10.85-8.18-3.77-3.77-6.48-7.38-8.11-10.85Z" fill="none" stroke="#000" stroke-miterlimit="10" stroke-width="2"/>
          <polygon points="1049.29 2416.73 1076.17 2416.67 1076.08 2365.53 1075.54 2364.99 1024.54 2365.08 1024.58 2391.94 1049.26 2391.89 1049.29 2416.73" fill="none" stroke="#000" stroke-miterlimit="10" stroke-width="2"/>
          <polygon points="1632.54 1860.32 1632.5 1833.46 1607.83 1833.52 1607.79 1808.68 1580.91 1808.73 1581 1859.87 1581.54 1860.41 1632.54 1860.32" fill="none" stroke="#000" stroke-miterlimit="10" stroke-width="2"/>
        </g>
        <g>
          <path d="m939.62,454.91c6.62,6.59,13.21,11.3,19.75,14.12,6.61,2.82,13.23,3.74,19.91,2.76,6.7-.96,13.34-3.48,20.02-7.56,6.66-4.1,13.68-9.82,21.07-17.2l114.59-114.59h0s199.12-199.13,199.12-199.13c5.99-5.99,10.9-11.59,14.68-16.77,3.79-5.16,6.7-10.45,8.74-15.85,2.04-5.4,2.83-10.63,2.36-15.72-.43-5.09-2.15-10.38-5.09-15.85-2.89-5.34-7.11-10.79-12.62-16.37h-.54s0-.54,0-.54c-6.62-6.59-13.21-11.3-19.75-14.12-6.61-2.82-13.23-3.74-19.91-2.76-6.7.96-13.34,3.48-20.02,7.56-6.66,4.1-13.68,9.82-21.07,17.2l-199.12,199.12h0s-114.59,114.6-114.59,114.6c-5.99,5.99-10.9,11.59-14.68,16.77-3.79,5.16-6.7,10.45-8.74,15.85-2.04,5.4-2.83,10.63-2.36,15.72.43,5.09,2.15,10.38,5.09,15.85,2.89,5.34,7.11,10.79,12.62,16.37h.54s0,.54,0,.54Zm14.86-34.14c-1.62-3.47-2.18-6.88-1.71-10.2.47-3.32,1.7-6.5,3.57-9.53,1.91-3.03,4.64-6.34,8.18-9.87l114.59-114.59-.05-.05,199.12-199.12c3.61-3.61,6.93-6.39,9.98-8.29,3.05-1.93,6.23-3.12,9.53-3.61,3.3-.45,6.68.14,10.09,1.79,3.41,1.64,7.04,4.37,10.85,8.18,3.77,3.77,6.48,7.38,8.11,10.85,1.62,3.47,2.18,6.88,1.71,10.2-.47,3.32-1.7,6.5-3.57,9.53-1.91,3.03-4.64,6.34-8.18,9.87l-199.12,199.12.05.05-114.59,114.59c-3.61,3.61-6.93,6.39-9.98,8.29-3.05,1.93-6.23,3.12-9.53,3.61-3.3.45-6.68-.14-10.09-1.79-3.41-1.64-7.04-4.37-10.85-8.18-3.77-3.77-6.48-7.38-8.11-10.85Z" fill="none" stroke="#000" stroke-miterlimit="10" stroke-width="2"/>
          <polygon points="912.83 506.11 939.71 506.05 939.62 454.91 939.08 454.37 888.08 454.46 888.12 481.32 912.79 481.27 912.83 506.11" fill="none" stroke="#000" stroke-miterlimit="10" stroke-width="2"/>
          <polygon points="1393.13 52.65 1393.09 25.79 1368.42 25.84 1368.38 1 1341.5 1.06 1341.59 52.2 1342.14 52.74 1393.13 52.65" fill="none" stroke="#000" stroke-miterlimit="10" stroke-width="2"/>
        </g>
        <g>
          <path d="m1702.7,1132.69c6.62,6.59,13.21,11.3,19.75,14.12,6.61,2.82,13.23,3.74,19.91,2.76,6.7-.96,13.34-3.48,20.02-7.56,6.66-4.1,13.68-9.82,21.07-17.2l71.94-71.94h0s199.12-199.13,199.12-199.13c5.99-5.99,10.9-11.59,14.68-16.77,3.79-5.16,6.7-10.45,8.74-15.85,2.04-5.4,2.83-10.63,2.36-15.72-.43-5.09-2.15-10.38-5.09-15.85-2.89-5.34-7.11-10.79-12.62-16.37h-.54s0-.54,0-.54c-6.62-6.59-13.21-11.3-19.75-14.12-6.61-2.82-13.23-3.74-19.91-2.76-6.7.96-13.34,3.48-20.02,7.56-6.66,4.1-13.68,9.82-21.07,17.2l-199.12,199.12h0s-71.94,71.95-71.94,71.95c-5.99,5.99-10.9,11.59-14.68,16.77-3.79,5.16-6.7,10.45-8.74,15.85-2.04,5.4-2.83,10.63-2.36,15.72.43,5.09,2.15,10.38,5.09,15.85,2.89,5.34,7.11,10.79,12.62,16.37h.54s0,.54,0,.54Zm14.86-34.14c-1.62-3.47-2.18-6.88-1.71-10.2.47-3.32,1.7-6.5,3.57-9.53,1.91-3.03,4.64-6.34,8.18-9.87l71.94-71.94-.05-.05,199.12-199.12c3.61-3.61,6.93-6.39,9.98-8.29,3.05-1.93,6.23-3.12,9.53-3.61,3.3-.45,6.68.14,10.09,1.79,3.41,1.64,7.04,4.37,10.85,8.18,3.77,3.77,6.48,7.38,8.11,10.85,1.62,3.47,2.18,6.88,1.71,10.2-.47,3.32-1.7,6.5-3.57,9.53-1.91,3.03-4.64,6.34-8.18,9.87l-199.12,199.12.05.05-71.94,71.94c-3.61,3.61-6.93,6.39-9.98,8.29-3.05,1.93-6.23,3.12-9.53,3.61-3.3.45-6.68-.14-10.09-1.79-3.41-1.64-7.04-4.37-10.85-8.18s-6.48-7.38-8.11-10.85Z" fill="none" stroke="#000" stroke-miterlimit="10" stroke-width="2"/>
          <polygon points="1675.91 1183.89 1702.79 1183.83 1702.7 1132.69 1702.16 1132.15 1651.16 1132.24 1651.2 1159.1 1675.87 1159.05 1675.91 1183.89" fill="none" stroke="#000" stroke-miterlimit="10" stroke-width="2"/>
          <polygon points="2113.56 773.08 2113.52 746.22 2088.85 746.27 2088.81 721.43 2061.93 721.49 2062.02 772.63 2062.56 773.17 2113.56 773.08" fill="none" stroke="#000" stroke-miterlimit="10" stroke-width="2"/>
        </g>
        <g>
          <path d="m1360.88,651.16c6.62,6.59,13.21,11.3,19.75,14.12,6.61,2.82,13.23,3.74,19.91,2.76,6.7-.96,13.34-3.48,20.02-7.56,6.66-4.1,13.68-9.82,21.07-17.2l2.08-2.08h0s199.12-199.13,199.12-199.13c5.99-5.99,10.9-11.59,14.68-16.77,3.79-5.16,6.7-10.45,8.74-15.85s2.83-10.63,2.36-15.72c-.43-5.09-2.15-10.38-5.09-15.85-2.89-5.34-7.11-10.79-12.62-16.37h-.54s0-.54,0-.54c-6.62-6.59-13.21-11.3-19.75-14.12-6.61-2.82-13.23-3.74-19.91-2.76-6.7.96-13.34,3.48-20.02,7.56-6.66,4.1-13.68,9.82-21.07,17.2l-199.12,199.12h0s-2.08,2.09-2.08,2.09c-5.99,5.99-10.9,11.59-14.68,16.77-3.79,5.16-6.7,10.45-8.74,15.85-2.04,5.4-2.83,10.63-2.36,15.72.43,5.09,2.15,10.38,5.09,15.85,2.89,5.34,7.11,10.79,12.62,16.37h.54s0,.54,0,.54Zm14.86-34.14c-1.62-3.47-2.18-6.88-1.71-10.2.47-3.32,1.7-6.5,3.57-9.53,1.91-3.03,4.64-6.34,8.18-9.87l2.08-2.08-.05-.05,199.12-199.12c3.61-3.61,6.93-6.39,9.98-8.29,3.05-1.93,6.23-3.12,9.53-3.61,3.3-.45,6.68.14,10.09,1.79,3.41,1.64,7.04,4.37,10.85,8.18,3.77,3.77,6.48,7.38,8.11,10.85,1.62,3.47,2.18,6.88,1.71,10.2-.47,3.32-1.7,6.5-3.57,9.53-1.91,3.03-4.64,6.34-8.18,9.87l-199.12,199.12.05.05-2.08,2.08c-3.61,3.61-6.93,6.39-9.98,8.29-3.05,1.93-6.23,3.12-9.53,3.61-3.3.45-6.68-.14-10.09-1.79-3.41-1.64-7.04-4.37-10.85-8.18s-6.48-7.38-8.11-10.85Z" fill="none" stroke="#000" stroke-miterlimit="10" stroke-width="2"/>
          <polygon points="1334.09 702.35 1360.97 702.3 1360.88 651.16 1360.34 650.62 1309.35 650.71 1309.38 677.57 1334.06 677.51 1334.09 702.35" fill="none" stroke="#000" stroke-miterlimit="10" stroke-width="2"/>
          <polygon points="1701.89 361.4 1701.85 334.54 1677.17 334.6 1677.14 309.76 1650.26 309.81 1650.35 360.95 1650.89 361.49 1701.89 361.4" fill="none" stroke="#000" stroke-miterlimit="10" stroke-width="2"/>
        </g>
        <g>
          <path d="m1504.98,1124.57c6.62,6.59,13.21,11.3,19.75,14.12,6.61,2.82,13.23,3.74,19.91,2.76,6.7-.96,13.34-3.48,20.02-7.56,6.66-4.1,13.68-9.82,21.07-17.2l166.74-166.74h0s199.12-199.13,199.12-199.13c5.99-5.99,10.9-11.59,14.68-16.77,3.79-5.16,6.7-10.45,8.74-15.85,2.04-5.4,2.83-10.63,2.36-15.72-.43-5.09-2.15-10.38-5.09-15.85-2.89-5.34-7.11-10.79-12.62-16.37h-.54s0-.54,0-.54c-6.62-6.59-13.21-11.3-19.75-14.12-6.61-2.82-13.23-3.74-19.91-2.76-6.7.96-13.34,3.48-20.02,7.56-6.66,4.1-13.68,9.82-21.07,17.2l-199.12,199.12h0s-166.74,166.75-166.74,166.75c-5.99,5.99-10.9,11.59-14.68,16.77-3.79,5.16-6.7,10.45-8.74,15.85-2.04,5.4-2.83,10.63-2.36,15.72.43,5.09,2.15,10.38,5.09,15.85,2.89,5.34,7.11,10.79,12.62,16.37h.54s0,.54,0,.54Zm14.86-34.14c-1.62-3.47-2.18-6.88-1.71-10.2.47-3.32,1.7-6.5,3.57-9.53,1.91-3.03,4.64-6.34,8.18-9.87l166.74-166.74-.05-.05,199.12-199.12c3.61-3.61,6.93-6.39,9.98-8.29,3.05-1.93,6.23-3.12,9.53-3.61,3.3-.45,6.68.14,10.09,1.79,3.41,1.64,7.04,4.37,10.85,8.18,3.77,3.77,6.48,7.38,8.11,10.85,1.62,3.47,2.18,6.88,1.71,10.2-.47,3.32-1.7,6.5-3.57,9.53-1.91,3.03-4.64,6.34-8.18,9.87l-199.12,199.12.05.05-166.74,166.74c-3.61,3.61-6.93,6.39-9.98,8.29-3.05,1.93-6.23,3.12-9.53,3.61-3.3.45-6.68-.14-10.09-1.79-3.41-1.64-7.04-4.37-10.85-8.18s-6.48-7.38-8.11-10.85Z" fill="none" stroke="#000" stroke-miterlimit="10" stroke-width="2"/>
          <polygon points="1478.19 1175.77 1505.07 1175.71 1504.98 1124.57 1504.44 1124.03 1453.44 1124.12 1453.48 1150.98 1478.15 1150.93 1478.19 1175.77" fill="none" stroke="#000" stroke-miterlimit="10" stroke-width="2"/>
          <polygon points="2010.64 670.16 2010.6 643.3 1985.93 643.35 1985.89 618.51 1959.01 618.57 1959.1 669.71 1959.65 670.25 2010.64 670.16" fill="none" stroke="#000" stroke-miterlimit="10" stroke-width="2"/>
        </g>
        <g>
          <path d="m1646.94,776.77c6.62,6.59,13.21,11.3,19.75,14.12,6.61,2.82,13.23,3.74,19.91,2.76,6.7-.96,13.34-3.48,20.02-7.56,6.66-4.1,13.68-9.82,21.07-17.2l71.94-71.94h0s49.04-49.05,49.04-49.05c5.99-5.99,10.9-11.59,14.68-16.77,3.79-5.16,6.7-10.45,8.74-15.85,2.04-5.4,2.83-10.63,2.36-15.72-.43-5.09-2.15-10.38-5.09-15.85-2.89-5.34-7.11-10.79-12.62-16.37h-.54s0-.54,0-.54c-6.62-6.59-13.21-11.3-19.75-14.12-6.61-2.82-13.23-3.74-19.91-2.76-6.7.96-13.34,3.48-20.02,7.56-6.66,4.1-13.68,9.82-21.07,17.2l-49.04,49.04h0s-71.94,71.95-71.94,71.95c-5.99,5.99-10.9,11.59-14.68,16.77-3.79,5.16-6.7,10.45-8.74,15.85-2.04,5.4-2.83,10.63-2.36,15.72.43,5.09,2.15,10.38,5.09,15.85,2.89,5.34,7.11,10.79,12.62,16.37h.54s0,.54,0,.54Zm14.86-34.14c-1.62-3.47-2.18-6.88-1.71-10.2.47-3.32,1.7-6.5,3.57-9.53,1.91-3.03,4.64-6.34,8.18-9.87l71.94-71.94-.05-.05,49.04-49.04c3.61-3.61,6.93-6.39,9.98-8.29,3.05-1.93,6.23-3.12,9.53-3.61,3.3-.45,6.68.14,10.09,1.79,3.41,1.64,7.04,4.37,10.85,8.18s6.48,7.38,8.11,10.85c1.62,3.47,2.18,6.88,1.71,10.2-.47,3.32-1.7,6.5-3.57,9.53-1.91,3.03-4.64,6.34-8.18,9.87l-49.04,49.04.05.05-71.94,71.94c-3.61,3.61-6.93,6.39-9.98,8.29-3.05,1.93-6.23,3.12-9.53,3.61-3.3.45-6.68-.14-10.09-1.79-3.41-1.64-7.04-4.37-10.85-8.18s-6.48-7.38-8.11-10.85Z" fill="none" stroke="#000" stroke-miterlimit="10" stroke-width="2"/>
          <polygon points="1620.15 827.97 1647.03 827.91 1646.94 776.77 1646.4 776.23 1595.4 776.32 1595.44 803.18 1620.12 803.13 1620.15 827.97" fill="none" stroke="#000" stroke-miterlimit="10" stroke-width="2"/>
          <polygon points="1907.72 567.24 1907.69 540.38 1883.01 540.43 1882.97 515.59 1856.1 515.65 1856.19 566.79 1856.73 567.33 1907.72 567.24" fill="none" stroke="#000" stroke-miterlimit="10" stroke-width="2"/>
        </g>
        <g>
          <path d="m1393.94,823.94c6.62,6.59,13.21,11.3,19.75,14.12,6.61,2.82,13.23,3.74,19.91,2.76,6.7-.96,13.34-3.48,20.02-7.56,6.66-4.1,13.68-9.82,21.07-17.2l71.94-71.94h0s199.12-199.13,199.12-199.13c5.99-5.99,10.9-11.59,14.68-16.77,3.79-5.16,6.7-10.45,8.74-15.85,2.04-5.4,2.83-10.63,2.36-15.72-.43-5.09-2.15-10.38-5.09-15.85-2.89-5.34-7.11-10.79-12.62-16.37h-.54s0-.54,0-.54c-6.62-6.59-13.21-11.3-19.75-14.12-6.61-2.82-13.23-3.74-19.91-2.76-6.7.96-13.34,3.48-20.02,7.56-6.66,4.1-13.68,9.82-21.07,17.2l-199.12,199.12h0s-71.94,71.95-71.94,71.95c-5.99,5.99-10.9,11.59-14.68,16.77-3.79,5.16-6.7,10.45-8.74,15.85-2.04,5.4-2.83,10.63-2.36,15.72.43,5.09,2.15,10.38,5.09,15.85,2.89,5.34,7.11,10.79,12.62,16.37h.54s0,.54,0,.54Zm14.86-34.14c-1.62-3.47-2.18-6.88-1.71-10.2.47-3.32,1.7-6.5,3.57-9.53,1.91-3.03,4.64-6.34,8.18-9.87l71.94-71.94-.05-.05,199.12-199.12c3.61-3.61,6.93-6.39,9.98-8.29,3.05-1.93,6.23-3.12,9.53-3.61,3.3-.45,6.68.14,10.09,1.79,3.41,1.64,7.04,4.37,10.85,8.18,3.77,3.77,6.48,7.38,8.11,10.85,1.62,3.47,2.18,6.88,1.71,10.2-.47,3.32-1.7,6.5-3.57,9.53-1.91,3.03-4.64,6.34-8.18,9.87l-199.12,199.12.05.05-71.94,71.94c-3.61,3.61-6.93,6.39-9.98,8.29-3.05,1.93-6.23,3.12-9.53,3.61-3.3.45-6.68-.14-10.09-1.79-3.41-1.64-7.04-4.37-10.85-8.18-3.77-3.77-6.48-7.38-8.11-10.85Z" fill="none" stroke="#000" stroke-miterlimit="10" stroke-width="2"/>
          <polygon points="1367.15 875.13 1394.03 875.08 1393.94 823.94 1393.4 823.39 1342.4 823.48 1342.44 850.35 1367.12 850.29 1367.15 875.13" fill="none" stroke="#000" stroke-miterlimit="10" stroke-width="2"/>
          <polygon points="1804.8 464.32 1804.77 437.46 1780.09 437.51 1780.06 412.68 1753.18 412.73 1753.27 463.87 1753.81 464.41 1804.8 464.32" fill="none" stroke="#000" stroke-miterlimit="10" stroke-width="2"/>
        </g>
        <g>
          <path d="m955.96,644.4c6.62,6.59,13.21,11.3,19.75,14.12,6.61,2.82,13.23,3.74,19.91,2.76,6.7-.96,13.34-3.48,20.02-7.56,6.66-4.1,13.68-9.82,21.07-17.2l201.16-201.16h0s199.12-199.13,199.12-199.13c5.99-5.99,10.9-11.59,14.68-16.77,3.79-5.16,6.7-10.45,8.74-15.85s2.83-10.63,2.36-15.72c-.43-5.09-2.15-10.38-5.09-15.85-2.89-5.34-7.11-10.79-12.62-16.37h-.54s0-.54,0-.54c-6.62-6.59-13.21-11.3-19.75-14.12-6.61-2.82-13.23-3.74-19.91-2.76-6.7.96-13.34,3.48-20.02,7.56-6.66,4.1-13.68,9.82-21.07,17.2l-199.12,199.12h0s-201.16,201.17-201.16,201.17c-5.99,5.99-10.9,11.59-14.68,16.77-3.79,5.16-6.7,10.45-8.74,15.85-2.04,5.4-2.83,10.63-2.36,15.72.43,5.09,2.15,10.38,5.09,15.85,2.89,5.34,7.11,10.79,12.62,16.37h.54s0,.54,0,.54Zm14.86-34.14c-1.62-3.47-2.18-6.88-1.71-10.2.47-3.32,1.7-6.5,3.57-9.53,1.91-3.03,4.64-6.34,8.18-9.87l201.16-201.16-.05-.05,199.12-199.12c3.61-3.61,6.93-6.39,9.98-8.29,3.05-1.93,6.23-3.12,9.53-3.61,3.3-.45,6.68.14,10.09,1.79,3.41,1.64,7.04,4.37,10.85,8.18,3.77,3.77,6.48,7.38,8.11,10.85,1.62,3.47,2.18,6.88,1.71,10.2-.47,3.32-1.7,6.5-3.57,9.53-1.91,3.03-4.64,6.34-8.18,9.87l-199.12,199.12.05.05-201.16,201.16c-3.61,3.61-6.93,6.39-9.98,8.29-3.05,1.93-6.23,3.12-9.53,3.61-3.3.45-6.68-.14-10.09-1.79-3.41-1.64-7.04-4.37-10.85-8.18-3.77-3.77-6.48-7.38-8.11-10.85Z" fill="none" stroke="#000" stroke-miterlimit="10" stroke-width="2"/>
          <polygon points="929.18 695.6 956.05 695.54 955.96 644.4 955.42 643.86 904.43 643.95 904.46 670.81 929.14 670.76 929.18 695.6" fill="none" stroke="#000" stroke-miterlimit="10" stroke-width="2"/>
          <polygon points="1496.05 155.57 1496.01 128.71 1471.34 128.76 1471.3 103.92 1444.42 103.97 1444.51 155.11 1445.05 155.66 1496.05 155.57" fill="none" stroke="#000" stroke-miterlimit="10" stroke-width="2"/>
        </g>
        <g>
          <path d="m1188.1,618.1c6.62,6.59,13.21,11.3,19.75,14.12,6.61,2.82,13.23,3.74,19.91,2.76,6.7-.96,13.34-3.48,20.02-7.56,6.66-4.1,13.68-9.82,21.07-17.2l71.94-71.94h0s199.12-199.13,199.12-199.13c5.99-5.99,10.9-11.59,14.68-16.77,3.79-5.16,6.7-10.45,8.74-15.85s2.83-10.63,2.36-15.72c-.43-5.09-2.15-10.38-5.09-15.85-2.89-5.34-7.11-10.79-12.62-16.37h-.54s0-.54,0-.54c-6.62-6.59-13.21-11.3-19.75-14.12-6.61-2.82-13.23-3.74-19.91-2.76-6.7.96-13.34,3.48-20.02,7.56-6.66,4.1-13.68,9.82-21.07,17.2l-199.12,199.12h0s-71.94,71.95-71.94,71.95c-5.99,5.99-10.9,11.59-14.68,16.77-3.79,5.16-6.7,10.45-8.74,15.85-2.04,5.4-2.83,10.63-2.36,15.72.43,5.09,2.15,10.38,5.09,15.85,2.89,5.34,7.11,10.79,12.62,16.37h.54s0,.54,0,.54Zm14.86-34.14c-1.62-3.47-2.18-6.88-1.71-10.2.47-3.32,1.7-6.5,3.57-9.53,1.91-3.03,4.64-6.34,8.18-9.87l71.94-71.94-.05-.05,199.12-199.12c3.61-3.61,6.93-6.39,9.98-8.29,3.05-1.93,6.23-3.12,9.53-3.61,3.3-.45,6.68.14,10.09,1.79,3.41,1.64,7.04,4.37,10.85,8.18,3.77,3.77,6.48,7.38,8.11,10.85,1.62,3.47,2.18,6.88,1.71,10.2-.47,3.32-1.7,6.5-3.57,9.53-1.91,3.03-4.64,6.34-8.18,9.87l-199.12,199.12.05.05-71.94,71.94c-3.61,3.61-6.93,6.39-9.98,8.29-3.05,1.93-6.23,3.12-9.53,3.61-3.3.45-6.68-.14-10.09-1.79-3.41-1.64-7.04-4.37-10.85-8.18-3.77-3.77-6.48-7.38-8.11-10.85Z" fill="none" stroke="#000" stroke-miterlimit="10" stroke-width="2"/>
          <polygon points="1161.32 669.29 1188.19 669.24 1188.1 618.1 1187.56 617.56 1136.57 617.65 1136.6 644.51 1161.28 644.45 1161.32 669.29" fill="none" stroke="#000" stroke-miterlimit="10" stroke-width="2"/>
          <polygon points="1598.97 258.48 1598.93 231.62 1574.25 231.68 1574.22 206.84 1547.34 206.89 1547.43 258.03 1547.97 258.57 1598.97 258.48" fill="none" stroke="#000" stroke-miterlimit="10" stroke-width="2"/>
        </g>
        <g>
          <path d="m386.47,1008.06c6.62,6.59,13.21,11.3,19.75,14.12,6.61,2.82,13.23,3.74,19.91,2.76,6.7-.96,13.34-3.48,20.02-7.56,6.66-4.1,13.68-9.82,21.07-17.2l202.88-202.88h0s156.47-156.48,156.47-156.48c5.99-5.99,10.9-11.59,14.68-16.77,3.79-5.16,6.7-10.45,8.74-15.85s2.83-10.63,2.36-15.72c-.43-5.09-2.15-10.38-5.09-15.85-2.89-5.34-7.11-10.79-12.62-16.37h-.54s0-.54,0-.54c-6.62-6.59-13.21-11.3-19.75-14.12-6.61-2.82-13.23-3.74-19.91-2.76-6.7.96-13.34,3.48-20.02,7.56-6.66,4.1-13.68,9.82-21.07,17.2l-156.47,156.47h0s-202.88,202.89-202.88,202.89c-5.99,5.99-10.9,11.59-14.68,16.77-3.79,5.16-6.7,10.45-8.74,15.85-2.04,5.4-2.83,10.63-2.36,15.72.43,5.09,2.15,10.38,5.09,15.85,2.89,5.34,7.11,10.79,12.62,16.37h.54s0,.54,0,.54Zm14.86-34.14c-1.62-3.47-2.18-6.88-1.71-10.2.47-3.32,1.7-6.5,3.57-9.53,1.91-3.03,4.64-6.34,8.18-9.87l202.88-202.88-.05-.05,156.47-156.47c3.61-3.61,6.93-6.39,9.98-8.29,3.05-1.93,6.23-3.12,9.53-3.61,3.3-.45,6.68.14,10.09,1.79,3.41,1.64,7.04,4.37,10.85,8.18s6.48,7.38,8.11,10.85c1.62,3.47,2.18,6.88,1.71,10.2-.47,3.32-1.7,6.5-3.57,9.53-1.91,3.03-4.64,6.34-8.18,9.87l-156.47,156.47.05.05-202.88,202.88c-3.61,3.61-6.93,6.39-9.98,8.29-3.05,1.93-6.23,3.12-9.53,3.61-3.3.45-6.68-.14-10.09-1.79-3.41-1.64-7.04-4.37-10.85-8.18s-6.48-7.38-8.11-10.85Z" fill="none" stroke="#000" stroke-miterlimit="10" stroke-width="2"/>
          <polygon points="359.68 1059.26 386.56 1059.2 386.47 1008.06 385.92 1007.52 334.93 1007.61 334.96 1034.47 359.64 1034.42 359.68 1059.26" fill="none" stroke="#000" stroke-miterlimit="10" stroke-width="2"/>
          <polygon points="885.62 560.16 885.58 533.3 860.9 533.35 860.87 508.52 833.99 508.57 834.08 559.71 834.62 560.25 885.62 560.16" fill="none" stroke="#000" stroke-miterlimit="10" stroke-width="2"/>
        </g>
        <g>
          <path d="m1109.67,1725.72c6.62,6.59,13.21,11.3,19.75,14.12,6.61,2.82,13.23,3.74,19.91,2.76,6.7-.96,13.34-3.48,20.02-7.56,6.66-4.1,13.68-9.82,21.07-17.2l71.94-71.94h0s327.29-327.29,327.29-327.29c5.99-5.99,10.9-11.59,14.68-16.77,3.79-5.16,6.7-10.45,8.74-15.85,2.04-5.4,2.83-10.63,2.36-15.72-.43-5.09-2.15-10.38-5.09-15.85-2.89-5.34-7.11-10.79-12.62-16.37h-.54s0-.54,0-.54c-6.62-6.59-13.21-11.3-19.75-14.12-6.61-2.82-13.23-3.74-19.91-2.76-6.7.96-13.34,3.48-20.02,7.56-6.66,4.1-13.68,9.82-21.07,17.2l-327.29,327.29h0s-71.94,71.95-71.94,71.95c-5.99,5.99-10.9,11.59-14.68,16.77-3.79,5.16-6.7,10.45-8.74,15.85-2.04,5.4-2.83,10.63-2.36,15.72.43,5.09,2.15,10.38,5.09,15.85,2.89,5.34,7.11,10.79,12.62,16.37h.54s0,.54,0,.54Zm14.86-34.14c-1.62-3.47-2.18-6.88-1.71-10.2.47-3.32,1.7-6.5,3.57-9.53,1.91-3.03,4.64-6.34,8.18-9.87l71.94-71.94-.05-.05,327.29-327.29c3.61-3.61,6.93-6.39,9.98-8.29,3.05-1.93,6.23-3.12,9.53-3.61,3.3-.45,6.68.14,10.09,1.79,3.41,1.64,7.04,4.37,10.85,8.18s6.48,7.38,8.11,10.85c1.62,3.47,2.18,6.88,1.71,10.2-.47,3.32-1.7,6.5-3.57,9.53-1.91,3.03-4.64,6.34-8.18,9.87l-327.29,327.29.05.05-71.94,71.94c-3.61,3.61-6.93,6.39-9.98,8.29-3.05,1.93-6.23,3.12-9.53,3.61-3.3.45-6.68-.14-10.09-1.79-3.41-1.64-7.04-4.37-10.85-8.18-3.77-3.77-6.48-7.38-8.11-10.85Z" fill="none" stroke="#000" stroke-miterlimit="10" stroke-width="2"/>
          <polygon points="1082.88 1776.91 1109.76 1776.86 1109.67 1725.72 1109.13 1725.18 1058.13 1725.27 1058.17 1752.13 1082.85 1752.07 1082.88 1776.91" fill="none" stroke="#000" stroke-miterlimit="10" stroke-width="2"/>
          <polygon points="1648.7 1237.94 1648.66 1211.08 1623.98 1211.13 1623.95 1186.3 1597.07 1186.35 1597.16 1237.49 1597.7 1238.03 1648.7 1237.94" fill="none" stroke="#000" stroke-miterlimit="10" stroke-width="2"/>
        </g>
        <g>
          <path d="m771.34,1240.7c6.62,6.59,13.21,11.3,19.75,14.12,6.61,2.82,13.23,3.74,19.91,2.76,6.7-.96,13.34-3.48,20.02-7.56,6.66-4.1,13.68-9.82,21.07-17.2l126.76-126.76h0s268.98-268.99,268.98-268.99c5.99-5.99,10.9-11.59,14.68-16.77,3.79-5.16,6.7-10.45,8.74-15.85s2.83-10.63,2.36-15.72c-.43-5.09-2.15-10.38-5.09-15.85-2.89-5.34-7.11-10.79-12.62-16.37h-.54s0-.54,0-.54c-6.62-6.59-13.21-11.3-19.75-14.12-6.61-2.82-13.23-3.74-19.91-2.76-6.7.96-13.34,3.48-20.02,7.56-6.66,4.1-13.68,9.82-21.07,17.2l-268.98,268.98h0s-126.76,126.77-126.76,126.77c-5.99,5.99-10.9,11.59-14.68,16.77-3.79,5.16-6.7,10.45-8.74,15.85-2.04,5.4-2.83,10.63-2.36,15.72.43,5.09,2.15,10.38,5.09,15.85,2.89,5.34,7.11,10.79,12.62,16.37h.54s0,.54,0,.54Zm14.86-34.14c-1.62-3.47-2.18-6.88-1.71-10.2.47-3.32,1.7-6.5,3.57-9.53,1.91-3.03,4.64-6.34,8.18-9.87l126.76-126.76-.05-.05,268.98-268.98c3.61-3.61,6.93-6.39,9.98-8.29,3.05-1.93,6.23-3.12,9.53-3.61,3.3-.45,6.68.14,10.09,1.79,3.41,1.64,7.04,4.37,10.85,8.18,3.77,3.77,6.48,7.38,8.11,10.85,1.62,3.47,2.18,6.88,1.71,10.2-.47,3.32-1.7,6.5-3.57,9.53-1.91,3.03-4.64,6.34-8.18,9.87l-268.98,268.98.05.05-126.76,126.76c-3.61,3.61-6.93,6.39-9.98,8.29-3.05,1.93-6.23,3.12-9.53,3.61-3.3.45-6.68-.14-10.09-1.79-3.41-1.64-7.04-4.37-10.85-8.18s-6.48-7.38-8.11-10.85Z" fill="none" stroke="#000" stroke-miterlimit="10" stroke-width="2"/>
          <polygon points="744.55 1291.9 771.43 1291.84 771.34 1240.7 770.79 1240.16 719.8 1240.25 719.84 1267.11 744.51 1267.06 744.55 1291.9" fill="none" stroke="#000" stroke-miterlimit="10" stroke-width="2"/>
          <polygon points="1306.88 756.41 1306.84 729.55 1282.17 729.6 1282.13 704.76 1255.25 704.82 1255.34 755.96 1255.88 756.5 1306.88 756.41" fill="none" stroke="#000" stroke-miterlimit="10" stroke-width="2"/>
        </g>
        <g>
          <path d="m1216.38,1413.18c6.62,6.59,13.21,11.3,19.75,14.12,6.61,2.82,13.23,3.74,19.91,2.76,6.7-.96,13.34-3.48,20.02-7.56,6.66-4.1,13.68-9.82,21.07-17.2l-9.52,9.52h0s104.32-104.33,104.32-104.33c5.99-5.99,10.9-11.59,14.68-16.77,3.79-5.16,6.7-10.45,8.74-15.85,2.04-5.4,2.83-10.63,2.36-15.72-.43-5.09-2.15-10.38-5.09-15.85-2.89-5.34-7.11-10.79-12.62-16.37h-.54s0-.54,0-.54c-6.62-6.59-13.21-11.3-19.75-14.12-6.61-2.82-13.23-3.74-19.91-2.76-6.7.96-13.34,3.48-20.02,7.56-6.66,4.1-13.68,9.82-21.07,17.2l-104.32,104.32h0s9.52-9.51,9.52-9.51c-5.99,5.99-10.9,11.59-14.68,16.77-3.79,5.16-6.7,10.45-8.74,15.85-2.04,5.4-2.83,10.63-2.36,15.72.43,5.09,2.15,10.38,5.09,15.85,2.89,5.34,7.11,10.79,12.62,16.37h.54s0,.54,0,.54Zm14.86-34.14c-1.62-3.47-2.18-6.88-1.71-10.2.47-3.32,1.7-6.5,3.57-9.53,1.91-3.03,4.64-6.34,8.18-9.87l-9.52,9.52-.05-.05,104.32-104.32c3.61-3.61,6.93-6.39,9.98-8.29,3.05-1.93,6.23-3.12,9.53-3.61,3.3-.45,6.68.14,10.09,1.79,3.41,1.64,7.04,4.37,10.85,8.18,3.77,3.77,6.48,7.38,8.11,10.85,1.62,3.47,2.18,6.88,1.71,10.2-.47,3.32-1.7,6.5-3.57,9.53-1.91,3.03-4.64,6.34-8.18,9.87l-104.32,104.32.05.05,9.52-9.52c-3.61,3.61-6.93,6.39-9.98,8.29-3.05,1.93-6.23,3.12-9.53,3.61-3.3.45-6.68-.14-10.09-1.79-3.41-1.64-7.04-4.37-10.85-8.18-3.77-3.77-6.48-7.38-8.11-10.85Z" fill="none" stroke="#000" stroke-miterlimit="10" stroke-width="2"/>
          <polygon points="1189.59 1464.37 1216.47 1464.31 1216.38 1413.18 1215.83 1412.63 1164.84 1412.72 1164.88 1439.58 1189.55 1439.53 1189.59 1464.37" fill="none" stroke="#000" stroke-miterlimit="10" stroke-width="2"/>
          <polygon points="1450.98 1229.82 1450.94 1202.96 1426.26 1203.02 1426.23 1178.18 1399.35 1178.23 1399.44 1229.37 1399.98 1229.91 1450.98 1229.82" fill="none" stroke="#000" stroke-miterlimit="10" stroke-width="2"/>
        </g>
        <g>
          <path d="m966.55,1457.16c6.62,6.59,13.21,11.3,19.75,14.12,6.61,2.82,13.23,3.74,19.91,2.76,6.7-.96,13.34-3.48,20.02-7.56,6.66-4.1,13.68-9.82,21.07-17.2l.05.05h0l486.54-486.64c5.99-5.99,10.9-11.59,14.68-16.77,3.79-5.16,6.7-10.45,8.74-15.85,2.04-5.4,2.83-10.63,2.36-15.72-.43-5.09-2.15-10.38-5.09-15.85-2.89-5.34-7.11-10.79-12.62-16.37h-.54s0-.54,0-.54c-6.62-6.59-13.21-11.3-19.75-14.12-6.61-2.82-13.23-3.74-19.91-2.76-6.7.96-13.34,3.48-20.02,7.56-6.66,4.1-13.68,9.82-21.07,17.2l-505.26,505.26,18.73-18.61-.05-.05c-5.99,5.99-10.9,11.59-14.68,16.77-3.79,5.16-6.7,10.45-8.74,15.85-2.04,5.4-2.83,10.63-2.36,15.72.43,5.09,2.15,10.38,5.09,15.85,2.89,5.34,7.11,10.79,12.62,16.37h.54s0,.54,0,.54Zm14.86-34.14c-1.62-3.47-2.18-6.88-1.71-10.2.47-3.32,1.7-6.5,3.57-9.53,1.91-3.03,4.64-6.34,8.18-9.87l.05.05-18.76,18.58,505.26-505.26c3.61-3.61,6.93-6.39,9.98-8.29,3.05-1.93,6.23-3.12,9.53-3.61,3.3-.45,6.68.14,10.09,1.79,3.41,1.64,7.04,4.37,10.85,8.18s6.48,7.38,8.11,10.85c1.62,3.47,2.18,6.88,1.71,10.2-.47,3.32-1.7,6.5-3.57,9.53-1.91,3.03-4.64,6.34-8.18,9.87l-486.54,486.63.05.05-.05-.05c-3.61,3.61-6.93,6.39-9.98,8.29-3.05,1.93-6.23,3.12-9.53,3.61-3.3.45-6.68-.14-10.09-1.79-3.41-1.64-7.04-4.37-10.85-8.18-3.77-3.77-6.48-7.38-8.11-10.85Z" fill="none" stroke="#000" stroke-miterlimit="10" stroke-width="2"/>
          <polygon points="939.76 1508.36 966.64 1508.3 966.55 1457.16 966.01 1456.62 915.01 1456.71 915.05 1483.57 939.73 1483.52 939.76 1508.36" fill="none" stroke="#000" stroke-miterlimit="10" stroke-width="2"/>
          <polygon points="1592.94 882.02 1592.9 855.16 1568.23 855.22 1568.19 830.38 1541.31 830.43 1541.4 881.57 1541.94 882.11 1592.94 882.02" fill="none" stroke="#000" stroke-miterlimit="10" stroke-width="2"/>
        </g>
        <g>
          <path d="m754,1463.87c6.62,6.59,13.21,11.3,19.75,14.12,6.61,2.82,13.23,3.74,19.91,2.76,6.7-.96,13.34-3.48,20.02-7.56,6.66-4.1,13.68-9.82,21.07-17.2l71.94-71.94h0s374.2-374.2,374.2-374.2c5.99-5.99,10.9-11.59,14.68-16.77,3.79-5.16,6.7-10.45,8.74-15.85s2.83-10.63,2.36-15.72c-.43-5.09-2.15-10.38-5.09-15.85-2.89-5.34-7.11-10.79-12.62-16.37h-.54s0-.54,0-.54c-6.62-6.59-13.21-11.3-19.75-14.12-6.61-2.82-13.23-3.74-19.91-2.76-6.7.96-13.34,3.48-20.02,7.56-6.66,4.1-13.68,9.82-21.07,17.2l-374.2,374.2h0s-71.94,71.95-71.94,71.95c-5.99,5.99-10.9,11.59-14.68,16.77-3.79,5.16-6.7,10.45-8.74,15.85-2.04,5.4-2.83,10.63-2.36,15.72.43,5.09,2.15,10.38,5.09,15.85,2.89,5.34,7.11,10.79,12.62,16.37h.54s0,.54,0,.54Zm14.86-34.14c-1.62-3.47-2.18-6.88-1.71-10.2.47-3.32,1.7-6.5,3.57-9.53,1.91-3.03,4.64-6.34,8.18-9.87l71.94-71.94-.05-.05,374.2-374.2c3.61-3.61,6.93-6.39,9.98-8.29,3.05-1.93,6.23-3.12,9.53-3.61,3.3-.45,6.68.14,10.09,1.79,3.41,1.64,7.04,4.37,10.85,8.18,3.77,3.77,6.48,7.38,8.11,10.85,1.62,3.47,2.18,6.88,1.71,10.2-.47,3.32-1.7,6.5-3.57,9.53-1.91,3.03-4.64,6.34-8.18,9.87l-374.2,374.2.05.05-71.94,71.94c-3.61,3.61-6.93,6.39-9.98,8.29-3.05,1.93-6.23,3.12-9.53,3.61-3.3.45-6.68-.14-10.09-1.79-3.41-1.64-7.04-4.37-10.85-8.18-3.77-3.77-6.48-7.38-8.11-10.85Z" fill="none" stroke="#000" stroke-miterlimit="10" stroke-width="2"/>
          <polygon points="727.22 1515.07 754.09 1515.01 754 1463.87 753.46 1463.33 702.47 1463.42 702.5 1490.28 727.18 1490.23 727.22 1515.07" fill="none" stroke="#000" stroke-miterlimit="10" stroke-width="2"/>
          <polygon points="1339.94 929.19 1339.9 902.33 1315.23 902.38 1315.19 877.54 1288.31 877.59 1288.4 928.73 1288.94 929.28 1339.94 929.19" fill="none" stroke="#000" stroke-miterlimit="10" stroke-width="2"/>
        </g>
        <g>
          <path d="m620.32,980.05c6.62,6.59,13.21,11.3,19.75,14.12,6.61,2.82,13.23,3.74,19.91,2.76,6.7-.96,13.34-3.48,20.02-7.56,6.66-4.1,13.68-9.82,21.07-17.2l71.94-71.94h0s69.9-69.91,69.9-69.91c5.99-5.99,10.9-11.59,14.68-16.77,3.79-5.16,6.7-10.45,8.74-15.85,2.04-5.4,2.83-10.63,2.36-15.72-.43-5.09-2.15-10.38-5.09-15.85-2.89-5.34-7.11-10.79-12.62-16.37h-.54s0-.54,0-.54c-6.62-6.59-13.21-11.3-19.75-14.12-6.61-2.82-13.23-3.74-19.91-2.76-6.7.96-13.34,3.48-20.02,7.56-6.66,4.1-13.68,9.82-21.07,17.2l-69.9,69.9h0s-71.94,71.95-71.94,71.95c-5.99,5.99-10.9,11.59-14.68,16.77-3.79,5.16-6.7,10.45-8.74,15.85-2.04,5.4-2.83,10.63-2.36,15.72.43,5.09,2.15,10.38,5.09,15.85,2.89,5.34,7.11,10.79,12.62,16.37h.54s0,.54,0,.54Zm14.86-34.14c-1.62-3.47-2.18-6.88-1.71-10.2.47-3.32,1.7-6.5,3.57-9.53,1.91-3.03,4.64-6.34,8.18-9.87l71.94-71.94-.05-.05,69.9-69.9c3.61-3.61,6.93-6.39,9.98-8.29,3.05-1.93,6.23-3.12,9.53-3.61,3.3-.45,6.68.14,10.09,1.79,3.41,1.64,7.04,4.37,10.85,8.18,3.77,3.77,6.48,7.38,8.11,10.85,1.62,3.47,2.18,6.88,1.71,10.2-.47,3.32-1.7,6.5-3.57,9.53-1.91,3.03-4.64,6.34-8.18,9.87l-69.9,69.9.05.05-71.94,71.94c-3.61,3.61-6.93,6.39-9.98,8.29-3.05,1.93-6.23,3.12-9.53,3.61-3.3.45-6.68-.14-10.09-1.79-3.41-1.64-7.04-4.37-10.85-8.18-3.77-3.77-6.48-7.38-8.11-10.85Z" fill="none" stroke="#000" stroke-miterlimit="10" stroke-width="2"/>
          <polygon points="593.53 1031.24 620.41 1031.18 620.32 980.05 619.78 979.5 568.78 979.59 568.82 1006.45 593.5 1006.4 593.53 1031.24" fill="none" stroke="#000" stroke-miterlimit="10" stroke-width="2"/>
          <polygon points="901.96 749.65 901.93 722.79 877.25 722.85 877.21 698.01 850.33 698.06 850.42 749.2 850.97 749.74 901.96 749.65" fill="none" stroke="#000" stroke-miterlimit="10" stroke-width="2"/>
        </g>
        <g>
          <path d="m786.39,1019.81c6.62,6.59,13.21,11.3,19.75,14.12,6.61,2.82,13.23,3.74,19.91,2.76,6.7-.96,13.34-3.48,20.02-7.56,6.66-4.1,13.68-9.82,21.07-17.2l154.38-154.38h0s53.53-53.54,53.53-53.54c5.99-5.99,10.9-11.59,14.68-16.77,3.79-5.16,6.7-10.45,8.74-15.85,2.04-5.4,2.83-10.63,2.36-15.72-.43-5.09-2.15-10.38-5.09-15.85-2.89-5.34-7.11-10.79-12.62-16.37h-.54s0-.54,0-.54c-6.62-6.59-13.21-11.3-19.75-14.12-6.61-2.82-13.23-3.74-19.91-2.76-6.7.96-13.34,3.48-20.02,7.56-6.66,4.1-13.68,9.82-21.07,17.2l-53.53,53.53h0s-154.38,154.39-154.38,154.39c-5.99,5.99-10.9,11.59-14.68,16.77-3.79,5.16-6.7,10.45-8.74,15.85-2.04,5.4-2.83,10.63-2.36,15.72.43,5.09,2.15,10.38,5.09,15.85,2.89,5.34,7.11,10.79,12.62,16.37h.54s0,.54,0,.54Zm14.86-34.14c-1.62-3.47-2.18-6.88-1.71-10.2.47-3.32,1.7-6.5,3.57-9.53,1.91-3.03,4.64-6.34,8.18-9.87l154.38-154.38-.05-.05,53.53-53.53c3.61-3.61,6.93-6.39,9.98-8.29,3.05-1.93,6.23-3.12,9.53-3.61,3.3-.45,6.68.14,10.09,1.79,3.41,1.64,7.04,4.37,10.85,8.18,3.77,3.77,6.48,7.38,8.11,10.85,1.62,3.47,2.18,6.88,1.71,10.2-.47,3.32-1.7,6.5-3.57,9.53-1.91,3.03-4.64,6.34-8.18,9.87l-53.53,53.53.05.05-154.38,154.38c-3.61,3.61-6.93,6.39-9.98,8.29-3.05,1.93-6.23,3.12-9.53,3.61-3.3.45-6.68-.14-10.09-1.79-3.41-1.64-7.04-4.37-10.85-8.18s-6.48-7.38-8.11-10.85Z" fill="none" stroke="#000" stroke-miterlimit="10" stroke-width="2"/>
          <polygon points="759.6 1071 786.48 1070.95 786.39 1019.81 785.85 1019.27 734.86 1019.36 734.89 1046.22 759.57 1046.17 759.6 1071" fill="none" stroke="#000" stroke-miterlimit="10" stroke-width="2"/>
          <polygon points="1134.1 723.35 1134.07 696.49 1109.39 696.54 1109.35 671.7 1082.48 671.76 1082.57 722.9 1083.11 723.44 1134.1 723.35" fill="none" stroke="#000" stroke-miterlimit="10" stroke-width="2"/>
        </g>
        <g>
          <path d="m52.54,1341.99c6.62,6.59,13.21,11.3,19.75,14.12,6.61,2.82,13.23,3.74,19.91,2.76,6.7-.96,13.34-3.48,20.02-7.56,6.66-4.1,13.68-9.82,21.07-17.2l71.94-71.94h0s68.18-68.19,68.18-68.19c5.99-5.99,10.9-11.59,14.68-16.77,3.79-5.16,6.7-10.45,8.74-15.85s2.83-10.63,2.36-15.72c-.43-5.09-2.15-10.38-5.09-15.85-2.89-5.34-7.11-10.79-12.62-16.37h-.54s0-.54,0-.54c-6.62-6.59-13.21-11.3-19.75-14.12-6.61-2.82-13.23-3.74-19.91-2.76-6.7.96-13.34,3.48-20.02,7.56-6.66,4.1-13.68,9.82-21.07,17.2l-68.18,68.18h0s-71.94,71.95-71.94,71.95c-5.99,5.99-10.9,11.59-14.68,16.77-3.79,5.16-6.7,10.45-8.74,15.85-2.04,5.4-2.83,10.63-2.36,15.72.43,5.09,2.15,10.38,5.09,15.85,2.89,5.34,7.11,10.79,12.62,16.37h.54s0,.54,0,.54Zm14.86-34.14c-1.62-3.47-2.18-6.88-1.71-10.2.47-3.32,1.7-6.5,3.57-9.53,1.91-3.03,4.64-6.34,8.18-9.87l71.94-71.94-.05-.05,68.18-68.18c3.61-3.61,6.93-6.39,9.98-8.29,3.05-1.93,6.23-3.12,9.53-3.61,3.3-.45,6.68.14,10.09,1.79,3.41,1.64,7.04,4.37,10.85,8.18s6.48,7.38,8.11,10.85c1.62,3.47,2.18,6.88,1.71,10.2-.47,3.32-1.7,6.5-3.57,9.53-1.91,3.03-4.64,6.34-8.18,9.87l-68.18,68.18.05.05-71.94,71.94c-3.61,3.61-6.93,6.39-9.98,8.29-3.05,1.93-6.23,3.12-9.53,3.61-3.3.45-6.68-.14-10.09-1.79-3.41-1.64-7.04-4.37-10.85-8.18s-6.48-7.38-8.11-10.85Z" fill="none" stroke="#000" stroke-miterlimit="10" stroke-width="2"/>
          <polygon points="25.75 1393.19 52.63 1393.13 52.54 1341.99 52 1341.45 1 1341.54 1.04 1368.4 25.71 1368.35 25.75 1393.19" fill="none" stroke="#000" stroke-miterlimit="10" stroke-width="2"/>
          <polygon points="332.46 1113.31 332.43 1086.45 307.75 1086.51 307.71 1061.67 280.84 1061.72 280.93 1112.86 281.47 1113.4 332.46 1113.31" fill="none" stroke="#000" stroke-miterlimit="10" stroke-width="2"/>
        </g>
        <g>
          <path d="m772.97,2062.42c6.62,6.59,13.21,11.3,19.75,14.12,6.61,2.82,13.23,3.74,19.91,2.76,6.7-.96,13.34-3.48,20.02-7.56,6.66-4.1,13.68-9.82,21.07-17.2l71.94-71.94h0s70.96-70.97,70.96-70.97c5.99-5.99,10.9-11.59,14.68-16.77,3.79-5.16,6.7-10.45,8.74-15.85s2.83-10.63,2.36-15.72c-.43-5.09-2.15-10.38-5.09-15.85-2.89-5.34-7.11-10.79-12.62-16.37h-.54s0-.54,0-.54c-6.62-6.59-13.21-11.3-19.75-14.12-6.61-2.82-13.23-3.74-19.91-2.76-6.7.96-13.34,3.48-20.02,7.56-6.66,4.1-13.68,9.82-21.07,17.2l-70.96,70.96h0s-71.94,71.95-71.94,71.95c-5.99,5.99-10.9,11.59-14.68,16.77-3.79,5.16-6.7,10.45-8.74,15.85-2.04,5.4-2.83,10.63-2.36,15.72.43,5.09,2.15,10.38,5.09,15.85,2.89,5.34,7.11,10.79,12.62,16.37h.54s0,.54,0,.54Zm14.86-34.14c-1.62-3.47-2.18-6.88-1.71-10.2.47-3.32,1.7-6.5,3.57-9.53,1.91-3.03,4.64-6.34,8.18-9.87l71.94-71.94-.05-.05,70.96-70.96c3.61-3.61,6.93-6.39,9.98-8.29,3.05-1.93,6.23-3.12,9.53-3.61,3.3-.45,6.68.14,10.09,1.79,3.41,1.64,7.04,4.37,10.85,8.18,3.77,3.77,6.48,7.38,8.11,10.85,1.62,3.47,2.18,6.88,1.71,10.2-.47,3.32-1.7,6.5-3.57,9.53-1.91,3.03-4.64,6.34-8.18,9.87l-70.96,70.96.05.05-71.94,71.94c-3.61,3.61-6.93,6.39-9.98,8.29-3.05,1.93-6.23,3.12-9.53,3.61-3.3.45-6.68-.14-10.09-1.79-3.41-1.64-7.04-4.37-10.85-8.18s-6.48-7.38-8.11-10.85Z" fill="none" stroke="#000" stroke-miterlimit="10" stroke-width="2"/>
          <polygon points="746.18 2113.61 773.06 2113.56 772.97 2062.42 772.43 2061.88 721.43 2061.97 721.47 2088.83 746.14 2088.78 746.18 2113.61" fill="none" stroke="#000" stroke-miterlimit="10" stroke-width="2"/>
          <polygon points="1055.67 1830.97 1055.63 1804.11 1030.96 1804.16 1030.92 1779.32 1004.04 1779.38 1004.13 1830.52 1004.67 1831.06 1055.67 1830.97" fill="none" stroke="#000" stroke-miterlimit="10" stroke-width="2"/>
        </g>
        <g>
          <path d="m361.29,1650.75c6.62,6.59,13.21,11.3,19.75,14.12,6.61,2.82,13.23,3.74,19.91,2.76,6.7-.96,13.34-3.48,20.02-7.56,6.66-4.1,13.68-9.82,21.07-17.2l71.94-71.94h0s144.3-144.31,144.3-144.31c5.99-5.99,10.9-11.59,14.68-16.77,3.79-5.16,6.7-10.45,8.74-15.85s2.83-10.63,2.36-15.72c-.43-5.09-2.15-10.38-5.09-15.85-2.89-5.34-7.11-10.79-12.62-16.37h-.54s0-.54,0-.54c-6.62-6.59-13.21-11.3-19.75-14.12-6.61-2.82-13.23-3.74-19.91-2.76-6.7.96-13.34,3.48-20.02,7.56-6.66,4.1-13.68,9.82-21.07,17.2l-144.3,144.3h0s-71.94,71.95-71.94,71.95c-5.99,5.99-10.9,11.59-14.68,16.77-3.79,5.16-6.7,10.45-8.74,15.85-2.04,5.4-2.83,10.63-2.36,15.72.43,5.09,2.15,10.38,5.09,15.85,2.89,5.34,7.11,10.79,12.62,16.37h.54s0,.54,0,.54Zm14.86-34.14c-1.62-3.47-2.18-6.88-1.71-10.2.47-3.32,1.7-6.5,3.57-9.53,1.91-3.03,4.64-6.34,8.18-9.87l71.94-71.94-.05-.05,144.3-144.3c3.61-3.61,6.93-6.39,9.98-8.29,3.05-1.93,6.23-3.12,9.53-3.61,3.3-.45,6.68.14,10.09,1.79,3.41,1.64,7.04,4.37,10.85,8.18s6.48,7.38,8.11,10.85c1.62,3.47,2.18,6.88,1.71,10.2-.47,3.32-1.7,6.5-3.57,9.53-1.91,3.03-4.64,6.34-8.18,9.87l-144.3,144.3.05.05-71.94,71.94c-3.61,3.61-6.93,6.39-9.98,8.29-3.05,1.93-6.23,3.12-9.53,3.61-3.3.45-6.68-.14-10.09-1.79-3.41-1.64-7.04-4.37-10.85-8.18s-6.48-7.38-8.11-10.85Z" fill="none" stroke="#000" stroke-miterlimit="10" stroke-width="2"/>
          <polygon points="334.51 1701.94 361.38 1701.89 361.29 1650.75 360.75 1650.21 309.76 1650.3 309.79 1677.16 334.47 1677.1 334.51 1701.94" fill="none" stroke="#000" stroke-miterlimit="10" stroke-width="2"/>
          <polygon points="717.33 1345.95 717.3 1319.09 692.62 1319.15 692.59 1294.31 665.71 1294.36 665.8 1345.5 666.34 1346.04 717.33 1345.95" fill="none" stroke="#000" stroke-miterlimit="10" stroke-width="2"/>
        </g>
        <g>
          <path d="m670.05,1959.5c6.62,6.59,13.21,11.3,19.75,14.12,6.61,2.82,13.23,3.74,19.91,2.76,6.7-.96,13.34-3.48,20.02-7.56,6.66-4.1,13.68-9.82,21.07-17.2l71.94-71.94h0s280.59-280.59,280.59-280.59c5.99-5.99,10.9-11.59,14.68-16.77,3.79-5.16,6.7-10.45,8.74-15.85s2.83-10.63,2.36-15.72c-.43-5.09-2.15-10.38-5.09-15.85-2.89-5.34-7.11-10.79-12.62-16.37h-.54s0-.54,0-.54c-6.62-6.59-13.21-11.3-19.75-14.12-6.61-2.82-13.23-3.74-19.91-2.76-6.7.96-13.34,3.48-20.02,7.56-6.66,4.1-13.68,9.82-21.07,17.2l-280.59,280.59h0s-71.94,71.95-71.94,71.95c-5.99,5.99-10.9,11.59-14.68,16.77-3.79,5.16-6.7,10.45-8.74,15.85-2.04,5.4-2.83,10.63-2.36,15.72.43,5.09,2.15,10.38,5.09,15.85,2.89,5.34,7.11,10.79,12.62,16.37h.54s0,.54,0,.54Zm14.86-34.14c-1.62-3.47-2.18-6.88-1.71-10.2.47-3.32,1.7-6.5,3.57-9.53,1.91-3.03,4.64-6.34,8.18-9.87l71.94-71.94-.05-.05,280.59-280.59c3.61-3.61,6.93-6.39,9.98-8.29,3.05-1.93,6.23-3.12,9.53-3.61,3.3-.45,6.68.14,10.09,1.79,3.41,1.64,7.04,4.37,10.85,8.18s6.48,7.38,8.11,10.85c1.62,3.47,2.18,6.88,1.71,10.2-.47,3.32-1.7,6.5-3.57,9.53-1.91,3.03-4.64,6.34-8.18,9.87l-280.59,280.59.05.05-71.94,71.94c-3.61,3.61-6.93,6.39-9.98,8.29-3.05,1.93-6.23,3.12-9.53,3.61-3.3.45-6.68-.14-10.09-1.79-3.41-1.64-7.04-4.37-10.85-8.18-3.77-3.77-6.48-7.38-8.11-10.85Z" fill="none" stroke="#000" stroke-miterlimit="10" stroke-width="2"/>
          <polygon points="643.26 2010.7 670.14 2010.64 670.05 1959.5 669.51 1958.96 618.51 1959.05 618.55 1985.91 643.22 1985.86 643.26 2010.7" fill="none" stroke="#000" stroke-miterlimit="10" stroke-width="2"/>
          <polygon points="1162.37 1518.42 1162.34 1491.56 1137.66 1491.62 1137.63 1466.78 1110.75 1466.83 1110.84 1517.97 1111.38 1518.52 1162.37 1518.42" fill="none" stroke="#000" stroke-miterlimit="10" stroke-width="2"/>
        </g>
        <g>
          <path d="m464.21,1753.67c6.62,6.59,13.21,11.3,19.75,14.12,6.61,2.82,13.23,3.74,19.91,2.76,6.7-.96,13.34-3.48,20.02-7.56,6.66-4.1,13.68-9.82,21.07-17.2l71.94-71.94h0s24.05-24.06,24.05-24.06c5.99-5.99,10.9-11.59,14.68-16.77,3.79-5.16,6.7-10.45,8.74-15.85,2.04-5.4,2.83-10.63,2.36-15.72-.43-5.09-2.15-10.38-5.09-15.85-2.89-5.34-7.11-10.79-12.62-16.37h-.54s0-.54,0-.54c-6.62-6.59-13.21-11.3-19.75-14.12-6.61-2.82-13.23-3.74-19.91-2.76-6.7.96-13.34,3.48-20.02,7.56-6.66,4.1-13.68,9.82-21.07,17.2l-24.05,24.05h0s-71.94,71.95-71.94,71.95c-5.99,5.99-10.9,11.59-14.68,16.77-3.79,5.16-6.7,10.45-8.74,15.85-2.04,5.4-2.83,10.63-2.36,15.72.43,5.09,2.15,10.38,5.09,15.85,2.89,5.34,7.11,10.79,12.62,16.37h.54s0,.54,0,.54Zm14.86-34.14c-1.62-3.47-2.18-6.88-1.71-10.2.47-3.32,1.7-6.5,3.57-9.53,1.91-3.03,4.64-6.34,8.18-9.87l71.94-71.94-.05-.05,24.05-24.05c3.61-3.61,6.93-6.39,9.98-8.29,3.05-1.93,6.23-3.12,9.53-3.61,3.3-.45,6.68.14,10.09,1.79,3.41,1.64,7.04,4.37,10.85,8.18s6.48,7.38,8.11,10.85c1.62,3.47,2.18,6.88,1.71,10.2-.47,3.32-1.7,6.5-3.57,9.53-1.91,3.03-4.64,6.34-8.18,9.87l-24.05,24.05.05.05-71.94,71.94c-3.61,3.61-6.93,6.39-9.98,8.29-3.05,1.93-6.23,3.12-9.53,3.61-3.3.45-6.68-.14-10.09-1.79-3.41-1.64-7.04-4.37-10.85-8.18-3.77-3.77-6.48-7.38-8.11-10.85Z" fill="none" stroke="#000" stroke-miterlimit="10" stroke-width="2"/>
          <polygon points="437.42 1804.86 464.3 1804.8 464.21 1753.67 463.67 1753.12 412.68 1753.21 412.71 1780.07 437.39 1780.02 437.42 1804.86" fill="none" stroke="#000" stroke-miterlimit="10" stroke-width="2"/>
          <polygon points="700 1569.12 699.97 1542.26 675.29 1542.32 675.25 1517.48 648.38 1517.53 648.47 1568.67 649.01 1569.21 700 1569.12" fill="none" stroke="#000" stroke-miterlimit="10" stroke-width="2"/>
        </g>
        <g>
          <path d="m155.46,1444.91c6.62,6.59,13.21,11.3,19.75,14.12,6.61,2.82,13.23,3.74,19.91,2.76,6.7-.96,13.34-3.48,20.02-7.56,6.66-4.1,13.68-9.82,21.07-17.2l71.94-71.94h0s199.12-199.13,199.12-199.13c5.99-5.99,10.9-11.59,14.68-16.77,3.79-5.16,6.7-10.45,8.74-15.85,2.04-5.4,2.83-10.63,2.36-15.72-.43-5.09-2.15-10.38-5.09-15.85-2.89-5.34-7.11-10.79-12.62-16.37h-.54s0-.54,0-.54c-6.62-6.59-13.21-11.3-19.75-14.12-6.61-2.82-13.23-3.74-19.91-2.76-6.7.96-13.34,3.48-20.02,7.56-6.66,4.1-13.68,9.82-21.07,17.2l-199.12,199.12h0s-71.94,71.95-71.94,71.95c-5.99,5.99-10.9,11.59-14.68,16.77-3.79,5.16-6.7,10.45-8.74,15.85-2.04,5.4-2.83,10.63-2.36,15.72.43,5.09,2.15,10.38,5.09,15.85,2.89,5.34,7.11,10.79,12.62,16.37h.54s0,.54,0,.54Zm14.86-34.14c-1.62-3.47-2.18-6.88-1.71-10.2.47-3.32,1.7-6.5,3.57-9.53,1.91-3.03,4.64-6.34,8.18-9.87l71.94-71.94-.05-.05,199.12-199.12c3.61-3.61,6.93-6.39,9.98-8.29,3.05-1.93,6.23-3.12,9.53-3.61,3.3-.45,6.68.14,10.09,1.79,3.41,1.64,7.04,4.37,10.85,8.18,3.77,3.77,6.48,7.38,8.11,10.85,1.62,3.47,2.18,6.88,1.71,10.2-.47,3.32-1.7,6.5-3.57,9.53-1.91,3.03-4.64,6.34-8.18,9.87l-199.12,199.12.05.05-71.94,71.94c-3.61,3.61-6.93,6.39-9.98,8.29-3.05,1.93-6.23,3.12-9.53,3.61-3.3.45-6.68-.14-10.09-1.79-3.41-1.64-7.04-4.37-10.85-8.18s-6.48-7.38-8.11-10.85Z" fill="none" stroke="#000" stroke-miterlimit="10" stroke-width="2"/>
          <polygon points="128.67 1496.1 155.55 1496.05 155.46 1444.91 154.92 1444.37 103.92 1444.46 103.96 1471.32 128.63 1471.26 128.67 1496.1" fill="none" stroke="#000" stroke-miterlimit="10" stroke-width="2"/>
          <polygon points="566.32 1085.3 566.28 1058.43 541.61 1058.49 541.57 1033.65 514.69 1033.7 514.78 1084.84 515.32 1085.39 566.32 1085.3" fill="none" stroke="#000" stroke-miterlimit="10" stroke-width="2"/>
        </g>
        <g>
          <path d="m258.38,1547.83c6.62,6.59,13.21,11.3,19.75,14.12,6.61,2.82,13.23,3.74,19.91,2.76,6.7-.96,13.34-3.48,20.02-7.56,6.66-4.1,13.68-9.82,21.07-17.2l71.94-71.94h0s344.72-344.73,344.72-344.73c5.99-5.99,10.9-11.59,14.68-16.77,3.79-5.16,6.7-10.45,8.74-15.85,2.04-5.4,2.83-10.63,2.36-15.72-.43-5.09-2.15-10.38-5.09-15.85-2.89-5.34-7.11-10.79-12.62-16.37h-.54s0-.54,0-.54c-6.62-6.59-13.21-11.3-19.75-14.12-6.61-2.82-13.23-3.74-19.91-2.76-6.7.96-13.34,3.48-20.02,7.56-6.66,4.1-13.68,9.82-21.07,17.2l-344.72,344.72h0s-71.94,71.95-71.94,71.95c-5.99,5.99-10.9,11.59-14.68,16.77-3.79,5.16-6.7,10.45-8.74,15.85-2.04,5.4-2.83,10.63-2.36,15.72.43,5.09,2.15,10.38,5.09,15.85,2.89,5.34,7.11,10.79,12.62,16.37h.54s0,.54,0,.54Zm14.86-34.14c-1.62-3.47-2.18-6.88-1.71-10.2.47-3.32,1.7-6.5,3.57-9.53,1.91-3.03,4.64-6.34,8.18-9.87l71.94-71.94-.05-.05,344.72-344.72c3.61-3.61,6.93-6.39,9.98-8.29,3.05-1.93,6.23-3.12,9.53-3.61,3.3-.45,6.68.14,10.09,1.79,3.41,1.64,7.04,4.37,10.85,8.18,3.77,3.77,6.48,7.38,8.11,10.85,1.62,3.47,2.18,6.88,1.71,10.2-.47,3.32-1.7,6.5-3.57,9.53-1.91,3.03-4.64,6.34-8.18,9.87l-344.72,344.72.05.05-71.94,71.94c-3.61,3.61-6.93,6.39-9.98,8.29-3.05,1.93-6.23,3.12-9.53,3.61-3.3.45-6.68-.14-10.09-1.79-3.41-1.64-7.04-4.37-10.85-8.18s-6.48-7.38-8.11-10.85Z" fill="none" stroke="#000" stroke-miterlimit="10" stroke-width="2"/>
          <polygon points="231.59 1599.02 258.47 1598.97 258.38 1547.83 257.83 1547.29 206.84 1547.38 206.87 1574.24 231.55 1574.18 231.59 1599.02" fill="none" stroke="#000" stroke-miterlimit="10" stroke-width="2"/>
          <polygon points="814.83 1042.62 814.8 1015.76 790.12 1015.81 790.09 990.97 763.21 991.03 763.3 1042.17 763.84 1042.71 814.83 1042.62" fill="none" stroke="#000" stroke-miterlimit="10" stroke-width="2"/>
        </g>
      </g>
    </g>
  </g>
</svg>