<?xml version="1.0" encoding="UTF-8"?>
<svg id="Layer_2" data-name="Layer 2" xmlns="http://www.w3.org/2000/svg" viewBox="0 0 113.39 113.39">
  <g id="Layer_1-2" data-name="Layer 1">
    <g>
      <path d="m56.69,3c29.61,0,53.69,24.09,53.69,53.69s-24.09,53.69-53.69,53.69S3,86.3,3,56.69,27.09,3,56.69,3m0-3C25.38,0,0,25.38,0,56.69s25.38,56.69,56.69,56.69,56.69-25.38,56.69-56.69S88,0,56.69,0h0Z" fill="#fff"/>
      <g>
        <path d="m93.12,35.08c7.13,12.02,3.16,27.6-8.86,34.73-12.02,7.13-27.6,3.16-34.73-8.86-7.13-12.02-3.16-27.6,8.86-34.73s27.6-3.16,34.73,8.86h0Zm2.58-1.53c-7.99-13.46-25.38-17.9-38.84-9.91-13.46,7.99-17.9,25.38-9.91,38.84,7.99,13.46,25.38,17.9,38.84,9.91,13.46-7.99,17.9-25.38,9.91-38.84h0Z" fill="#fff"/>
        <path d="m19.76,35.96c6.84-12.19,22.32-16.54,34.51-9.69,12.19,6.84,16.54,22.32,9.69,34.51s-22.32,16.54-34.51,9.69c-12.19-6.84-16.54-22.32-9.69-34.51h0Zm-2.62-1.47c-7.66,13.65-2.81,30.93,10.84,38.59,13.65,7.66,30.93,2.81,38.59-10.84,7.66-13.65,2.81-30.93-10.84-38.59-13.65-7.66-30.93-2.81-38.59,10.84h0Z" fill="#fff"/>
        <path d="m57.2,99.04c-13.98.17-25.48-11.06-25.65-25.04-.17-13.98,11.06-25.48,25.04-25.65s25.48,11.06,25.65,25.04c.17,13.98-11.06,25.48-25.04,25.65h0Zm.04,3c15.65-.19,28.19-13.03,28-28.69-.19-15.65-13.03-28.19-28.69-28-15.65.19-28.19,13.03-28,28.69.19,15.65,13.03,28.19,28.69,28h0Z" fill="#fff"/>
      </g>
    </g>
  </g>
</svg>