<?xml version="1.0" encoding="UTF-8"?>
<svg id="Layer_2" data-name="Layer 2" xmlns="http://www.w3.org/2000/svg" viewBox="0 0 113.39 113.39">
  <g id="Layer_1-2" data-name="Layer 1">
    <g>
      <path d="m56.69,3c29.61,0,53.69,24.09,53.69,53.69s-24.09,53.69-53.69,53.69S3,86.3,3,56.69,27.09,3,56.69,3m0-3C25.38,0,0,25.38,0,56.69s25.38,56.69,56.69,56.69,56.69-25.38,56.69-56.69S88,0,56.69,0h0Z" fill="#fff"/>
      <g>
        <path d="m39.4,57l-14.53-21.63h3.99l12.59,19.08h.06l12.66-19.08h3.93l-14.71,21.76,15.59,22.82h-4.05l-13.72-20.33h-.06l-13.16,20.33h-4.11l15.52-22.94Z" fill="#fff"/>
        <path d="m55.66,65.36h3.62c.56,7.61,5.55,12.34,14.84,12.34,8.42,0,11.78-4.36,11.85-9.6,0-7.05-4.86-8.48-14.53-10.47-7.79-1.62-13.97-4.05-13.97-11.85,0-7.11,5.86-11.16,14.53-11.16,9.35,0,15.34,4.74,15.96,13.22h-3.62c-.69-6.36-4.36-10.16-12.28-10.16-6.92,0-10.97,2.93-10.97,8.04,0,6.36,5.24,7.67,12.59,9.23,9.6,2,15.9,4.49,15.9,13.09,0,6.98-5.17,12.66-15.34,12.66s-18.02-5.24-18.58-15.34Z" fill="#fff"/>
      </g>
    </g>
  </g>
</svg>