<?xml version="1.0" encoding="UTF-8"?>
<svg id="Layer_2" data-name="Layer 2" xmlns="http://www.w3.org/2000/svg" viewBox="0 0 113.39 113.39">
  <g id="Layer_1-2" data-name="Layer 1">
    <path d="m56.69,0C25.38,0,0,25.38,0,56.69s25.38,56.69,56.69,56.69,56.69-25.38,56.69-56.69S88,0,56.69,0Zm2.28,80.95h-4.58l-.3-.44-12.9-19.12-12.36,19.1-.3.46h-6.54l1.06-1.56,15.15-22.39-14.15-21.08-1.05-1.56h6.4l.3.45,11.79,17.86,11.85-17.87.3-.45h6.35l-1.06,1.56-14.33,21.2,15.2,22.26,1.07,1.56h-1.89Zm15.27.75c-11.52,0-19.02-6.24-19.58-16.28l-.06-1.06h5.6l.07.93c.54,7.36,5.46,11.42,13.84,11.42,6.93,0,10.78-3.06,10.85-8.6,0-6.09-3.77-7.44-13.73-9.5-7.14-1.49-14.76-3.82-14.76-12.82,0-7.5,5.95-12.16,15.53-12.16s16.31,5.29,16.96,14.14l.08,1.07h-5.59l-.1-.89c-.67-6.24-4.37-9.27-11.29-9.27-6.34,0-9.97,2.57-9.97,7.04,0,5.48,4.26,6.65,11.8,8.25,8.8,1.83,16.7,4.28,16.7,14.07,0,8.3-6.41,13.66-16.34,13.66Z" fill="#6cffb5"/>
  </g>
</svg>