<?xml version="1.0" encoding="UTF-8"?>
<svg id="Layer_2" data-name="Layer 2" xmlns="http://www.w3.org/2000/svg" viewBox="0 0 113.39 113.39">
  <g id="Layer_1-2" data-name="Layer 1">
    <g>
      <path d="m67.84,45.92c-5.94,0-9.25,4.78-9.25,10.72s3.31,10.83,9.25,10.83,9.25-4.89,9.25-10.83-3.31-10.72-9.25-10.72Z" fill="#ffa394"/>
      <path d="m56.69,0C25.38,0,0,25.38,0,56.69s25.38,56.69,56.69,56.69,56.69-25.38,56.69-56.69S88,0,56.69,0Zm-13.45,75.56h-9.93v-37.73h9.93v37.73Zm24.59.79c-10.88,0-19.44-8.25-19.44-19.71s8.57-19.6,19.44-19.6,19.5,8.15,19.5,19.6-8.57,19.71-19.5,19.71Z" fill="#ffa394"/>
    </g>
  </g>
</svg>