<?xml version="1.0" encoding="UTF-8"?>
<svg id="Layer_2" data-name="Layer 2" xmlns="http://www.w3.org/2000/svg" viewBox="0 0 113.39 113.39">
  <g id="Layer_1-2" data-name="Layer 1">
    <path d="m56.69,3c29.61,0,53.69,24.09,53.69,53.69s-24.09,53.69-53.69,53.69S3,86.3,3,56.69,27.09,3,56.69,3m0-3C25.38,0,0,25.38,0,56.69s25.38,56.69,56.69,56.69,56.69-25.38,56.69-56.69S88,0,56.69,0h0Z" fill="#fff"/>
    <path d="m32.02,78.5l21.81-21.81-21.81-21.81,2.86-2.86,21.81,21.81,21.81-21.81,2.86,2.86-21.81,21.81,21.81,21.81-2.86,2.86-21.81-21.81-21.81,21.81-2.86-2.86Z" fill="#fff"/>
  </g>
</svg>