<?xml version="1.0" encoding="UTF-8"?>
<svg id="Layer_2" data-name="Layer 2" xmlns="http://www.w3.org/2000/svg" viewBox="0 0 113.39 113.39">
  <g id="Layer_1-2" data-name="Layer 1">
    <g>
      <path d="m56.69,3c29.61,0,53.69,24.09,53.69,53.69s-24.09,53.69-53.69,53.69S3,86.3,3,56.69,27.09,3,56.69,3m0-3C25.38,0,0,25.38,0,56.69s25.38,56.69,56.69,56.69,56.69-25.38,56.69-56.69S88,0,56.69,0h0Z" fill="#fff"/>
      <g>
        <path d="m66.04,72.97c-.87,1.14-1.76,2.23-2.67,3.28-2.17.19-4.4.29-6.68.29s-4.51-.1-6.68-.29c-1.48-.12-2.92-.28-4.33-.49-1.47-.21-2.91-.46-4.31-.76-2.75-.57-5.35-1.3-7.75-2.17.08-.99.21-2.01.39-3.04,1.54.59,3.17,1.1,4.86,1.55,1.37.37,2.79.69,4.25.96,1.37.27,2.78.49,4.22.67,3.01.37,6.15.57,9.35.57s6.33-.19,9.35-.57Z" fill="#fff"/>
        <path d="m96.38,56.7c0,5.29-4.13,10.09-10.87,13.64-.9.48-1.85.93-2.83,1.35-.93.41-1.9.79-2.91,1.14-2.4.87-5,1.6-7.75,2.17.86-1.18,1.69-2.4,2.49-3.66,1.69-.45,3.32-.96,4.86-1.54.98-.36,1.93-.76,2.84-1.19.41-.17.81-.36,1.2-.56.55-.27,1.07-.56,1.58-.85,5.36-3.03,8.39-6.81,8.39-10.5s-3.03-7.47-8.39-10.5c.21-1.06.39-2.11.52-3.14,6.74,3.55,10.87,8.35,10.87,13.64Z" fill="#fff"/>
        <path d="m79.77,40.56c-.09.99-.22,2.01-.4,3.04-1.54-.58-3.17-1.09-4.86-1.54-1.37-.37-2.79-.69-4.24-.96-1.38-.27-2.79-.49-4.23-.67-3.02-.38-6.15-.57-9.35-.57s-6.34.2-9.35.57c.87-1.14,1.76-2.24,2.67-3.28,2.17-.19,4.4-.29,6.68-.29s4.51.1,6.68.29c1.48.11,2.92.28,4.34.49,1.47.21,2.91.46,4.31.76,2.75.57,5.35,1.3,7.75,2.16Z" fill="#fff"/>
        <path d="m54.09,88.48c-4.11,2.59-8.13,4-11.69,4-2.02,0-3.89-.46-5.55-1.41-4.58-2.64-6.67-8.62-6.38-16.23.03-1.02.12-2.07.24-3.15.12-1,.27-2.03.47-3.07.45-2.5,1.11-5.11,1.99-7.78.6,1.32,1.24,2.64,1.92,3.95-.45,1.7-.82,3.37-1.08,5-.18,1.03-.31,2.05-.39,3.04-.05.45-.08.89-.11,1.33-.04.62-.05,1.22-.06,1.8-.05,6.15,1.7,10.67,4.9,12.51,1.16.67,2.52,1.01,4.05,1.01,2.78,0,5.94-1.08,9.22-3.03.82.72,1.64,1.4,2.47,2.03Z" fill="#fff"/>
        <path d="m76.99,60.66c-.93,1.98-1.97,3.98-3.11,5.96-1.14,1.99-2.35,3.88-3.61,5.68-.83,1.2-1.68,2.35-2.56,3.46-.92,1.18-1.86,2.3-2.82,3.37-1.87,2.09-3.8,3.97-5.74,5.62-.81-.58-1.64-1.22-2.46-1.9,1.25-1.03,2.49-2.17,3.71-3.4,1.01-1.01,2-2.07,2.97-3.2.91-1.05,1.8-2.14,2.67-3.28,1.87-2.43,3.63-5.06,5.24-7.85,1.61-2.79,3.01-5.61,4.2-8.42.56,1.32,1.06,2.65,1.51,3.96Z" fill="#fff"/>
        <path d="m82.92,38.56c-.03,1.02-.12,2.07-.24,3.15-.12,1-.27,2.03-.47,3.08-.45,2.5-1.12,5.12-2,7.79-.59-1.33-1.23-2.65-1.93-3.98.46-1.7.83-3.37,1.09-5,.18-1.03.31-2.05.4-3.04.05-.45.08-.89.11-1.33.04-.61.06-1.21.06-1.79.04-6.16-1.7-10.66-4.9-12.51-1.17-.67-2.53-1.01-4.05-1.01-2.8,0-5.96,1.08-9.24,3.02-.81-.72-1.63-1.39-2.46-2.02,4.11-2.58,8.13-4,11.69-4h.01c2.03,0,3.89.45,5.55,1.41,4.58,2.64,6.67,8.62,6.38,16.23Z" fill="#fff"/>
        <path d="m56.69,30.54c-1.24,1.04-2.48,2.17-3.71,3.41-1,1-2,2.07-2.97,3.2-.91,1.04-1.8,2.14-2.67,3.28-1.86,2.43-3.63,5.07-5.23,7.85-1.61,2.78-3.02,5.61-4.2,8.42-.55-1.32-1.06-2.64-1.52-3.95.93-1.99,1.97-3.98,3.12-5.97,1.14-1.99,2.35-3.88,3.61-5.68.83-1.2,1.68-2.35,2.56-3.46.92-1.18,1.86-2.3,2.83-3.37,1.86-2.1,3.79-3.98,5.73-5.62.81.58,1.63,1.21,2.45,1.89Z" fill="#fff"/>
        <path d="m76.54,91.07c-1.66.95-3.54,1.41-5.56,1.41-3.56,0-7.58-1.42-11.69-4-.86-.54-1.73-1.13-2.6-1.79-.82-.6-1.64-1.25-2.46-1.94-1.94-1.65-3.86-3.53-5.72-5.62,1.46.15,2.95.26,4.47.32,1.23,1.23,2.47,2.37,3.71,3.4.82.68,1.65,1.32,2.46,1.9.88.63,1.75,1.2,2.61,1.7,3.28,1.95,6.44,3.03,9.22,3.03,1.53,0,2.89-.34,4.06-1.01,3.2-1.84,4.94-6.36,4.9-12.51,1.03-.35,2.02-.72,2.98-1.12.29,7.61-1.8,13.59-6.38,16.23Z" fill="#fff"/>
        <path d="m82.21,68.61c-.91.43-1.86.83-2.84,1.19-.26-1.63-.63-3.31-1.08-5.01-.37-1.36-.8-2.74-1.3-4.13-.45-1.31-.95-2.64-1.51-3.96-1.18-2.81-2.59-5.64-4.2-8.42-1.61-2.78-3.37-5.42-5.24-7.85,1.44.18,2.85.4,4.23.67,1.26,1.8,2.47,3.69,3.61,5.68,1.14,1.98,2.18,3.98,3.11,5.96.62,1.33,1.2,2.65,1.72,3.96.56,1.39,1.06,2.76,1.5,4.12.88,2.67,1.55,5.29,2,7.79Z" fill="#fff"/>
        <path d="m64.89,34.27c-1.47-.15-2.97-.26-4.49-.32-1.22-1.24-2.46-2.37-3.71-3.41-.82-.68-1.64-1.31-2.45-1.89-.87-.63-1.74-1.2-2.61-1.71-3.27-1.94-6.44-3.02-9.23-3.02-1.53,0-2.89.34-4.05,1.01-3.2,1.85-4.95,6.35-4.9,12.51-1.03.35-2.02.72-2.98,1.12-.29-7.61,1.8-13.59,6.38-16.23,1.66-.96,3.53-1.41,5.55-1.41,3.56,0,7.58,1.41,11.69,4,.86.54,1.73,1.13,2.6,1.79.82.59,1.64,1.24,2.45,1.94,1.94,1.64,3.87,3.52,5.75,5.62Z" fill="#fff"/>
        <path d="m41.37,38.4c-.86,1.18-1.69,2.4-2.5,3.66-1.69.45-3.32.96-4.86,1.54-.98.37-1.92.76-2.83,1.18-.41.18-.82.37-1.21.57-.55.28-1.08.56-1.58.85-5.35,3.03-8.38,6.8-8.38,10.5s3.03,7.46,8.38,10.5c-.22,1.06-.39,2.11-.53,3.14-6.73-3.56-10.85-8.36-10.85-13.64s4.13-10.09,10.86-13.64c.91-.48,1.85-.93,2.84-1.35.93-.41,1.9-.79,2.91-1.15,2.4-.86,5-1.59,7.75-2.16Z" fill="#fff"/>
        <path d="m47.34,72.97c-1.44-.18-2.85-.4-4.22-.67-1.26-1.8-2.47-3.69-3.61-5.68-1.15-1.99-2.19-3.99-3.12-5.98-.62-1.32-1.19-2.63-1.71-3.94-.56-1.4-1.07-2.78-1.51-4.15-.88-2.67-1.55-5.27-1.99-7.77.91-.42,1.85-.81,2.83-1.18.27,1.63.63,3.3,1.09,5,.37,1.37.8,2.76,1.29,4.15.46,1.31.97,2.63,1.52,3.95,1.19,2.81,2.59,5.63,4.2,8.42,1.61,2.79,3.37,5.42,5.23,7.85Z" fill="#fff"/>
        <path d="m56.69,49.77c3.82,0,6.92,3.1,6.92,6.92s-3.1,6.92-6.92,6.92-6.92-3.1-6.92-6.92,3.1-6.92,6.92-6.92m0-3c-5.48,0-9.92,4.44-9.92,9.92s4.44,9.92,9.92,9.92,9.92-4.44,9.92-9.92-4.44-9.92-9.92-9.92h0Z" fill="#fff"/>
      </g>
    </g>
  </g>
</svg>