<?xml version="1.0" encoding="UTF-8"?>
<svg id="Layer_2" data-name="Layer 2" xmlns="http://www.w3.org/2000/svg" viewBox="0 0 113.39 113.39">
  <g id="Layer_1-2" data-name="Layer 1">
    <g>
      <polygon points="63.82 50.57 69.41 48.38 69.75 48.24 62.08 27.02 61.95 26.67 55.8 28.82 63.69 50.21 63.82 50.57" fill="#5e8e19"/>
      <path d="m52.14,47.9c1.52,0,2.81-.52,3.84-1.55,1.03-1.03,1.56-2.32,1.56-3.83s-.52-2.81-1.55-3.84c-1.03-1.03-2.32-1.56-3.83-1.56s-2.81.52-3.84,1.55-1.56,2.32-1.56,3.83.52,2.81,1.55,3.84,2.32,1.56,3.83,1.56Z" fill="#5e8e19"/>
      <path d="m56.69,0C25.38,0,0,25.38,0,56.69s25.38,56.69,56.69,56.69,56.69-25.38,56.69-56.69S88,0,56.69,0Zm24.54,93.07h-49.09v-3.32h20.37v-12.97h-2.41c-4.95,0-9.22-1.77-12.71-5.25-3.49-3.49-5.25-7.76-5.25-12.71,0-3.67,1.07-7.06,3.19-10.06,2.12-3.01,4.95-5.23,8.42-6.61l.23-.09v-.24c.13-2.64,1.28-4.72,3.42-6.17,2.15-1.46,4.45-1.76,6.85-.92l.75.26-2.85-7.81,3.87-1.43-1.43-3.82,4.06-1.49,1.38,3.87,3.56-1.27,9.85,26.89-3.56,1.43,1.42,3.86-4.06,1.49-1.38-3.88-3.87,1.58-2.71-7.83-.42.6c-.77,1.1-1.78,2-2.99,2.65-1.16.62-2.41.94-3.73.94h-.19c-1.62-.03-3.1-.51-4.4-1.43-1.31-.92-2.3-2.12-2.96-3.57l-.15-.34-.34.15c-2.62,1.16-4.74,2.95-6.29,5.3-1.56,2.36-2.35,5.03-2.35,7.94,0,4.05,1.44,7.53,4.27,10.37,2.83,2.83,6.32,4.27,10.37,4.27h30.19v3.32h-23.51v12.97h24.45v3.32Z" fill="#5e8e19"/>
    </g>
  </g>
</svg>