<?xml version="1.0" encoding="UTF-8"?>
<svg id="Layer_2" data-name="Layer 2" xmlns="http://www.w3.org/2000/svg" viewBox="0 0 113.39 113.39">
  <g id="Layer_1-2" data-name="Layer 1">
    <g>
      <path d="m56.69,3c29.61,0,53.69,24.09,53.69,53.69s-24.09,53.69-53.69,53.69S3,86.3,3,56.69,27.09,3,56.69,3m0-3C25.38,0,0,25.38,0,56.69s25.38,56.69,56.69,56.69,56.69-25.38,56.69-56.69S88,0,56.69,0h0Z" fill="#fff"/>
      <path d="m56.55,90.79c-4.64,0-9.03-.9-13.15-2.69-4.12-1.8-7.72-4.23-10.8-7.31-3.08-3.08-5.51-6.69-7.31-10.84-1.79-4.15-2.69-8.57-2.69-13.26s.92-9.21,2.75-13.35c1.83-4.15,4.33-7.76,7.5-10.83,3.16-3.07,6.88-5.49,11.14-7.26,4.26-1.77,8.8-2.66,13.62-2.66,4.42,0,8.63.75,12.63,2.24,4,1.49,7.51,3.57,10.55,6.22,3.04,2.65,5.47,5.81,7.29,9.47,1.82,3.66,2.73,7.66,2.73,11.99,0,5.85-1.69,10.54-5.06,14.06s-8,5.28-13.88,5.28h-6.72c-1.59,0-2.92.55-3.99,1.64-1.07,1.09-1.61,2.41-1.61,3.96s.47,2.93,1.42,4.03c.95,1.1,1.42,2.38,1.42,3.82,0,1.85-.52,3.22-1.55,4.13-1.03.91-2.46,1.36-4.28,1.36Zm-20.69-32.2c1.06,0,1.95-.37,2.69-1.1.73-.73,1.1-1.63,1.1-2.69s-.37-1.95-1.1-2.69c-.73-.73-1.63-1.1-2.69-1.1s-1.95.37-2.69,1.1c-.73.73-1.1,1.63-1.1,2.69s.37,1.95,1.1,2.69c.73.73,1.63,1.1,2.69,1.1Zm11.37-15.15c1.06,0,1.95-.37,2.69-1.1.73-.73,1.1-1.63,1.1-2.69s-.37-1.95-1.1-2.69c-.73-.73-1.63-1.1-2.69-1.1s-1.95.37-2.69,1.1c-.73.73-1.1,1.63-1.1,2.69s.37,1.95,1.1,2.69c.73.73,1.63,1.1,2.69,1.1Zm18.94,0c1.06,0,1.95-.37,2.69-1.1.73-.73,1.1-1.63,1.1-2.69s-.37-1.95-1.1-2.69c-.73-.73-1.63-1.1-2.69-1.1s-1.95.37-2.69,1.1c-.73.73-1.1,1.63-1.1,2.69s.37,1.95,1.1,2.69c.73.73,1.63,1.1,2.69,1.1Zm11.37,15.15c1.06,0,1.95-.37,2.69-1.1.73-.73,1.1-1.63,1.1-2.69s-.37-1.95-1.1-2.69c-.73-.73-1.63-1.1-2.69-1.1s-1.95.37-2.69,1.1c-.73.73-1.1,1.63-1.1,2.69s.37,1.95,1.1,2.69c.73.73,1.63,1.1,2.69,1.1Zm-20.98,28.41c.67,0,1.17-.15,1.52-.44.35-.29.52-.71.52-1.27,0-.88-.47-1.83-1.42-2.83-.95-1.01-1.42-2.66-1.42-4.96,0-2.75.92-5.01,2.75-6.78,1.83-1.77,4.07-2.66,6.72-2.66h6.63c4.75,0,8.46-1.4,11.14-4.19,2.68-2.8,4.01-6.58,4.01-11.35,0-7.69-2.96-13.97-8.87-18.83-5.91-4.86-12.76-7.3-20.53-7.3-8.73,0-16.12,2.94-22.16,8.81-6.04,5.87-9.06,13.04-9.06,21.5s2.95,15.55,8.86,21.45c5.9,5.9,13.01,8.86,21.31,8.86Z" fill="#fff"/>
    </g>
  </g>
</svg>