<?xml version="1.0" encoding="UTF-8"?>
<svg id="Layer_2" data-name="Layer 2" xmlns="http://www.w3.org/2000/svg" viewBox="0 0 113.39 113.39">
  <g id="Layer_1-2" data-name="Layer 1">
    <g>
      <polygon points="27.19 79.64 27.19 86.19 33.74 86.19 76.42 43.52 69.87 36.97 27.19 79.64" fill="#f4a031"/>
      <path d="m86.09,32.56l-5.14-5.21c-.12-.12-.16-.14-.18-.15-.36-.14-.74-.15-1.04-.02-.19.08-.36.19-.54.34l-6.56,6.56,6.72,6.72,6.67-6.66c.15-.15.18-.23.19-.26.07-.19.1-.36.1-.58,0-.2-.04-.42-.12-.65l.3-.4-.38.33Z" fill="#f4a031"/>
      <path d="m56.69,0C25.38,0,0,25.38,0,56.69s25.38,56.69,56.69,56.69,56.69-25.38,56.69-56.69S88,0,56.69,0Zm33.25,35.27c-.23.62-.59,1.17-1.1,1.68l-53.39,53.35h-12.37v-12.37l53.36-53.33c.55-.5,1.12-.87,1.76-1.13,1.24-.51,2.66-.51,3.98-.01.63.24,1.17.61,1.68,1.16l5.01,5.07c.5.47.86,1,1.07,1.62.23.66.35,1.32.35,1.97,0,.7-.12,1.36-.35,1.99Z" fill="#f4a031"/>
    </g>
  </g>
</svg>