<?xml version="1.0" encoding="UTF-8"?>
<svg id="Layer_2" data-name="Layer 2" xmlns="http://www.w3.org/2000/svg" xmlns:xlink="http://www.w3.org/1999/xlink" viewBox="0 0 1223.31 1210">
  <defs>
    <clipPath id="clippath">
      <rect width="1223.31" height="1210" fill="none"/>
    </clipPath>
  </defs>
  <g id="Layer_1-2" data-name="Layer 1">
    <g clip-path="url(#clippath)" fill="none">
      <g>
        <g>
          <path d="m865.5,373.58c6.62,6.59,13.21,11.3,19.75,14.12,6.61,2.82,13.23,3.74,19.91,2.76,6.7-.96,13.34-3.48,20.02-7.56,6.66-4.1,13.68-9.82,21.07-17.2l114.59-114.59h0s199.12-199.13,199.12-199.13c5.99-5.99,10.9-11.59,14.68-16.77,3.79-5.16,6.7-10.45,8.74-15.85s2.83-10.63,2.36-15.72c-.43-5.09-2.15-10.38-5.09-15.85-2.89-5.34-7.11-10.79-12.62-16.37h-.54s0-.54,0-.54c-6.62-6.59-13.21-11.3-19.75-14.12-6.61-2.82-13.23-3.74-19.91-2.76-6.7.96-13.34,3.48-20.02,7.56-6.66,4.1-13.68,9.82-21.07,17.2l-199.12,199.12h0s-114.59,114.6-114.59,114.6c-5.99,5.99-10.9,11.59-14.68,16.77-3.79,5.16-6.7,10.45-8.74,15.85-2.04,5.4-2.83,10.63-2.36,15.72.43,5.09,2.15,10.38,5.09,15.85,2.89,5.34,7.11,10.79,12.62,16.37h.54s0,.54,0,.54Zm14.86-34.14c-1.62-3.47-2.18-6.88-1.71-10.2.47-3.32,1.7-6.5,3.57-9.53,1.91-3.03,4.64-6.34,8.18-9.87l114.59-114.59-.05-.05L1204.06-3.92c3.61-3.61,6.93-6.39,9.98-8.29,3.05-1.93,6.23-3.12,9.53-3.61,3.3-.45,6.68.14,10.09,1.79,3.41,1.64,7.04,4.37,10.85,8.18,3.77,3.77,6.48,7.38,8.11,10.85,1.62,3.47,2.18,6.88,1.71,10.2-.47,3.32-1.7,6.5-3.57,9.53-1.91,3.03-4.64,6.34-8.18,9.87l-199.12,199.12.05.05-114.59,114.59c-3.61,3.61-6.93,6.39-9.98,8.29-3.05,1.93-6.23,3.12-9.53,3.61-3.3.45-6.68-.14-10.09-1.79-3.41-1.64-7.04-4.37-10.85-8.18s-6.48-7.38-8.11-10.85Z"/>
          <polygon points="838.71 424.77 865.59 424.72 865.5 373.58 864.96 373.04 813.96 373.13 814 399.99 838.68 399.93 838.71 424.77"/>
        </g>
        <g>
          <path d="m881.85,563.07c6.62,6.59,13.21,11.3,19.75,14.12,6.61,2.82,13.23,3.74,19.91,2.76,6.7-.96,13.34-3.48,20.02-7.56,6.66-4.1,13.68-9.82,21.07-17.2l201.16-201.16h0s199.12-199.13,199.12-199.13c5.99-5.99,10.9-11.59,14.68-16.77,3.79-5.16,6.7-10.45,8.74-15.85s2.83-10.63,2.36-15.72c-.43-5.09-2.15-10.38-5.09-15.85-2.89-5.34-7.11-10.79-12.62-16.37h-.54s0-.54,0-.54c-6.62-6.59-13.21-11.3-19.75-14.12-6.61-2.82-13.23-3.74-19.91-2.76-6.7.96-13.34,3.48-20.02,7.56-6.66,4.1-13.68,9.82-21.07,17.2l-199.12,199.12h0s-201.16,201.17-201.16,201.17c-5.99,5.99-10.9,11.59-14.68,16.77-3.79,5.16-6.7,10.45-8.74,15.85-2.04,5.4-2.83,10.63-2.36,15.72.43,5.09,2.15,10.38,5.09,15.85,2.89,5.34,7.11,10.79,12.62,16.37h.54s0,.54,0,.54Zm14.86-34.14c-1.62-3.47-2.18-6.88-1.71-10.2.47-3.32,1.7-6.5,3.57-9.53,1.91-3.03,4.64-6.34,8.18-9.87l201.16-201.16-.05-.05,199.12-199.12c3.61-3.61,6.93-6.39,9.98-8.29,3.05-1.93,6.23-3.12,9.53-3.61,3.3-.45,6.68.14,10.09,1.79,3.41,1.64,7.04,4.37,10.85,8.18s6.48,7.38,8.11,10.85c1.62,3.47,2.18,6.88,1.71,10.2-.47,3.32-1.7,6.5-3.57,9.53-1.91,3.03-4.64,6.34-8.18,9.87l-199.12,199.12.05.05-201.16,201.16c-3.61,3.61-6.93,6.39-9.98,8.29-3.05,1.93-6.23,3.12-9.53,3.61-3.3.45-6.68-.14-10.09-1.79-3.41-1.64-7.04-4.37-10.85-8.18s-6.48-7.38-8.11-10.85Z"/>
          <polygon points="855.06 614.26 881.94 614.21 881.85 563.07 881.3 562.53 830.31 562.62 830.34 589.48 855.02 589.43 855.06 614.26"/>
        </g>
        <g>
          <path d="m1113.99,536.77c6.62,6.59,13.21,11.3,19.75,14.12,6.61,2.82,13.23,3.74,19.91,2.76,6.7-.96,13.34-3.48,20.02-7.56,6.66-4.1,13.68-9.82,21.07-17.2l71.94-71.94h0s199.12-199.13,199.12-199.13c5.99-5.99,10.9-11.59,14.68-16.77,3.79-5.16,6.7-10.45,8.74-15.85s2.83-10.63,2.36-15.72c-.43-5.09-2.15-10.38-5.09-15.85-2.89-5.34-7.11-10.79-12.62-16.37h-.54s0-.54,0-.54c-6.62-6.59-13.21-11.3-19.75-14.12-6.61-2.82-13.23-3.74-19.91-2.76-6.7.96-13.34,3.48-20.02,7.56-6.66,4.1-13.68,9.82-21.07,17.2l-199.12,199.12h0s-71.94,71.95-71.94,71.95c-5.99,5.99-10.9,11.59-14.68,16.77-3.79,5.16-6.7,10.45-8.74,15.85-2.04,5.4-2.83,10.63-2.36,15.72.43,5.09,2.15,10.38,5.09,15.85,2.89,5.34,7.11,10.79,12.62,16.37h.54s0,.54,0,.54Zm14.86-34.14c-1.62-3.47-2.18-6.88-1.71-10.2.47-3.32,1.7-6.5,3.57-9.53,1.91-3.03,4.64-6.34,8.18-9.87l71.94-71.94-.05-.05,199.12-199.12c3.61-3.61,6.93-6.39,9.98-8.29,3.05-1.93,6.23-3.12,9.53-3.61,3.3-.45,6.68.14,10.09,1.79,3.41,1.64,7.04,4.37,10.85,8.18,3.77,3.77,6.48,7.38,8.11,10.85,1.62,3.47,2.18,6.88,1.71,10.2-.47,3.32-1.7,6.5-3.57,9.53-1.91,3.03-4.64,6.34-8.18,9.87l-199.12,199.12.05.05-71.94,71.94c-3.61,3.61-6.93,6.39-9.98,8.29-3.05,1.93-6.23,3.12-9.53,3.61-3.3.45-6.68-.14-10.09-1.79-3.41-1.64-7.04-4.37-10.85-8.18-3.77-3.77-6.48-7.38-8.11-10.85Z"/>
          <polygon points="1087.2 587.96 1114.08 587.91 1113.99 536.77 1113.44 536.23 1062.45 536.32 1062.49 563.18 1087.16 563.12 1087.2 587.96"/>
        </g>
        <g>
          <path d="m312.35,926.73c6.62,6.59,13.21,11.3,19.75,14.12,6.61,2.82,13.23,3.74,19.91,2.76,6.7-.96,13.34-3.48,20.02-7.56,6.66-4.1,13.68-9.82,21.07-17.2l202.88-202.88h0s156.47-156.48,156.47-156.48c5.99-5.99,10.9-11.59,14.68-16.77,3.79-5.16,6.7-10.45,8.74-15.85s2.83-10.63,2.36-15.72c-.43-5.09-2.15-10.38-5.09-15.85-2.89-5.34-7.11-10.79-12.62-16.37h-.54s0-.54,0-.54c-6.62-6.59-13.21-11.3-19.75-14.12-6.61-2.82-13.23-3.74-19.91-2.76-6.7.96-13.34,3.48-20.02,7.56-6.66,4.1-13.68,9.82-21.07,17.2l-156.47,156.47h0s-202.88,202.89-202.88,202.89c-5.99,5.99-10.9,11.59-14.68,16.77-3.79,5.16-6.7,10.45-8.74,15.85-2.04,5.4-2.83,10.63-2.36,15.72.43,5.09,2.15,10.38,5.09,15.85,2.89,5.34,7.11,10.79,12.62,16.37h.54s0,.54,0,.54Zm14.86-34.14c-1.62-3.47-2.18-6.88-1.71-10.2.47-3.32,1.7-6.5,3.57-9.53,1.91-3.03,4.64-6.34,8.18-9.87l202.88-202.88-.05-.05,156.47-156.47c3.61-3.61,6.93-6.39,9.98-8.29,3.05-1.93,6.23-3.12,9.53-3.61,3.3-.45,6.68.14,10.09,1.79,3.41,1.64,7.04,4.37,10.85,8.18,3.77,3.77,6.48,7.38,8.11,10.85,1.62,3.47,2.18,6.88,1.71,10.2-.47,3.32-1.7,6.5-3.57,9.53-1.91,3.03-4.64,6.34-8.18,9.87l-156.47,156.47.05.05-202.88,202.88c-3.61,3.61-6.93,6.39-9.98,8.29-3.05,1.93-6.23,3.12-9.53,3.61-3.3.45-6.68-.14-10.09-1.79-3.41-1.64-7.04-4.37-10.85-8.18-3.77-3.77-6.48-7.38-8.11-10.85Z"/>
          <polygon points="285.56 977.93 312.44 977.87 312.35 926.73 311.81 926.19 260.81 926.28 260.85 953.14 285.52 953.09 285.56 977.93"/>
          <polygon points="811.5 478.83 811.46 451.97 786.79 452.02 786.75 427.18 759.87 427.24 759.96 478.38 760.5 478.92 811.5 478.83"/>
        </g>
        <path d="m1035.55,1644.39c6.62,6.59,13.21,11.3,19.75,14.12,6.61,2.82,13.23,3.74,19.91,2.76,6.7-.96,13.34-3.48,20.02-7.56,6.66-4.1,13.68-9.82,21.07-17.2l71.94-71.94h0s327.29-327.29,327.29-327.29c5.99-5.99,10.9-11.59,14.68-16.77,3.79-5.16,6.7-10.45,8.74-15.85s2.83-10.63,2.36-15.72c-.43-5.09-2.15-10.38-5.09-15.85-2.89-5.34-7.11-10.79-12.62-16.37h-.54s0-.54,0-.54c-6.62-6.59-13.21-11.3-19.75-14.12-6.61-2.82-13.23-3.74-19.91-2.76-6.7.96-13.34,3.48-20.02,7.56-6.66,4.1-13.68,9.82-21.07,17.2l-327.29,327.29h0s-71.94,71.95-71.94,71.95c-5.99,5.99-10.9,11.59-14.68,16.77-3.79,5.16-6.7,10.45-8.74,15.85-2.04,5.4-2.83,10.63-2.36,15.72.43,5.09,2.15,10.38,5.09,15.85,2.89,5.34,7.11,10.79,12.62,16.37h.54s0,.54,0,.54Zm14.86-34.14c-1.62-3.47-2.18-6.88-1.71-10.2.47-3.32,1.7-6.5,3.57-9.53,1.91-3.03,4.64-6.34,8.18-9.87l71.94-71.94-.05-.05,327.29-327.29c3.61-3.61,6.93-6.39,9.98-8.29,3.05-1.93,6.23-3.12,9.53-3.61,3.3-.45,6.68.14,10.09,1.79,3.41,1.64,7.04,4.37,10.85,8.18s6.48,7.38,8.11,10.85c1.62,3.47,2.18,6.88,1.71,10.2-.47,3.32-1.7,6.5-3.57,9.53-1.91,3.03-4.64,6.34-8.18,9.87l-327.29,327.29.05.05-71.94,71.94c-3.61,3.61-6.93,6.39-9.98,8.29-3.05,1.93-6.23,3.12-9.53,3.61-3.3.45-6.68-.14-10.09-1.79-3.41-1.64-7.04-4.37-10.85-8.18-3.77-3.77-6.48-7.38-8.11-10.85Z"/>
        <g>
          <path d="m697.22,1159.37c6.62,6.59,13.21,11.3,19.75,14.12,6.61,2.82,13.23,3.74,19.91,2.76,6.7-.96,13.34-3.48,20.02-7.56,6.66-4.1,13.68-9.82,21.07-17.2l126.76-126.76h0s228.81-228.82,228.81-228.82c5.99-5.99,10.9-11.59,14.68-16.77,3.79-5.16,6.7-10.45,8.74-15.85,2.04-5.4,2.83-10.63,2.36-15.72-.43-5.09-2.15-10.38-5.09-15.85-2.89-5.34-7.11-10.79-12.62-16.37h-.54s0-.54,0-.54c-6.62-6.59-13.21-11.3-19.75-14.12-6.61-2.82-13.23-3.74-19.91-2.76-6.7.96-13.34,3.48-20.02,7.56-6.66,4.1-13.68,9.82-21.07,17.2l-228.81,228.81h0s-126.76,126.77-126.76,126.77c-5.99,5.99-10.9,11.59-14.68,16.77-3.79,5.16-6.7,10.45-8.74,15.85-2.04,5.4-2.83,10.63-2.36,15.72.43,5.09,2.15,10.38,5.09,15.85,2.89,5.34,7.11,10.79,12.62,16.37h.54s0,.54,0,.54Zm14.86-34.14c-1.62-3.47-2.18-6.88-1.71-10.2.47-3.32,1.7-6.5,3.57-9.53,1.91-3.03,4.64-6.34,8.18-9.87l126.76-126.76-.05-.05,228.81-228.81c3.61-3.61,6.93-6.39,9.98-8.29,3.05-1.93,6.23-3.12,9.53-3.61,3.3-.45,6.68.14,10.09,1.79,3.41,1.64,7.04,4.37,10.85,8.18s6.48,7.38,8.11,10.85c1.62,3.47,2.18,6.88,1.71,10.2-.47,3.32-1.7,6.5-3.57,9.53-1.91,3.03-4.64,6.34-8.18,9.87l-228.81,228.81.05.05-126.76,126.76c-3.61,3.61-6.93,6.39-9.98,8.29-3.05,1.93-6.23,3.12-9.53,3.61-3.3.45-6.68-.14-10.09-1.79-3.41-1.64-7.04-4.37-10.85-8.18s-6.48-7.38-8.11-10.85Z"/>
          <polygon points="670.43 1210.57 697.31 1210.51 697.22 1159.37 696.68 1158.83 645.68 1158.92 645.72 1185.78 670.39 1185.73 670.43 1210.57"/>
          <polygon points="1192.59 715.25 1192.55 688.39 1167.88 688.44 1167.84 663.61 1140.96 663.66 1141.05 714.8 1141.59 715.34 1192.59 715.25"/>
        </g>
        <path d="m1130.66,1331.84c6.62,6.59,13.21,11.3,19.75,14.12,6.61,2.82,13.23,3.74,19.91,2.76,6.7-.96,13.34-3.48,20.02-7.56,6.66-4.1,13.68-9.82,21.07-17.2l-9.52,9.52h0s104.32-104.33,104.32-104.33c5.99-5.99,10.9-11.59,14.68-16.77,3.79-5.16,6.7-10.45,8.74-15.85,2.04-5.4,2.83-10.63,2.36-15.72-.43-5.09-2.15-10.38-5.09-15.85-2.89-5.34-7.11-10.79-12.62-16.37h-.54s0-.54,0-.54c-6.62-6.59-13.21-11.3-19.75-14.12-6.61-2.82-13.23-3.74-19.91-2.76-6.7.96-13.34,3.48-20.02,7.56-6.66,4.1-13.68,9.82-21.07,17.2l-104.32,104.32h0s9.52-9.51,9.52-9.51c-5.99,5.99-10.9,11.59-14.68,16.77-3.79,5.16-6.7,10.45-8.74,15.85-2.04,5.4-2.83,10.63-2.36,15.72.43,5.09,2.15,10.38,5.09,15.85,2.89,5.34,7.11,10.79,12.62,16.37h.54s0,.54,0,.54Zm14.86-34.14c-1.62-3.47-2.18-6.88-1.71-10.2.47-3.32,1.7-6.5,3.57-9.53,1.91-3.03,4.64-6.34,8.18-9.87l-9.52,9.52-.05-.05,104.32-104.32c3.61-3.61,6.93-6.39,9.98-8.29,3.05-1.93,6.23-3.12,9.53-3.61,3.3-.45,6.68.14,10.09,1.79,3.41,1.64,7.04,4.37,10.85,8.18s6.48,7.38,8.11,10.85c1.62,3.47,2.18,6.88,1.71,10.2-.47,3.32-1.7,6.5-3.57,9.53-1.91,3.03-4.64,6.34-8.18,9.87l-104.32,104.32.05.05,9.52-9.52c-3.61,3.61-6.93,6.39-9.98,8.29-3.05,1.93-6.23,3.12-9.53,3.61-3.3.45-6.68-.14-10.09-1.79-3.41-1.64-7.04-4.37-10.85-8.18s-6.48-7.38-8.11-10.85Z"/>
        <path d="m957.88,1310.39c6.62,6.59,13.21,11.3,19.75,14.12,6.61,2.82,13.23,3.74,19.91,2.76,6.7-.96,13.34-3.48,20.02-7.56,6.66-4.1,13.68-9.82,21.07-17.2l71.94-71.94h0s349.2-349.21,349.2-349.21c5.99-5.99,10.9-11.59,14.68-16.77,3.79-5.16,6.7-10.45,8.74-15.85,2.04-5.4,2.83-10.63,2.36-15.72-.43-5.09-2.15-10.38-5.09-15.85-2.89-5.34-7.11-10.79-12.62-16.37h-.54s0-.54,0-.54c-6.62-6.59-13.21-11.3-19.75-14.12-6.61-2.82-13.23-3.74-19.91-2.76-6.7.96-13.34,3.48-20.02,7.56-6.66,4.1-13.68,9.82-21.07,17.2l-349.2,349.2h0s-71.94,71.95-71.94,71.95c-5.99,5.99-10.9,11.59-14.68,16.77-3.79,5.16-6.7,10.45-8.74,15.85-2.04,5.4-2.83,10.63-2.36,15.72.43,5.09,2.15,10.38,5.09,15.85,2.89,5.34,7.11,10.79,12.62,16.37h.54s0,.54,0,.54Zm14.86-34.14c-1.62-3.47-2.18-6.88-1.71-10.2.47-3.32,1.7-6.5,3.57-9.53,1.91-3.03,4.64-6.34,8.18-9.87l71.94-71.94-.05-.05,349.2-349.2c3.61-3.61,6.93-6.39,9.98-8.29,3.05-1.93,6.23-3.12,9.53-3.61,3.3-.45,6.68.14,10.09,1.79,3.41,1.64,7.04,4.37,10.85,8.18,3.77,3.77,6.48,7.38,8.11,10.85,1.62,3.47,2.18,6.88,1.71,10.2-.47,3.32-1.7,6.5-3.57,9.53-1.91,3.03-4.64,6.34-8.18,9.87l-349.2,349.2.05.05-71.94,71.94c-3.61,3.61-6.93,6.39-9.98,8.29-3.05,1.93-6.23,3.12-9.53,3.61-3.3.45-6.68-.14-10.09-1.79-3.41-1.64-7.04-4.37-10.85-8.18s-6.48-7.38-8.11-10.85Z"/>
        <path d="m679.89,1382.54c6.62,6.59,13.21,11.3,19.75,14.12,6.61,2.82,13.23,3.74,19.91,2.76,6.7-.96,13.34-3.48,20.02-7.56,6.66-4.1,13.68-9.82,21.07-17.2l71.94-71.94h0s464.9-464.91,464.9-464.91c5.99-5.99,10.9-11.59,14.68-16.77,3.79-5.16,6.7-10.45,8.74-15.85,2.04-5.4,2.83-10.63,2.36-15.72-.43-5.09-2.15-10.38-5.09-15.85-2.89-5.34-7.11-10.79-12.62-16.37h-.54s0-.54,0-.54c-6.62-6.59-13.21-11.3-19.75-14.12-6.61-2.82-13.23-3.74-19.91-2.76-6.7.96-13.34,3.48-20.02,7.56-6.66,4.1-13.68,9.82-21.07,17.2l-464.9,464.9h0s-71.94,71.95-71.94,71.95c-5.99,5.99-10.9,11.59-14.68,16.77-3.79,5.16-6.7,10.45-8.74,15.85-2.04,5.4-2.83,10.63-2.36,15.72.43,5.09,2.15,10.38,5.09,15.85,2.89,5.34,7.11,10.79,12.62,16.37h.54s0,.54,0,.54Zm14.86-34.14c-1.62-3.47-2.18-6.88-1.71-10.2.47-3.32,1.7-6.5,3.57-9.53,1.91-3.03,4.64-6.34,8.18-9.87l71.94-71.94-.05-.05,464.9-464.9c3.61-3.61,6.93-6.39,9.98-8.29,3.05-1.93,6.23-3.12,9.53-3.61,3.3-.45,6.68.14,10.09,1.79,3.41,1.64,7.04,4.37,10.85,8.18s6.48,7.38,8.11,10.85c1.62,3.47,2.18,6.88,1.71,10.2-.47,3.32-1.7,6.5-3.57,9.53-1.91,3.03-4.64,6.34-8.18,9.87l-464.9,464.9.05.05-71.94,71.94c-3.61,3.61-6.93,6.39-9.98,8.29-3.05,1.93-6.23,3.12-9.53,3.61-3.3.45-6.68-.14-10.09-1.79-3.41-1.64-7.04-4.37-10.85-8.18s-6.48-7.38-8.11-10.85Z"/>
        <g>
          <path d="m546.2,898.71c6.62,6.59,13.21,11.3,19.75,14.12,6.61,2.82,13.23,3.74,19.91,2.76,6.7-.96,13.34-3.48,20.02-7.56,6.66-4.1,13.68-9.82,21.07-17.2l71.94-71.94h0s69.9-69.91,69.9-69.91c5.99-5.99,10.9-11.59,14.68-16.77,3.79-5.16,6.7-10.45,8.74-15.85,2.04-5.4,2.83-10.63,2.36-15.72-.43-5.09-2.15-10.38-5.09-15.85-2.89-5.34-7.11-10.79-12.62-16.37h-.54s0-.54,0-.54c-6.62-6.59-13.21-11.3-19.75-14.12-6.61-2.82-13.23-3.74-19.91-2.76-6.7.96-13.34,3.48-20.02,7.56-6.66,4.1-13.68,9.82-21.07,17.2l-69.9,69.9h0s-71.94,71.95-71.94,71.95c-5.99,5.99-10.9,11.59-14.68,16.77-3.79,5.16-6.7,10.45-8.74,15.85-2.04,5.4-2.83,10.63-2.36,15.72.43,5.09,2.15,10.38,5.09,15.85,2.89,5.34,7.11,10.79,12.62,16.37h.54s0,.54,0,.54Zm14.86-34.14c-1.62-3.47-2.18-6.88-1.71-10.2.47-3.32,1.7-6.5,3.57-9.53,1.91-3.03,4.64-6.34,8.18-9.87l71.94-71.94-.05-.05,69.9-69.9c3.61-3.61,6.93-6.39,9.98-8.29,3.05-1.93,6.23-3.12,9.53-3.61,3.3-.45,6.68.14,10.09,1.79,3.41,1.64,7.04,4.37,10.85,8.18,3.77,3.77,6.48,7.38,8.11,10.85,1.62,3.47,2.18,6.88,1.71,10.2-.47,3.32-1.7,6.5-3.57,9.53-1.91,3.03-4.64,6.34-8.18,9.87l-69.9,69.9.05.05-71.94,71.94c-3.61,3.61-6.93,6.39-9.98,8.29-3.05,1.93-6.23,3.12-9.53,3.61-3.3.45-6.68-.14-10.09-1.79-3.41-1.64-7.04-4.37-10.85-8.18-3.77-3.77-6.48-7.38-8.11-10.85Z"/>
          <polygon points="519.41 949.91 546.29 949.85 546.2 898.71 545.66 898.17 494.67 898.26 494.7 925.12 519.38 925.07 519.41 949.91"/>
          <polygon points="827.84 668.32 827.81 641.46 803.13 641.51 803.1 616.68 776.22 616.73 776.31 667.87 776.85 668.41 827.84 668.32"/>
        </g>
        <g>
          <path d="m794.72,856.04c6.62,6.59,13.21,11.3,19.75,14.12,6.61,2.82,13.23,3.74,19.91,2.76,6.7-.96,13.34-3.48,20.02-7.56,6.66-4.1,13.68-9.82,21.07-17.2l71.94-71.94h0s53.53-53.54,53.53-53.54c5.99-5.99,10.9-11.59,14.68-16.77,3.79-5.16,6.7-10.45,8.74-15.85,2.04-5.4,2.83-10.63,2.36-15.72-.43-5.09-2.15-10.38-5.09-15.85-2.89-5.34-7.11-10.79-12.62-16.37h-.54s0-.54,0-.54c-6.62-6.59-13.21-11.3-19.75-14.12-6.61-2.82-13.23-3.74-19.91-2.76-6.7.96-13.34,3.48-20.02,7.56-6.66,4.1-13.68,9.82-21.07,17.2l-53.53,53.53h0s-71.94,71.95-71.94,71.95c-5.99,5.99-10.9,11.59-14.68,16.77-3.79,5.16-6.7,10.45-8.74,15.85-2.04,5.4-2.83,10.63-2.36,15.72.43,5.09,2.15,10.38,5.09,15.85,2.89,5.34,7.11,10.79,12.62,16.37h.54s0,.54,0,.54Zm14.86-34.14c-1.62-3.47-2.18-6.88-1.71-10.2.47-3.32,1.7-6.5,3.57-9.53,1.91-3.03,4.64-6.34,8.18-9.87l71.94-71.94-.05-.05,53.53-53.53c3.61-3.61,6.93-6.39,9.98-8.29,3.05-1.93,6.23-3.12,9.53-3.61,3.3-.45,6.68.14,10.09,1.79,3.41,1.64,7.04,4.37,10.85,8.18,3.77,3.77,6.48,7.38,8.11,10.85,1.62,3.47,2.18,6.88,1.71,10.2-.47,3.32-1.7,6.5-3.57,9.53-1.91,3.03-4.64,6.34-8.18,9.87l-53.53,53.53.05.05-71.94,71.94c-3.61,3.61-6.93,6.39-9.98,8.29-3.05,1.93-6.23,3.12-9.53,3.61-3.3.45-6.68-.14-10.09-1.79-3.41-1.64-7.04-4.37-10.85-8.18-3.77-3.77-6.48-7.38-8.11-10.85Z"/>
          <polygon points="767.93 907.23 794.81 907.17 794.72 856.04 794.18 855.49 743.18 855.58 743.22 882.44 767.89 882.39 767.93 907.23"/>
          <polygon points="1059.98 642.02 1059.95 615.16 1035.27 615.21 1035.24 590.37 1008.36 590.43 1008.45 641.57 1008.99 642.11 1059.98 642.02"/>
        </g>
        <g>
          <path d="m-21.58,1260.66c6.62,6.59,13.21,11.3,19.75,14.12,6.61,2.82,13.23,3.74,19.91,2.76,6.7-.96,13.34-3.48,20.02-7.56,6.66-4.1,13.68-9.82,21.07-17.2l71.94-71.94h0s68.18-68.19,68.18-68.19c5.99-5.99,10.9-11.59,14.68-16.77,3.79-5.16,6.7-10.45,8.74-15.85,2.04-5.4,2.83-10.63,2.36-15.72-.43-5.09-2.15-10.38-5.09-15.85-2.89-5.34-7.11-10.79-12.62-16.37h-.54s0-.54,0-.54c-6.62-6.59-13.21-11.3-19.75-14.12-6.61-2.82-13.23-3.74-19.91-2.76-6.7.96-13.34,3.48-20.02,7.56-6.66,4.1-13.68,9.82-21.07,17.2l-68.18,68.18h0s-71.94,71.95-71.94,71.95c-5.99,5.99-10.9,11.59-14.68,16.77-3.79,5.16-6.7,10.45-8.74,15.85-2.04,5.4-2.83,10.63-2.36,15.72.43,5.09,2.15,10.38,5.09,15.85,2.89,5.34,7.11,10.79,12.62,16.37h.54s0,.54,0,.54Zm14.86-34.14c-1.62-3.47-2.18-6.88-1.71-10.2.47-3.32,1.7-6.5,3.57-9.53,1.91-3.03,4.64-6.34,8.18-9.87l71.94-71.94-.05-.05,68.18-68.18c3.61-3.61,6.93-6.39,9.98-8.29,3.05-1.93,6.23-3.12,9.53-3.61,3.3-.45,6.68.14,10.09,1.79,3.41,1.64,7.04,4.37,10.85,8.18,3.77,3.77,6.48,7.38,8.11,10.85,1.62,3.47,2.18,6.88,1.71,10.2-.47,3.32-1.7,6.5-3.57,9.53-1.91,3.03-4.64,6.34-8.18,9.87l-68.18,68.18.05.05-71.94,71.94c-3.61,3.61-6.93,6.39-9.98,8.29-3.05,1.93-6.23,3.12-9.53,3.61-3.3.45-6.68-.14-10.09-1.79-3.41-1.64-7.04-4.37-10.85-8.18-3.77-3.77-6.48-7.38-8.11-10.85Z"/>
          <polygon points="258.35 1031.98 258.31 1005.12 233.63 1005.18 233.6 980.34 206.72 980.39 206.81 1031.53 207.35 1032.07 258.35 1031.98"/>
        </g>
        <g>
          <path d="m81.34,1363.58c6.62,6.59,13.21,11.3,19.75,14.12,6.61,2.82,13.23,3.74,19.91,2.76,6.7-.96,13.34-3.48,20.02-7.56,6.66-4.1,13.68-9.82,21.07-17.2l71.94-71.94h0s199.12-199.13,199.12-199.13c5.99-5.99,10.9-11.59,14.68-16.77,3.79-5.16,6.7-10.45,8.74-15.85,2.04-5.4,2.83-10.63,2.36-15.72-.43-5.09-2.15-10.38-5.09-15.85-2.89-5.34-7.11-10.79-12.62-16.37h-.54s0-.54,0-.54c-6.62-6.59-13.21-11.3-19.75-14.12-6.61-2.82-13.23-3.74-19.91-2.76-6.7.96-13.34,3.48-20.02,7.56-6.66,4.1-13.68,9.82-21.07,17.2l-199.12,199.12h0s-71.94,71.95-71.94,71.95c-5.99,5.99-10.9,11.59-14.68,16.77-3.79,5.16-6.7,10.45-8.74,15.85-2.04,5.4-2.83,10.63-2.36,15.72.43,5.09,2.15,10.38,5.09,15.85,2.89,5.34,7.11,10.79,12.62,16.37h.54s0,.54,0,.54Zm14.86-34.14c-1.62-3.47-2.18-6.88-1.71-10.2.47-3.32,1.7-6.5,3.57-9.53,1.91-3.03,4.64-6.34,8.18-9.87l71.94-71.94-.05-.05,199.12-199.12c3.61-3.61,6.93-6.39,9.98-8.29,3.05-1.93,6.23-3.12,9.53-3.61,3.3-.45,6.68.14,10.09,1.79,3.41,1.64,7.04,4.37,10.85,8.18,3.77,3.77,6.48,7.38,8.11,10.85,1.62,3.47,2.18,6.88,1.71,10.2-.47,3.32-1.7,6.5-3.57,9.53-1.91,3.03-4.64,6.34-8.18,9.87l-199.12,199.12.05.05-71.94,71.94c-3.61,3.61-6.93,6.39-9.98,8.29-3.05,1.93-6.23,3.12-9.53,3.61-3.3.45-6.68-.14-10.09-1.79-3.41-1.64-7.04-4.37-10.85-8.18-3.77-3.77-6.48-7.38-8.11-10.85Z"/>
          <polygon points="492.2 1003.96 492.17 977.1 467.49 977.16 467.45 952.32 440.57 952.37 440.66 1003.51 441.21 1004.05 492.2 1003.96"/>
        </g>
        <g>
          <path d="m184.26,1466.5c6.62,6.59,13.21,11.3,19.75,14.12,6.61,2.82,13.23,3.74,19.91,2.76,6.7-.96,13.34-3.48,20.02-7.56,6.66-4.1,13.68-9.82,21.07-17.2l71.94-71.94h0s344.72-344.73,344.72-344.73c5.99-5.99,10.9-11.59,14.68-16.77,3.79-5.16,6.7-10.45,8.74-15.85,2.04-5.4,2.83-10.63,2.36-15.72-.43-5.09-2.15-10.38-5.09-15.85-2.89-5.34-7.11-10.79-12.62-16.37h-.54s0-.54,0-.54c-6.62-6.59-13.21-11.3-19.75-14.12-6.61-2.82-13.23-3.74-19.91-2.76-6.7.96-13.34,3.48-20.02,7.56-6.66,4.1-13.68,9.82-21.07,17.2l-344.72,344.72h0s-71.94,71.95-71.94,71.95c-5.99,5.99-10.9,11.59-14.68,16.77-3.79,5.16-6.7,10.45-8.74,15.85-2.04,5.4-2.83,10.63-2.36,15.72.43,5.09,2.15,10.38,5.09,15.85,2.89,5.34,7.11,10.79,12.62,16.37h.54s0,.54,0,.54Zm14.86-34.14c-1.62-3.47-2.18-6.88-1.71-10.2.47-3.32,1.7-6.5,3.57-9.53,1.91-3.03,4.64-6.34,8.18-9.87l71.94-71.94-.05-.05,344.72-344.72c3.61-3.61,6.93-6.39,9.98-8.29,3.05-1.93,6.23-3.12,9.53-3.61,3.3-.45,6.68.14,10.09,1.79,3.41,1.64,7.04,4.37,10.85,8.18,3.77,3.77,6.48,7.38,8.11,10.85,1.62,3.47,2.18,6.88,1.71,10.2-.47,3.32-1.7,6.5-3.57,9.53-1.91,3.03-4.64,6.34-8.18,9.87l-344.72,344.72.05.05-71.94,71.94c-3.61,3.61-6.93,6.39-9.98,8.29-3.05,1.93-6.23,3.12-9.53,3.61-3.3.45-6.68-.14-10.09-1.79-3.41-1.64-7.04-4.37-10.85-8.18-3.77-3.77-6.48-7.38-8.11-10.85Z"/>
          <polygon points="740.72 961.29 740.68 934.42 716 934.48 715.97 909.64 689.09 909.69 689.18 960.83 689.72 961.38 740.72 961.29"/>
        </g>
        <g>
          <path d="m810.87,233.65c6.62,6.59,13.21,11.3,19.75,14.12,6.61,2.82,13.23,3.74,19.91,2.76,6.7-.96,13.34-3.48,20.02-7.56,6.66-4.1,13.68-9.82,21.07-17.2l71.94-71.94h0s199.12-199.13,199.12-199.13c5.99-5.99,10.9-11.59,14.68-16.77,3.79-5.16,6.7-10.45,8.74-15.85,2.04-5.4,2.83-10.63,2.36-15.72-.43-5.09-2.15-10.38-5.09-15.85-2.89-5.34-7.11-10.79-12.62-16.37h-.54s0-.54,0-.54c-6.62-6.59-13.21-11.3-19.75-14.12-6.61-2.82-13.23-3.74-19.91-2.76-6.7.96-13.34,3.48-20.02,7.56-6.66,4.1-13.68,9.82-21.07,17.2l-199.12,199.12h0s-71.94,71.95-71.94,71.95c-5.99,5.99-10.9,11.59-14.68,16.77-3.79,5.16-6.7,10.45-8.74,15.85-2.04,5.4-2.83,10.63-2.36,15.72.43,5.09,2.15,10.38,5.09,15.85,2.89,5.34,7.11,10.79,12.62,16.37h.54s0,.54,0,.54Zm14.86-34.14c-1.62-3.47-2.18-6.88-1.71-10.2.47-3.32,1.7-6.5,3.57-9.53,1.91-3.03,4.64-6.34,8.18-9.87l71.94-71.94-.05-.05,199.12-199.12c3.61-3.61,6.93-6.39,9.98-8.29,3.05-1.93,6.23-3.12,9.53-3.61,3.3-.45,6.68.14,10.09,1.79,3.41,1.64,7.04,4.37,10.85,8.18,3.77,3.77,6.48,7.38,8.11,10.85,1.62,3.47,2.18,6.88,1.71,10.2-.47,3.32-1.7,6.5-3.57,9.53-1.91,3.03-4.64,6.34-8.18,9.87l-199.12,199.12.05.05-71.94,71.94c-3.61,3.61-6.93,6.39-9.98,8.29-3.05,1.93-6.23,3.12-9.53,3.61-3.3.45-6.68-.14-10.09-1.79-3.41-1.64-7.04-4.37-10.85-8.18s-6.48-7.38-8.11-10.85Z"/>
          <polygon points="784.09 284.85 810.96 284.79 810.87 233.65 810.33 233.11 759.34 233.2 759.37 260.06 784.05 260.01 784.09 284.85"/>
        </g>
        <g>
          <path d="m613.15,225.54c6.62,6.59,13.21,11.3,19.75,14.12,6.61,2.82,13.23,3.74,19.91,2.76,6.7-.96,13.34-3.48,20.02-7.56,6.66-4.1,13.68-9.82,21.07-17.2l166.74-166.74h0s199.12-199.13,199.12-199.13c5.99-5.99,10.9-11.59,14.68-16.77,3.79-5.16,6.7-10.45,8.74-15.85,2.04-5.4,2.83-10.63,2.36-15.72-.43-5.09-2.15-10.38-5.09-15.85-2.89-5.34-7.11-10.79-12.62-16.37h-.54s0-.54,0-.54c-6.62-6.59-13.21-11.3-19.75-14.12-6.61-2.82-13.23-3.74-19.91-2.76-6.7.96-13.34,3.48-20.02,7.56-6.66,4.1-13.68,9.82-21.07,17.2L787.41-22.32h0s-166.74,166.75-166.74,166.75c-5.99,5.99-10.9,11.59-14.68,16.77-3.79,5.16-6.7,10.45-8.74,15.85-2.04,5.4-2.83,10.63-2.36,15.72.43,5.09,2.15,10.38,5.09,15.85,2.89,5.34,7.11,10.79,12.62,16.37h.54s0,.54,0,.54Zm14.86-34.14c-1.62-3.47-2.18-6.88-1.71-10.2.47-3.32,1.7-6.5,3.57-9.53,1.91-3.03,4.64-6.34,8.18-9.87L804.79-4.95l-.05-.05,199.12-199.12c3.61-3.61,6.93-6.39,9.98-8.29,3.05-1.93,6.23-3.12,9.53-3.61,3.3-.45,6.68.14,10.09,1.79,3.41,1.64,7.04,4.37,10.85,8.18,3.77,3.77,6.48,7.38,8.11,10.85,1.62,3.47,2.18,6.88,1.71,10.2-.47,3.32-1.7,6.5-3.57,9.53-1.91,3.03-4.64,6.34-8.18,9.87l-199.12,199.12.05.05-166.74,166.74c-3.61,3.61-6.93,6.39-9.98,8.29-3.05,1.93-6.23,3.12-9.53,3.61-3.3.45-6.68-.14-10.09-1.79-3.41-1.64-7.04-4.37-10.85-8.18s-6.48-7.38-8.11-10.85Z"/>
          <polygon points="586.37 276.73 613.25 276.68 613.15 225.54 612.61 224.99 561.62 225.08 561.65 251.95 586.33 251.89 586.37 276.73"/>
        </g>
        <g>
          <path d="m217.85,826.68c6.62,6.59,13.21,11.3,19.75,14.12,6.61,2.82,13.23,3.74,19.91,2.76,6.7-.96,13.34-3.48,20.02-7.56,6.66-4.1,13.68-9.82,21.07-17.2l71.94-71.94h0s327.29-327.29,327.29-327.29c5.99-5.99,10.9-11.59,14.68-16.77,3.79-5.16,6.7-10.45,8.74-15.85,2.04-5.4,2.83-10.63,2.36-15.72-.43-5.09-2.15-10.38-5.09-15.85-2.89-5.34-7.11-10.79-12.62-16.37h-.54s0-.54,0-.54c-6.62-6.59-13.21-11.3-19.75-14.12-6.61-2.82-13.23-3.74-19.91-2.76-6.7.96-13.34,3.48-20.02,7.56-6.66,4.1-13.68,9.82-21.07,17.2l-327.29,327.29h0s-71.94,71.95-71.94,71.95c-5.99,5.99-10.9,11.59-14.68,16.77-3.79,5.16-6.7,10.45-8.74,15.85-2.04,5.4-2.83,10.63-2.36,15.72.43,5.09,2.15,10.38,5.09,15.85,2.89,5.34,7.11,10.79,12.62,16.37h.54s0,.54,0,.54Zm14.86-34.14c-1.62-3.47-2.18-6.88-1.71-10.2.47-3.32,1.7-6.5,3.57-9.53,1.91-3.03,4.64-6.34,8.18-9.87l71.94-71.94-.05-.05,327.29-327.29c3.61-3.61,6.93-6.39,9.98-8.29,3.05-1.93,6.23-3.12,9.53-3.61,3.3-.45,6.68.14,10.09,1.79,3.41,1.64,7.04,4.37,10.85,8.18s6.48,7.38,8.11,10.85c1.62,3.47,2.18,6.88,1.71,10.2-.47,3.32-1.7,6.5-3.57,9.53-1.91,3.03-4.64,6.34-8.18,9.87l-327.29,327.29.05.05-71.94,71.94c-3.61,3.61-6.93,6.39-9.98,8.29-3.05,1.93-6.23,3.12-9.53,3.61-3.3.45-6.68-.14-10.09-1.79-3.41-1.64-7.04-4.37-10.85-8.18-3.77-3.77-6.48-7.38-8.11-10.85Z"/>
          <polygon points="191.06 877.88 217.94 877.82 217.85 826.68 217.3 826.14 166.31 826.23 166.35 853.09 191.02 853.04 191.06 877.88"/>
          <polygon points="756.87 338.9 756.84 312.04 732.16 312.1 732.12 287.26 705.24 287.31 705.33 338.45 705.88 338.99 756.87 338.9"/>
        </g>
        <path d="m-120.49,341.67c6.62,6.59,13.21,11.3,19.75,14.12,6.61,2.82,13.23,3.74,19.91,2.76,6.7-.96,13.34-3.48,20.02-7.56,6.66-4.1,13.68-9.82,21.07-17.2l126.76-126.76h0S355.99-61.98,355.99-61.98c5.99-5.99,10.9-11.59,14.68-16.77,3.79-5.16,6.7-10.45,8.74-15.85s2.83-10.63,2.36-15.72c-.43-5.09-2.15-10.38-5.09-15.85-2.89-5.34-7.11-10.79-12.62-16.37h-.54s0-.54,0-.54c-6.62-6.59-13.21-11.3-19.75-14.12-6.61-2.82-13.23-3.74-19.91-2.76-6.7.96-13.34,3.48-20.02,7.56-6.66,4.1-13.68,9.82-21.07,17.2L13.79,133.79h0s-126.76,126.77-126.76,126.77c-5.99,5.99-10.9,11.59-14.68,16.77-3.79,5.16-6.7,10.45-8.74,15.85-2.04,5.4-2.83,10.63-2.36,15.72.43,5.09,2.15,10.38,5.09,15.85,2.89,5.34,7.11,10.79,12.62,16.37h.54s0,.54,0,.54Zm14.86-34.14c-1.62-3.47-2.18-6.88-1.71-10.2.47-3.32,1.7-6.5,3.57-9.53,1.91-3.03,4.64-6.34,8.18-9.87L31.17,151.16l-.05-.05L300.11-117.86c3.61-3.61,6.93-6.39,9.98-8.29,3.05-1.93,6.23-3.12,9.53-3.61,3.3-.45,6.68.14,10.09,1.79,3.41,1.64,7.04,4.37,10.85,8.18,3.77,3.77,6.48,7.38,8.11,10.85,1.62,3.47,2.18,6.88,1.71,10.2-.47,3.32-1.7,6.5-3.57,9.53-1.91,3.03-4.64,6.34-8.18,9.87L69.65,189.64l.05.05-126.76,126.76c-3.61,3.61-6.93,6.39-9.98,8.29-3.05,1.93-6.23,3.12-9.53,3.61-3.3.45-6.68-.14-10.09-1.79-3.41-1.64-7.04-4.37-10.85-8.18s-6.48-7.38-8.11-10.85Z"/>
        <g>
          <path d="m324.55,514.14c6.62,6.59,13.21,11.3,19.75,14.12,6.61,2.82,13.23,3.74,19.91,2.76,6.7-.96,13.34-3.48,20.02-7.56,6.66-4.1,13.68-9.82,21.07-17.2l-9.52,9.52h0s104.32-104.33,104.32-104.33c5.99-5.99,10.9-11.59,14.68-16.77,3.79-5.16,6.7-10.45,8.74-15.85,2.04-5.4,2.83-10.63,2.36-15.72-.43-5.09-2.15-10.38-5.09-15.85-2.89-5.34-7.11-10.79-12.62-16.37h-.54s0-.54,0-.54c-6.62-6.59-13.21-11.3-19.75-14.12-6.61-2.82-13.23-3.74-19.91-2.76-6.7.96-13.34,3.48-20.02,7.56-6.66,4.1-13.68,9.82-21.07,17.2l-104.32,104.32h0s9.52-9.51,9.52-9.51c-5.99,5.99-10.9,11.59-14.68,16.77-3.79,5.16-6.7,10.45-8.74,15.85-2.04,5.4-2.83,10.63-2.36,15.72.43,5.09,2.15,10.38,5.09,15.85,2.89,5.34,7.11,10.79,12.62,16.37h.54s0,.54,0,.54Zm14.86-34.14c-1.62-3.47-2.18-6.88-1.71-10.2.47-3.32,1.7-6.5,3.57-9.53,1.91-3.03,4.64-6.34,8.18-9.87l-9.52,9.52-.05-.05,104.32-104.32c3.61-3.61,6.93-6.39,9.98-8.29,3.05-1.93,6.23-3.12,9.53-3.61,3.3-.45,6.68.14,10.09,1.79,3.41,1.64,7.04,4.37,10.85,8.18,3.77,3.77,6.48,7.38,8.11,10.85,1.62,3.47,2.18,6.88,1.71,10.2-.47,3.32-1.7,6.5-3.57,9.53-1.91,3.03-4.64,6.34-8.18,9.87l-104.32,104.32.05.05,9.52-9.52c-3.61,3.61-6.93,6.39-9.98,8.29-3.05,1.93-6.23,3.12-9.53,3.61-3.3.45-6.68-.14-10.09-1.79-3.41-1.64-7.04-4.37-10.85-8.18-3.77-3.77-6.48-7.38-8.11-10.85Z"/>
          <polygon points="297.76 565.33 324.64 565.28 324.55 514.14 324.01 513.6 273.02 513.69 273.05 540.55 297.73 540.49 297.76 565.33"/>
          <polygon points="559.15 330.79 559.12 303.93 534.44 303.98 534.4 279.14 507.53 279.19 507.62 330.33 508.16 330.88 559.15 330.79"/>
        </g>
        <g>
          <path d="m74.73,558.13c6.62,6.59,13.21,11.3,19.75,14.12,6.61,2.82,13.23,3.74,19.91,2.76,6.7-.96,13.34-3.48,20.02-7.56,6.66-4.1,13.68-9.82,21.07-17.2l.05.05h0L642.05,63.64c5.99-5.99,10.9-11.59,14.68-16.77,3.79-5.16,6.7-10.45,8.74-15.85,2.04-5.4,2.83-10.63,2.36-15.72-.43-5.09-2.15-10.38-5.09-15.85-2.89-5.34-7.11-10.79-12.62-16.37h-.54s0-.54,0-.54c-6.62-6.59-13.21-11.3-19.75-14.12-6.61-2.82-13.23-3.74-19.91-2.76-6.7.96-13.34,3.48-20.02,7.56-6.66,4.1-13.68,9.82-21.07,17.2L63.57,495.68l18.73-18.61-.05-.05c-5.99,5.99-10.9,11.59-14.68,16.77-3.79,5.16-6.7,10.45-8.74,15.85-2.04,5.4-2.83,10.63-2.36,15.72.43,5.09,2.15,10.38,5.09,15.85,2.89,5.34,7.11,10.79,12.62,16.37h.54s0,.54,0,.54Zm14.86-34.14c-1.62-3.47-2.18-6.88-1.71-10.2.47-3.32,1.7-6.5,3.57-9.53,1.91-3.03,4.64-6.34,8.18-9.87l.05.05-18.76,18.58L586.16,7.75c3.61-3.61,6.93-6.39,9.98-8.29,3.05-1.93,6.23-3.12,9.53-3.61,3.3-.45,6.68.14,10.09,1.79,3.41,1.64,7.04,4.37,10.85,8.18s6.48,7.38,8.11,10.85c1.62,3.47,2.18,6.88,1.71,10.2-.47,3.32-1.7,6.5-3.57,9.53-1.91,3.03-4.64,6.34-8.18,9.87l-486.54,486.63.05.05-.05-.05c-3.61,3.61-6.93,6.39-9.98,8.29-3.05,1.93-6.23,3.12-9.53,3.61-3.3.45-6.68-.14-10.09-1.79-3.41-1.64-7.04-4.37-10.85-8.18-3.77-3.77-6.48-7.38-8.11-10.85Z"/>
          <polygon points="47.94 609.32 74.82 609.27 74.73 558.13 74.19 557.59 23.19 557.68 23.23 584.54 47.9 584.48 47.94 609.32"/>
        </g>
        <g>
          <path d="m-137.82,564.84c6.62,6.59,13.21,11.3,19.75,14.12,6.61,2.82,13.23,3.74,19.91,2.76,6.7-.96,13.34-3.48,20.02-7.56,6.66-4.1,13.68-9.82,21.07-17.2L14.87,485.01h0S389.05,110.8,389.05,110.8c5.99-5.99,10.9-11.59,14.68-16.77,3.79-5.16,6.7-10.45,8.74-15.85s2.83-10.63,2.36-15.72c-.43-5.09-2.15-10.38-5.09-15.85-2.89-5.34-7.11-10.79-12.62-16.37h-.54s0-.54,0-.54c-6.62-6.59-13.21-11.3-19.75-14.12-6.61-2.82-13.23-3.74-19.91-2.76-6.7.96-13.34,3.48-20.02,7.56-6.66,4.1-13.68,9.82-21.07,17.2L-58.36,411.78h0s-71.94,71.95-71.94,71.95c-5.99,5.99-10.9,11.59-14.68,16.77-3.79,5.16-6.7,10.45-8.74,15.85-2.04,5.4-2.83,10.63-2.36,15.72.43,5.09,2.15,10.38,5.09,15.85,2.89,5.34,7.11,10.79,12.62,16.37h.54s0,.54,0,.54Zm14.86-34.14c-1.62-3.47-2.18-6.88-1.71-10.2.47-3.32,1.7-6.5,3.57-9.53,1.91-3.03,4.64-6.34,8.18-9.87l71.94-71.94-.05-.05L333.16,54.91c3.61-3.61,6.93-6.39,9.98-8.29,3.05-1.93,6.23-3.12,9.53-3.61,3.3-.45,6.68.14,10.09,1.79,3.41,1.64,7.04,4.37,10.85,8.18,3.77,3.77,6.48,7.38,8.11,10.85,1.62,3.47,2.18,6.88,1.71,10.2-.47,3.32-1.7,6.5-3.57,9.53-1.91,3.03-4.64,6.34-8.18,9.87L-2.51,467.63l.05.05-71.94,71.94c-3.61,3.61-6.93,6.39-9.98,8.29-3.05,1.93-6.23,3.12-9.53,3.61-3.3.45-6.68-.14-10.09-1.79-3.41-1.64-7.04-4.37-10.85-8.18-3.77-3.77-6.48-7.38-8.11-10.85Z"/>
          <polygon points="448.12 30.15 448.08 3.29 423.4 3.34 423.37 -21.5 396.49 -21.44 396.58 29.7 397.12 30.24 448.12 30.15"/>
        </g>
        <path d="m-105.43,120.77c6.62,6.59,13.21,11.3,19.75,14.12,6.61,2.82,13.23,3.74,19.91,2.76,6.7-.96,13.34-3.48,20.02-7.56,6.66-4.1,13.68-9.82,21.07-17.2L129.7-41.5h0s53.53-53.54,53.53-53.54c5.99-5.99,10.9-11.59,14.68-16.77,3.79-5.16,6.7-10.45,8.74-15.85,2.04-5.4,2.83-10.63,2.36-15.72-.43-5.09-2.15-10.38-5.09-15.85-2.89-5.34-7.11-10.79-12.62-16.37h-.54s0-.54,0-.54c-6.62-6.59-13.21-11.3-19.75-14.12-6.61-2.82-13.23-3.74-19.91-2.76-6.7.96-13.34,3.48-20.02,7.56-6.66,4.1-13.68,9.82-21.07,17.2l-53.53,53.53h0S-97.9,39.67-97.9,39.67c-5.99,5.99-10.9,11.59-14.68,16.77-3.79,5.16-6.7,10.45-8.74,15.85-2.04,5.4-2.83,10.63-2.36,15.72.43,5.09,2.15,10.38,5.09,15.85,2.89,5.34,7.11,10.79,12.62,16.37h.54s0,.54,0,.54Zm14.86-34.14c-1.62-3.47-2.18-6.88-1.71-10.2.47-3.32,1.7-6.5,3.57-9.53,1.91-3.03,4.64-6.34,8.18-9.87L73.85-97.35l-.05-.05,53.53-53.53c3.61-3.61,6.93-6.39,9.98-8.29,3.05-1.93,6.23-3.12,9.53-3.61,3.3-.45,6.68.14,10.09,1.79,3.41,1.64,7.04,4.37,10.85,8.18,3.77,3.77,6.48,7.38,8.11,10.85,1.62,3.47,2.18,6.88,1.71,10.2-.47,3.32-1.7,6.5-3.57,9.53-1.91,3.03-4.64,6.34-8.18,9.87l-53.53,53.53.05.05L-42.01,95.55c-3.61,3.61-6.93,6.39-9.98,8.29-3.05,1.93-6.23,3.12-9.53,3.61-3.3.45-6.68-.14-10.09-1.79-3.41-1.64-7.04-4.37-10.85-8.18s-6.48-7.38-8.11-10.85Z"/>
        <g>
          <path d="m-118.86,1163.38c6.62,6.59,13.21,11.3,19.75,14.12,6.61,2.82,13.23,3.74,19.91,2.76,6.7-.96,13.34-3.48,20.02-7.56,6.66-4.1,13.68-9.82,21.07-17.2l71.94-71.94h0s70.96-70.97,70.96-70.97c5.99-5.99,10.9-11.59,14.68-16.77,3.79-5.16,6.7-10.45,8.74-15.85s2.83-10.63,2.36-15.72c-.43-5.09-2.15-10.38-5.09-15.85-2.89-5.34-7.11-10.79-12.62-16.37h-.54s0-.54,0-.54c-6.62-6.59-13.21-11.3-19.75-14.12-6.61-2.82-13.23-3.74-19.91-2.76-6.7.96-13.34,3.48-20.02,7.56-6.66,4.1-13.68,9.82-21.07,17.2l-70.96,70.96h0s-71.94,71.95-71.94,71.95c-5.99,5.99-10.9,11.59-14.68,16.77-3.79,5.16-6.7,10.45-8.74,15.85-2.04,5.4-2.83,10.63-2.36,15.72.43,5.09,2.15,10.38,5.09,15.85,2.89,5.34,7.11,10.79,12.62,16.37h.54s0,.54,0,.54Zm14.86-34.14c-1.62-3.47-2.18-6.88-1.71-10.2.47-3.32,1.7-6.5,3.57-9.53,1.91-3.03,4.64-6.34,8.18-9.87l71.94-71.94-.05-.05,70.96-70.96c3.61-3.61,6.93-6.39,9.98-8.29,3.05-1.93,6.23-3.12,9.53-3.61,3.3-.45,6.68.14,10.09,1.79,3.41,1.64,7.04,4.37,10.85,8.18,3.77,3.77,6.48,7.38,8.11,10.85,1.62,3.47,2.18,6.88,1.71,10.2-.47,3.32-1.7,6.5-3.57,9.53-1.91,3.03-4.64,6.34-8.18,9.87l-70.96,70.96.05.05-71.94,71.94c-3.61,3.61-6.93,6.39-9.98,8.29-3.05,1.93-6.23,3.12-9.53,3.61-3.3.45-6.68-.14-10.09-1.79-3.41-1.64-7.04-4.37-10.85-8.18s-6.48-7.38-8.11-10.85Z"/>
          <polygon points="163.84 931.93 163.81 905.07 139.13 905.12 139.1 880.29 112.22 880.34 112.31 931.48 112.85 932.02 163.84 931.93"/>
        </g>
        <g>
          <path d="m-221.77,1060.46c6.62,6.59,13.21,11.3,19.75,14.12,6.61,2.82,13.23,3.74,19.91,2.76,6.7-.96,13.34-3.48,20.02-7.56,6.66-4.1,13.68-9.82,21.07-17.2l71.94-71.94h0s280.59-280.59,280.59-280.59c5.99-5.99,10.9-11.59,14.68-16.77,3.79-5.16,6.7-10.45,8.74-15.85s2.83-10.63,2.36-15.72c-.43-5.09-2.15-10.38-5.09-15.85-2.89-5.34-7.11-10.79-12.62-16.37h-.54s0-.54,0-.54c-6.62-6.59-13.21-11.3-19.75-14.12-6.61-2.82-13.23-3.74-19.91-2.76-6.7.96-13.34,3.48-20.02,7.56-6.66,4.1-13.68,9.82-21.07,17.2l-280.59,280.59h0s-71.94,71.95-71.94,71.95c-5.99,5.99-10.9,11.59-14.68,16.77-3.79,5.16-6.7,10.45-8.74,15.85-2.04,5.4-2.83,10.63-2.36,15.72.43,5.09,2.15,10.38,5.09,15.85,2.89,5.34,7.11,10.79,12.62,16.37h.54s0,.54,0,.54Zm14.86-34.14c-1.62-3.47-2.18-6.88-1.71-10.2.47-3.32,1.7-6.5,3.57-9.53,1.91-3.03,4.64-6.34,8.18-9.87l71.94-71.94-.05-.05,280.59-280.59c3.61-3.61,6.93-6.39,9.98-8.29,3.05-1.93,6.23-3.12,9.53-3.61,3.3-.45,6.68.14,10.09,1.79,3.41,1.64,7.04,4.37,10.85,8.18s6.48,7.38,8.11,10.85c1.62,3.47,2.18,6.88,1.71,10.2-.47,3.32-1.7,6.5-3.57,9.53-1.91,3.03-4.64,6.34-8.18,9.87L-86.46,963.26l.05.05-71.94,71.94c-3.61,3.61-6.93,6.39-9.98,8.29-3.05,1.93-6.23,3.12-9.53,3.61-3.3.45-6.68-.14-10.09-1.79-3.41-1.64-7.04-4.37-10.85-8.18-3.77-3.77-6.48-7.38-8.11-10.85Z"/>
          <polygon points="270.55 619.39 270.52 592.53 245.84 592.58 245.8 567.74 218.92 567.8 219.01 618.94 219.56 619.48 270.55 619.39"/>
        </g>
      </g>
    </g>
  </g>
</svg>