<?xml version="1.0" encoding="UTF-8"?>
<svg id="Layer_2" data-name="Layer 2" xmlns="http://www.w3.org/2000/svg" viewBox="0 0 113.39 113.39">
  <g id="Layer_1-2" data-name="Layer 1">
    <g>
      <path d="m56.69,3c29.61,0,53.69,24.09,53.69,53.69s-24.09,53.69-53.69,53.69S3,86.3,3,56.69,27.09,3,56.69,3m0-3C25.38,0,0,25.38,0,56.69s25.38,56.69,56.69,56.69,56.69-25.38,56.69-56.69S88,0,56.69,0h0Z" fill="#fff"/>
      <path d="m47.41,35.64c-2.15,1.45-3.29,3.53-3.41,6.17v.24s-.24.09-.24.09c-3.47,1.37-6.31,3.6-8.42,6.61-2.12,3.01-3.19,6.39-3.19,10.06,0,4.95,1.77,9.22,5.25,12.71,3.49,3.49,7.76,5.25,12.71,5.25h2.41v12.97h-20.37v3.32h49.09v-3.32h-24.45v-12.97h23.51v-3.32h-30.19c-4.05,0-7.53-1.44-10.37-4.27-2.83-2.83-4.27-6.32-4.27-10.37,0-2.91.79-5.58,2.35-7.94,1.56-2.35,3.67-4.14,6.29-5.3l.34-.15.15.34c.66,1.45,1.65,2.65,2.96,3.57,1.3.92,2.78,1.4,4.4,1.43h.19c1.32,0,2.58-.31,3.73-.94,1.21-.65,2.22-1.55,2.99-2.65l.42-.6,2.71,7.83,3.87-1.58,1.38,3.88,4.06-1.49-1.42-3.86,3.56-1.43-9.85-26.89-3.56,1.27-1.38-3.87-4.06,1.49,1.43,3.82-3.87,1.43,2.85,7.81-.75-.26c-2.4-.84-4.7-.54-6.85.92Zm14.54-8.96l.13.35,7.68,21.22-.34.13-5.59,2.19-.13-.36-7.89-21.39,6.15-2.15Zm-5.96,12c1.03,1.03,1.55,2.32,1.55,3.84s-.52,2.81-1.56,3.83c-1.03,1.03-2.32,1.55-3.84,1.55s-2.81-.52-3.83-1.56-1.55-2.32-1.55-3.84.52-2.81,1.56-3.83,2.32-1.55,3.84-1.55,2.81.52,3.83,1.56Z" fill="#fff"/>
    </g>
  </g>
</svg>