<?xml version="1.0" encoding="UTF-8"?>
<svg id="Layer_2" data-name="Layer 2" xmlns="http://www.w3.org/2000/svg" viewBox="0 0 113.39 113.39">
  <g id="Layer_1-2" data-name="Layer 1">
    <g>
      <path d="m53.42,48.56c-3.48,0-5.71,2.05-6.67,5.05h10.63c.57-3.14-.87-5.05-3.96-5.05Z" fill="#fff"/>
      <path d="m109.04,46.86l-3.55-3.24,1.46-4.58c2.38-7.47-2.18-15.36-9.84-17.04l-4.7-1.03-1.03-4.7c-1.67-7.66-9.57-12.21-17.04-9.84l-4.58,1.46-3.24-3.55c-5.28-5.79-14.4-5.79-19.67,0l-3.24,3.55-4.58-1.46c-7.47-2.38-15.36,2.18-17.04,9.84l-1.03,4.7-4.7,1.03c-7.66,1.67-12.21,9.57-9.84,17.04l1.46,4.58-3.55,3.24c-5.79,5.28-5.79,14.4,0,19.67l3.55,3.24-1.46,4.58c-2.38,7.47,2.18,15.36,9.84,17.04l4.7,1.03,1.03,4.7c1.67,7.66,9.57,12.21,17.04,9.84l4.58-1.46,3.24,3.55c5.28,5.79,14.4,5.79,19.67,0l3.24-3.55,4.58,1.46c7.47,2.38,15.36-2.18,17.04-9.84l1.03-4.7,4.7-1.03c7.66-1.67,12.21-9.57,9.84-17.04l-1.46-4.58,3.55-3.24c5.79-5.28,5.79-14.39,0-19.67Zm-71.05,6.46l-2.7,13.81h-6.01l2.61-13.37c.57-2.92-.26-4.66-3.01-4.66-3.09,0-5.27,2.31-5.75,4.97l-2.57,13.07h-5.97l4.36-22.26h5.97l-.57,2.92h.09c1.61-2.05,4.23-3.66,7.75-3.66,4.57,0,7.01,2.83,5.79,9.19Zm24.83,4.27h-16.69v.65c0,3.62,1.7,5.01,4.57,5.01,3.09,0,4.84-1.74,5.23-3.09h6.1c-2.05,4.7-6.01,7.67-11.94,7.67-6.49,0-9.76-3.53-9.76-9.85,0-7.45,5.23-13.85,13.55-13.85,6.88,0,9.37,3.79,9.37,9.24,0,1.22-.17,2.79-.44,4.23Zm25.57,9.54h-5.88l-1.39-15.25h-.09l-7.27,15.25h-5.92l-2-22.26h6.01l.78,14.9h.09l7.14-14.9h5.05l1.31,14.9h.13l6.75-14.9h6.19l-10.89,22.26Z" fill="#fff"/>
    </g>
  </g>
</svg>