<?xml version="1.0" encoding="UTF-8"?>
<svg id="Layer_2" data-name="Layer 2" xmlns="http://www.w3.org/2000/svg" viewBox="0 0 113.39 113.39">
  <g id="Layer_1-2" data-name="Layer 1">
    <g>
      <path d="m56.7,74.52c4.54-4.58,7.34-10.88,7.34-17.82s-2.8-13.25-7.34-17.83c-.71-.71-1.46-1.39-2.25-2.01-.78-.63-1.61-1.21-2.47-1.75-1.35-.83-2.78-1.54-4.28-2.1-1.44-.56-2.94-.98-4.5-1.25-1.46-.27-2.97-.41-4.51-.41-.15,0-.3,0-.44.01-13.77.23-24.9,11.51-24.9,25.34s11.14,25.1,24.91,25.33c.14.01.29.01.43.01,1.54,0,3.05-.14,4.51-.41,1.56-.27,3.06-.69,4.5-1.25,1.5-.56,2.93-1.27,4.28-2.1.86-.54,1.69-1.12,2.47-1.75.79-.62,1.54-1.3,2.25-2.01Z" fill="#866bf7"/>
      <path d="m56.69,0C25.38,0,0,25.38,0,56.69s25.38,56.69,56.69,56.69,56.69-25.38,56.69-56.69S88,0,56.69,0Zm-8.99,83.57c-1.6.54-3.26.94-4.98,1.18-1.32.19-2.66.29-4.03.29-15.65,0-28.34-12.69-28.34-28.34s12.69-28.35,28.34-28.35c1.36,0,2.71.1,4.02.29,1.72.24,3.39.63,4.99,1.18,1.56.51,3.06,1.17,4.49,1.94.69.37,1.36.78,2.02,1.22.86.55,1.69,1.16,2.49,1.81.78.66,1.53,1.34,2.24,2.07,5.01,5.11,8.1,12.11,8.1,19.84s-3.09,14.72-8.1,19.83c-.71.73-1.46,1.42-2.24,2.07-.8.65-1.63,1.26-2.49,1.81-.66.44-1.33.85-2.02,1.22-1.43.77-2.93,1.43-4.49,1.94Zm18,0c-1.6.54-3.26.94-4.98,1.18-1.32.19-2.66.29-4.03.29s-2.72-.1-4.03-.29c1.41-.7,2.76-1.51,4.04-2.41.14-.1.29-.2.43-.31,1.39-.02,2.75-.15,4.07-.4,1.56-.27,3.06-.69,4.5-1.25,9.54-3.63,16.34-12.88,16.34-23.68s-6.8-20.06-16.34-23.69c-1.44-.56-2.94-.98-4.5-1.25-1.32-.25-2.67-.38-4.06-.4-.15-.1-.29-.21-.44-.31-1.28-.9-2.62-1.71-4.03-2.41,1.31-.19,2.65-.29,4.02-.29s2.71.1,4.02.29c1.72.24,3.39.63,4.99,1.18,1.56.51,3.06,1.17,4.49,1.94,8.84,4.8,14.85,14.17,14.85,24.94s-6.01,20.13-14.85,24.93c-1.43.77-2.93,1.43-4.49,1.94Zm8.99,1.47c-1.37,0-2.72-.1-4.03-.29,1.57-.78,3.06-1.69,4.47-2.72,13.78-.23,24.91-11.51,24.91-25.33s-11.13-25.1-24.9-25.34c-1.41-1.02-2.9-1.94-4.47-2.72,1.31-.19,2.65-.29,4.02-.29,15.66,0,28.35,12.69,28.35,28.35s-12.69,28.34-28.35,28.34Z" fill="#866bf7"/>
    </g>
  </g>
</svg>