<?xml version="1.0" encoding="UTF-8"?>
<svg id="Layer_2" data-name="Layer 2" xmlns="http://www.w3.org/2000/svg" viewBox="0 0 113.39 113.39">
  <g id="Layer_1-2" data-name="Layer 1">
    <g>
      <path d="m56.69,3c29.61,0,53.69,24.09,53.69,53.69s-24.09,53.69-53.69,53.69S3,86.3,3,56.69,27.09,3,56.69,3m0-3C25.38,0,0,25.38,0,56.69s25.38,56.69,56.69,56.69,56.69-25.38,56.69-56.69S88,0,56.69,0h0Z" fill="#fff"/>
      <path d="m80.18,26.59c.25,0,.51.05.76.15.08.03.19.08.37.28l.03.03.03.03,5.02,5.08.04.04.04.04c.14.13.16.2.17.23.1.29.15.56.15.82,0,.28-.04.52-.13.76-.03.09-.1.24-.3.44l-7.02,7.02-.1-.1-7.26-7.26-.07-.07,6.94-6.94c.21-.19.43-.32.68-.42.2-.08.42-.12.65-.12m0-3c-.61,0-1.22.11-1.79.35-.59.24-1.11.57-1.6,1.02l-53.21,53.19v11.66h11.66l53.24-53.2c.46-.46.78-.96.99-1.51.22-.58.32-1.17.32-1.82,0-.59-.11-1.2-.32-1.81-.19-.54-.5-1.01-.96-1.43l-5.02-5.08c-.46-.5-.94-.82-1.5-1.03-.59-.22-1.21-.34-1.82-.34h0Zm-53.49,63.11v-7.26l43.18-43.18,7.26,7.26-43.18,43.18h-7.26Z" fill="#fff"/>
    </g>
  </g>
</svg>