<?xml version="1.0" encoding="UTF-8"?>
<svg id="Layer_2" data-name="Layer 2" xmlns="http://www.w3.org/2000/svg" viewBox="0 0 113.39 113.39">
  <g id="Layer_1-2" data-name="Layer 1">
    <g>
      <path d="m56.69,3c29.61,0,53.69,24.09,53.69,53.69s-24.09,53.69-53.69,53.69S3,86.3,3,56.69,27.09,3,56.69,3m0-3C25.38,0,0,25.38,0,56.69s25.38,56.69,56.69,56.69,56.69-25.38,56.69-56.69S88,0,56.69,0h0Z" fill="#fff"/>
      <g>
        <path d="m56.69,58.19c-.26,0-.51-.07-.74-.2l-28.35-16.2c-.47-.27-.76-.76-.76-1.3s.29-1.04.76-1.3l28.35-16.2c.46-.26,1.03-.26,1.49,0l28.35,16.2c.47.27.76.76.76,1.3s-.29,1.04-.76,1.3l-28.35,16.2c-.23.13-.49.2-.74.2Zm-25.32-17.7l25.32,14.47,25.32-14.47-25.32-14.47-25.32,14.47Z" fill="#fff"/>
        <path d="m56.69,90.59c-.26,0-.51-.07-.74-.2l-28.35-16.2c-.47-.27-.76-.76-.76-1.3v-32.4c0-.54.28-1.03.75-1.3.46-.27,1.03-.27,1.5,0l28.35,16.2c.47.27.76.76.76,1.3v32.4c0,.54-.28,1.03-.75,1.3-.23.13-.49.2-.75.2Zm-26.85-18.57l25.35,14.48v-28.94l-25.35-14.48v28.94Z" fill="#fff"/>
        <path d="m56.69,90.59c-.26,0-.52-.07-.75-.2-.46-.27-.75-.76-.75-1.3v-32.4c0-.54.29-1.04.76-1.3l28.35-16.2c.46-.27,1.03-.26,1.5,0,.46.27.75.76.75,1.3v32.4c0,.54-.29,1.04-.76,1.3l-28.35,16.2c-.23.13-.49.2-.74.2Zm1.5-33.03v28.94l25.35-14.48v-28.94l-25.35,14.48Zm26.85,15.33h0,0Z" fill="#fff"/>
      </g>
    </g>
  </g>
</svg>