<?xml version="1.0" encoding="UTF-8"?>
<svg id="Layer_2" data-name="Layer 2" xmlns="http://www.w3.org/2000/svg" viewBox="0 0 113.39 113.39">
  <g id="Layer_1-2" data-name="Layer 1">
    <g>
      <path d="m56.69,3c29.61,0,53.69,24.09,53.69,53.69s-24.09,53.69-53.69,53.69S3,86.3,3,56.69,27.09,3,56.69,3m0-3C25.38,0,0,25.38,0,56.69s25.38,56.69,56.69,56.69,56.69-25.38,56.69-56.69S88,0,56.69,0h0Z" fill="#fff"/>
      <g>
        <rect x="33.31" y="37.83" width="9.93" height="37.73" fill="none" stroke="#fff" stroke-miterlimit="10" stroke-width="3"/>
        <path d="m67.84,37.04c-10.88,0-19.44,8.15-19.44,19.6s8.57,19.71,19.44,19.71,19.5-8.25,19.5-19.71-8.57-19.6-19.5-19.6Zm0,30.43c-5.94,0-9.25-4.89-9.25-10.83s3.31-10.72,9.25-10.72,9.25,4.78,9.25,10.72-3.31,10.83-9.25,10.83Z" fill="none" stroke="#fff" stroke-miterlimit="10" stroke-width="3"/>
      </g>
    </g>
  </g>
</svg>