<?xml version="1.0" encoding="UTF-8"?>
<svg id="Layer_2" data-name="Layer 2" xmlns="http://www.w3.org/2000/svg" viewBox="0 0 113.39 113.39">
  <g id="Layer_1-2" data-name="Layer 1">
    <path d="m56.69,0C25.38,0,0,25.38,0,56.69s25.38,56.69,56.69,56.69,56.69-25.38,56.69-56.69S88,0,56.69,0Zm-12.62,49.6l-.08.03-24.96,10.24,25.04,10.42v3.99l-.17-.07-28.43-12.1v-4.45l.08-.03,28.53-11.93v3.92Zm24.7-18.4l-20.39,51.15h-3.98l.07-.17,20.46-51.15h3.91l-.07.17Zm.54,43.07v-3.99l.08-.03,24.96-10.24-25.04-10.42v-3.92l.17.07,28.43,12.03v4.45l-28.61,12.03Z" fill="#cc8200"/>
  </g>
</svg>