<?xml version="1.0" encoding="UTF-8"?>
<svg id="Layer_2" data-name="Layer 2" xmlns="http://www.w3.org/2000/svg" viewBox="0 0 113.39 113.39">
  <g id="Layer_1-2" data-name="Layer 1">
    <g>
      <path d="m82.09,70.95c-.87-8.05-5.52-14.96-12.12-18.95-.45,3.5-1.56,6.98-3.4,10.24-1.83,3.27-4.22,6.02-6.98,8.23,6.84,3.55,15.16,3.92,22.49.48Z" fill="#fff"/>
      <path d="m63.96,60.77c1.83-3.26,2.85-6.76,3.15-10.26-3.22-1.42-6.78-2.2-10.52-2.16-3.74.04-7.28.91-10.46,2.41.38,3.5,1.48,6.97,3.39,10.19,1.91,3.22,4.43,5.85,7.32,7.86,2.84-2.07,5.29-4.77,7.13-8.03Z" fill="#fff"/>
      <path d="m42.99,49c-.3-8.75,3.48-17.4,10.6-23.09-12.08-6.31-27.11-1.9-33.82,10.06-6.71,11.96-2.65,27.09,9.03,34.11,1.16-9.04,6.57-16.77,14.2-21.07Z" fill="#fff"/>
      <path d="m45.99,47.54c3.26-1.36,6.82-2.14,10.57-2.18,3.75-.05,7.33.65,10.62,1.93-.34-7.7-4.18-15.09-10.83-19.72-6.54,4.78-10.2,12.26-10.35,19.97Z" fill="#fff"/>
      <path d="m46.94,62.48c-1.91-3.22-3.11-6.67-3.64-10.16-6.5,4.15-10.98,11.17-11.66,19.24,7.41,3.27,15.72,2.7,22.47-1.02-2.81-2.14-5.26-4.84-7.17-8.06Z" fill="#fff"/>
      <path d="m56.69,0C25.38,0,0,25.38,0,56.69s25.38,56.69,56.69,56.69,56.69-25.38,56.69-56.69S88,0,56.69,0Zm29.09,72.39c-.19.11-.38.21-.57.32,0,.22.02.43.02.65.19,15.65-12.35,28.5-28,28.69-15.65.19-28.5-12.35-28.69-28,0-.22,0-.43,0-.65-.19-.1-.39-.2-.58-.3-13.65-7.66-18.5-24.94-10.84-38.59,7.66-13.65,24.94-18.5,38.59-10.84.19.11.37.22.56.33.18-.12.36-.24.55-.35,13.46-7.99,30.85-3.55,38.84,9.91,7.99,13.46,3.55,30.85-9.91,38.84Z" fill="#fff"/>
      <path d="m93.12,35.08c-7-11.79-22.13-15.83-34.06-9.24,7.25,5.52,11.24,14.08,11.15,22.83,7.73,4.12,13.33,11.72,14.7,20.73,11.5-7.3,15.2-22.53,8.2-34.32Z" fill="#fff"/>
      <path d="m56.88,72.41c-7.43,4.63-16.81,5.69-25.3,2.37.58,13.61,11.91,24.43,25.62,24.26,13.71-.17,24.78-11.25,25.03-24.87-8.41,3.52-17.81,2.69-25.35-1.76Z" fill="#fff"/>
    </g>
  </g>
</svg>