<?xml version="1.0" encoding="UTF-8"?>
<svg id="Layer_2" data-name="Layer 2" xmlns="http://www.w3.org/2000/svg" viewBox="0 0 113.39 113.39">
  <g id="Layer_1-2" data-name="Layer 1">
    <g>
      <polygon points="29.85 72.02 55.19 86.5 55.19 57.56 29.85 43.08 29.85 72.02" fill="#d4f96e"/>
      <polygon points="56.69 26.02 31.37 40.49 56.69 54.96 82.02 40.49 56.69 26.02" fill="#d4f96e"/>
      <polygon points="58.19 86.5 83.54 72.02 83.54 43.08 58.19 57.56 58.19 86.5" fill="#d4f96e"/>
      <path d="m56.69,0C25.38,0,0,25.38,0,56.69s25.38,56.69,56.69,56.69,56.69-25.38,56.69-56.69S88,0,56.69,0Zm29.85,72.89c0,.54-.29,1.04-.76,1.3l-28.34,16.19s0,0,0,0c0,0,0,0,0,0h0c-.08.05-.16.07-.24.1-.04.01-.08.04-.12.05-.13.03-.26.05-.38.05s-.26-.02-.38-.05c-.04-.01-.08-.03-.12-.05-.08-.03-.16-.05-.24-.1h0s0,0,0,0c0,0,0,0,0,0l-28.34-16.19c-.47-.27-.76-.76-.76-1.3v-32.4c0-.13.02-.27.05-.39,0-.02.02-.04.03-.07.03-.1.07-.2.12-.29.01-.02.03-.04.05-.07.06-.09.11-.17.19-.24.03-.03.06-.05.09-.07.07-.06.13-.12.21-.17,0,0,0,0,0,0,0,0,0,0,0,0l28.35-16.2c.46-.26,1.03-.26,1.49,0l28.35,16.2s0,0,0,0c0,0,0,0,0,0,.08.05.15.11.21.17.03.03.07.04.09.07.07.07.13.16.19.24.01.02.04.04.05.07.05.09.09.19.12.29,0,.02.02.04.03.07.03.13.05.26.05.39v32.4Z" fill="#d4f96e"/>
    </g>
  </g>
</svg>