<?xml version="1.0" encoding="UTF-8"?>
<svg id="Layer_2" data-name="Layer 2" xmlns="http://www.w3.org/2000/svg" viewBox="0 0 113.39 113.39">
  <g id="Layer_1-2" data-name="Layer 1">
    <g>
      <g>
        <g>
          <path d="m15.59,62.01v-4.29l28.36-11.86v3.64l-25.07,10.29v.14l25.07,10.43v3.71l-28.36-12.07Z" fill="#fff"/>
          <path d="m44.07,74.27l-.17-.07-28.43-12.1v-4.45l.08-.03,28.53-11.93v3.92l-.08.03-24.96,10.24,25.04,10.42v3.99Zm-28.36-12.34l28.11,11.96v-3.44l-25.07-10.43v-.31l.08-.03,24.99-10.25v-3.37l-28.11,11.75v4.12Z" fill="#fff"/>
        </g>
        <g>
          <path d="m65.01,31.16h3.64l-20.36,51.07h-3.71l20.43-51.07Z" fill="#fff"/>
          <path d="m48.38,82.35h-3.98l.07-.17,20.46-51.15h3.91l-.07.17-20.39,51.15Zm-3.61-.25h3.44l20.26-50.82h-3.37l-20.33,50.82Z" fill="#fff"/>
        </g>
        <g>
          <path d="m69.44,70.37l25.07-10.29v-.14l-25.07-10.43v-3.64l28.36,12v4.29l-28.36,11.93v-3.71Z" fill="#fff"/>
          <path d="m69.32,74.27v-3.99l.08-.03,24.96-10.24-25.04-10.42v-3.92l.17.07,28.43,12.03v4.45l-28.61,12.03Zm.25-3.82v3.44l28.11-11.82v-4.12l-28.11-11.89v3.37l25.07,10.43v.31l-.08.03-24.99,10.25Z" fill="#fff"/>
        </g>
      </g>
      <path d="m56.69,3c29.61,0,53.69,24.09,53.69,53.69s-24.09,53.69-53.69,53.69S3,86.3,3,56.69,27.09,3,56.69,3m0-3C25.38,0,0,25.38,0,56.69s25.38,56.69,56.69,56.69,56.69-25.38,56.69-56.69S88,0,56.69,0h0Z" fill="#fff"/>
    </g>
  </g>
</svg>