<?xml version="1.0" encoding="UTF-8"?>
<svg id="Laag_2" data-name="Laag 2" xmlns="http://www.w3.org/2000/svg" viewBox="0 0 508.55 91.33">
  <defs>
    <style>
      .cls-1 {
        fill: #fff;
      }
    </style>
  </defs>
  <g id="Layer_1" data-name="Layer 1">
    <g>
      <polygon class="cls-1" points="16.78 13.47 48.64 45.22 48.64 45.89 16.8 77.84 0 61.11 15.47 45.6 .05 30.24 16.78 13.47"/>
      <polygon class="cls-1" points="48.64 45.22 48.98 45.55 48.64 45.89 48.64 45.22"/>
    </g>
    <path class="cls-1" d="m459.58,45.78l.33.34c-.04,6.91-.81,12.95-2.34,18.08-1.57,5.25-3.8,9.61-6.71,13.06-2.88,3.47-6.64,6.24-11.28,8.33-4.64,2.09-9.75,3.58-15.33,4.44-5.59.87-12.14,1.3-19.62,1.3h-56.43l-21.65-21.65h78.08c4.42,0,8.18-.37,11.26-1.07,3.07-.72,5.81-1.93,8.18-3.71,2.36-1.78,4.14-4.26,5.29-7.43,1.15-3.18,1.71-7.12,1.71-11.83s-.56-8.71-1.67-11.86c-1.1-3.15-2.83-5.63-5.18-7.41-2.36-1.76-5.08-2.99-8.19-3.69-3.09-.72-6.89-1.06-11.4-1.06h-78.95s17.86-17.85,17.86-17.85l3.77-3.77h57.32c9.21,0,17.16.81,23.87,2.41,6.71,1.62,12.43,4.19,17.21,7.77,4.77,3.56,8.33,8.26,10.69,14.14,2.32,5.83,3.49,12.88,3.51,21.12l-.33.34Z"/>
    <path class="cls-1" d="m103.92,69.72h78.06s-16.96,16.95-16.96,16.95l-4.66,4.66h-56.44c-9.21,0-17.16-.81-23.87-2.41-6.71-1.62-12.43-4.18-17.2-7.77-4.77-3.55-8.33-8.26-10.69-14.14-2.32-5.83-3.5-12.88-3.52-21.12l.34-.34-.34-.33c.05-6.92.81-12.95,2.34-18.08,1.58-5.25,3.81-9.62,6.71-13.06,2.89-3.47,6.65-6.24,11.29-8.34,4.63-2.09,9.75-3.58,15.33-4.43,5.58-.88,12.14-1.31,19.61-1.31h57.33l21.65,21.65h-78.98c-4.41.01-8.17.37-11.26,1.07-3.06.72-5.81,1.94-8.17,3.72-2.36,1.78-4.14,4.25-5.29,7.43-1.15,3.17-1.71,7.11-1.71,11.82s.56,8.71,1.66,11.87c1.11,3.15,2.84,5.63,5.18,7.4,2.37,1.76,5.09,3,8.2,3.7,3.08.72,6.89,1.06,11.39,1.06Z"/>
    <g>
      <polygon class="cls-1" points="491.77 77.87 459.91 46.12 459.91 45.44 491.75 13.49 508.55 30.22 493.08 45.74 508.5 61.09 491.77 77.87"/>
      <polygon class="cls-1" points="459.91 46.12 459.57 45.78 459.91 45.44 459.91 46.12"/>
    </g>
    <polygon class="cls-1" points="315.68 91.33 285.1 91.33 263.47 69.69 254.28 60.5 245.09 69.7 223.46 91.33 192.88 91.33 238.99 45.22 215.42 21.65 193.78 0 224.35 0 245.99 21.64 254.28 29.93 284.21 0 314.78 0 269.56 45.22 294.03 69.69 315.68 91.33"/>
  </g>
</svg>