<?xml version="1.0" encoding="UTF-8"?>
<svg id="Layer_2" data-name="Layer 2" xmlns="http://www.w3.org/2000/svg" viewBox="0 0 113.39 113.39">
  <g id="Layer_1-2" data-name="Layer 1">
    <g>
      <path d="m56.69,3c29.61,0,53.69,24.09,53.69,53.69s-24.09,53.69-53.69,53.69S3,86.3,3,56.69,27.09,3,56.69,3m0-3C25.38,0,0,25.38,0,56.69s25.38,56.69,56.69,56.69,56.69-25.38,56.69-56.69S88,0,56.69,0h0Z" fill="#fff"/>
      <path d="m24,57.77c0-20.8,15.08-34.64,33.56-34.64s31.82,11.85,31.82,30.83c0,13.59-6.71,20.8-14.34,20.8-6.05,0-8.78-3.98-8.87-8.95-2.15,5.3-6.22,9.12-12.35,9.12-8.29,0-14.01-6.63-14.01-16.91s6.3-19.06,15.91-19.06c5.64,0,10.19,3.48,11.77,9.03h.08l.99-8.29h3.65l-2.82,22.38c-.66,5.55,1.08,9.03,5.88,9.03,6.3,0,10.19-6.96,10.19-17.07,0-17.07-12.35-27.26-27.93-27.26-16.91,0-29.67,13.18-29.67,30.99s11.6,28.76,28.42,28.76c5.88,0,11.19-1.16,15.5-3.07l1.41,3.15c-4.64,2.32-10.44,3.65-16.99,3.65-19.06,0-32.24-12.76-32.24-32.49Zm30.25,13.51c7.71,0,12.02-7.46,12.02-16.33,0-7.96-4.48-12.26-10.11-12.26-8.29,0-12.35,7.62-12.35,15.41s3.56,13.18,10.44,13.18Z" fill="#fff"/>
    </g>
  </g>
</svg>