<?xml version="1.0" encoding="UTF-8"?>
<svg id="Layer_2" data-name="Layer 2" xmlns="http://www.w3.org/2000/svg" viewBox="0 0 115.94 115.94">
  <g id="Layer_1-2" data-name="Layer 1">
    <rect x="0" y="0" width="115.94" height="115.94" rx="14.17" ry="14.17" transform="translate(0 115.94) rotate(-90)" fill="#ff4824"/>
    <g>
      <path d="m103.86,112.91v3.03s-21.66,0-21.66,0v-3.03c0-4.41-.36-8.17-1.06-11.26-.72-3.06-1.94-5.81-3.72-8.17s-4.26-4.14-7.43-5.29c-3.18-1.15-7.12-1.71-11.82-1.71s-8.71.56-11.87,1.67c-3.15,1.1-5.63,2.84-7.41,5.18-1.76,2.36-2.99,5.09-3.69,8.2-.72,3.08-1.06,6.89-1.06,11.39v3.03s-21.62,0-21.62,0v-3.03c0-9.21.81-17.16,2.41-23.87,1.62-6.71,4.19-12.43,7.77-17.2,3.56-4.77,8.26-8.33,14.14-10.7,5.83-2.32,12.88-3.49,21.12-3.51l.34.34.34-.34c6.91.05,12.95.81,18.08,2.34,5.25,1.58,9.61,3.81,13.06,6.71,3.47,2.88,6.24,6.64,8.33,11.28,2.09,4.64,3.58,9.75,4.44,15.33.88,5.58,1.31,12.14,1.31,19.61Z"/>
      <g>
        <polygon points="90.39 25.77 58.64 57.63 57.97 57.63 26.02 25.79 42.75 8.99 58.26 24.46 73.62 9.04 90.39 25.77"/>
        <polygon points="58.64 57.63 58.31 57.97 57.97 57.63 58.64 57.63"/>
      </g>
    </g>
  </g>
</svg>