<?xml version="1.0" encoding="UTF-8"?>
<svg id="Layer_2" data-name="Layer 2" xmlns="http://www.w3.org/2000/svg" viewBox="0 0 8.87 62.98">
  <g id="Layer_1-2" data-name="Layer 1">
    <g>
      <path d="m.23,8.24l.93-.46V3.27l-.93-.46V0l8.4,4.12v2.81L.23,11.04v-2.8Zm3.04-1.51l2.5-1.22-2.5-1.23v2.46Z" fill="#currentColor"/>
      <path d="m4.65,20.28c-.22.32-.51.58-.86.77s-.73.28-1.13.28c-.67,0-1.24-.24-1.71-.71s-.71-1.04-.71-1.71v-7.15h8.4v6.68c0,.67-.24,1.24-.71,1.71s-1.04.71-1.71.71c-.6,0-1.12-.19-1.57-.58Zm-2.31-2.1c0,.16.06.3.17.41s.25.17.41.17.3-.06.41-.17.17-.25.17-.41v-3.85h-1.17v3.85Zm4.2-.47v-3.38h-1.17v3.38c0,.16.06.3.17.41s.25.17.41.17.3-.06.41-.17.17-.25.17-.41Z" fill="#currentColor"/>
      <path d="m8.87,36.81c0,.89-.08,1.67-.23,2.32s-.41,1.21-.75,1.67-.8.81-1.37,1.04-1.26.34-2.07.34c-.69,0-1.29-.08-1.8-.23s-.93-.37-1.27-.65-.61-.65-.81-1.1-.35-.95-.43-1.49-.13-1.18-.13-1.9v-9.33c0-.68.04-1.29.12-1.82s.23-1.02.43-1.48.47-.83.81-1.13.76-.53,1.27-.69,1.11-.25,1.8-.25c.81,0,1.5.11,2.07.34s1.03.57,1.37,1.03.6,1.02.75,1.67.23,1.42.23,2.32v9.33Zm-6.76,0c0,.43.03.79.1,1.09s.19.56.36.79.41.4.72.51.69.17,1.15.17.84-.05,1.15-.16.55-.28.72-.5.29-.49.36-.79.1-.67.1-1.11v-9.33c0-.43-.03-.8-.1-1.1s-.19-.57-.36-.79-.41-.4-.72-.51-.69-.17-1.15-.17-.84.06-1.15.17-.55.28-.72.51-.29.49-.36.79-.1.67-.1,1.1v9.33Z" fill="#currentColor"/>
      <path d="m4.44,43.15h4.2v2.57h-4.2c-.37,0-.69.04-.96.11s-.5.18-.67.3-.31.29-.42.5-.18.42-.22.64-.06.49-.06.79.02.55.06.78.12.44.22.64.25.37.42.5.39.23.67.3.59.11.96.11h4.2v2.57h-4.2c-.68,0-1.28-.08-1.8-.25s-.94-.39-1.27-.67-.6-.63-.81-1.05-.35-.87-.43-1.34-.12-1-.12-1.59.04-1.12.12-1.59.23-.92.43-1.34.48-.77.81-1.05.75-.5,1.27-.67,1.12-.25,1.8-.25Z" fill="#currentColor"/>
      <path d="m8.64,62.98h-2.1v-3.38H.23v-2.57h6.3v-3.38h2.1v9.33Z" fill="#currentColor"/>
    </g>
  </g>
</svg>