<?xml version="1.0" encoding="UTF-8"?>
<svg id="Layer_2" data-name="Layer 2" xmlns="http://www.w3.org/2000/svg" viewBox="0 0 8.87 83.23">
  <g id="Layer_1-2" data-name="Layer 1">
    <g>
      <path d="m3.5,7.83v2.85c-.54-.06-1.01-.19-1.42-.38s-.73-.43-1-.72-.48-.65-.64-1.08-.28-.89-.35-1.4-.1-1.08-.1-1.74.04-1.29.12-1.82.23-1.02.43-1.48.47-.83.81-1.13.76-.53,1.27-.69,1.11-.25,1.8-.25c.81,0,1.5.11,2.07.34s1.03.57,1.37,1.03.6,1.02.75,1.67.23,1.42.23,2.32c0,.8-.06,1.51-.19,2.11s-.32,1.13-.6,1.59-.64.82-1.09,1.08-.99.44-1.63.53v-2.85c.52-.13.89-.4,1.09-.8s.31-.95.31-1.66c0-.43-.03-.8-.1-1.1s-.19-.56-.36-.79-.41-.4-.72-.51-.69-.16-1.15-.16-.84.05-1.15.16-.55.28-.72.51-.29.5-.36.79-.1.67-.1,1.1c0,.7.1,1.25.31,1.65s.57.67,1.09.81Z" fill="#fff"/>
      <path d="m8.87,26.16c0,.89-.08,1.67-.23,2.32s-.41,1.21-.75,1.67-.8.81-1.37,1.04-1.26.34-2.07.34c-.69,0-1.29-.08-1.8-.23s-.93-.37-1.27-.65-.61-.65-.81-1.1-.35-.95-.43-1.49-.13-1.18-.13-1.9v-9.33c0-.68.04-1.29.12-1.82s.23-1.02.43-1.48.47-.83.81-1.13.76-.53,1.27-.69,1.11-.25,1.8-.25c.81,0,1.5.11,2.07.34s1.03.57,1.37,1.03.6,1.02.75,1.67.23,1.42.23,2.32v9.33Zm-6.76,0c0,.43.03.79.1,1.09s.19.56.36.79.41.4.72.51.69.17,1.15.17.84-.05,1.15-.16.55-.28.72-.5.29-.49.36-.79.1-.67.1-1.11v-9.33c0-.43-.03-.8-.1-1.1s-.19-.57-.36-.79-.41-.4-.72-.51-.69-.17-1.15-.17-.84.06-1.15.17-.55.28-.72.51-.29.49-.36.79-.1.67-.1,1.1v9.33Z" fill="#fff"/>
      <path d="m8.64,40.13v2.57H.23v-3.03l4.99-4.44H.23v-2.57h8.4v2.8l-5.25,4.66h5.25Z" fill="#fff"/>
      <path d="m8.64,52.89h-2.1v-3.38H.23v-2.57h6.3v-3.38h2.1v9.33Z" fill="#fff"/>
      <path d="m.23,59.96l.93-.46v-4.52l-.93-.46v-2.81l8.4,4.12v2.81L.23,62.76v-2.8Zm3.04-1.51l2.5-1.22-2.5-1.23v2.46Z" fill="#fff"/>
      <path d="m3.5,70.54v2.85c-.54-.06-1.01-.19-1.42-.38s-.73-.43-1-.72-.48-.65-.64-1.08-.28-.89-.35-1.4-.1-1.08-.1-1.74.04-1.29.12-1.82.23-1.02.43-1.48.47-.83.81-1.13.76-.53,1.27-.69,1.11-.25,1.8-.25c.81,0,1.5.11,2.07.34s1.03.57,1.37,1.03.6,1.02.75,1.67.23,1.42.23,2.32c0,.8-.06,1.51-.19,2.11s-.32,1.13-.6,1.59-.64.82-1.09,1.08-.99.44-1.63.53v-2.85c.52-.13.89-.4,1.09-.8s.31-.95.31-1.66c0-.43-.03-.8-.1-1.1s-.19-.56-.36-.79-.41-.4-.72-.51-.69-.16-1.15-.16-.84.05-1.15.16-.55.28-.72.51-.29.5-.36.79-.1.67-.1,1.1c0,.7.1,1.25.31,1.65s.57.67,1.09.81Z" fill="#fff"/>
      <path d="m8.64,83.23h-2.1v-3.38H.23v-2.57h6.3v-3.38h2.1v9.33Z" fill="#fff"/>
    </g>
  </g>
</svg>