<?xml version="1.0" encoding="UTF-8"?>
<svg id="Layer_2" data-name="Layer 2" xmlns="http://www.w3.org/2000/svg" viewBox="0 0 8.87 51.23">
  <g id="Layer_1-2" data-name="Layer 1">
    <g>
      <path d="m4.65,8.52c-.22.32-.51.58-.86.77s-.73.28-1.13.28c-.67,0-1.24-.24-1.71-.71s-.71-1.04-.71-1.71V0h8.4v6.68c0,.67-.24,1.24-.71,1.71s-1.04.71-1.71.71c-.6,0-1.12-.19-1.57-.58Zm-2.31-2.1c0,.16.06.3.17.41s.25.17.41.17.3-.06.41-.17.17-.25.17-.41v-3.85h-1.17v3.85Zm4.2-.47v-3.38h-1.17v3.38c0,.16.06.3.17.41s.25.17.41.17.3-.06.41-.17.17-.25.17-.41Z" fill="#fff"/>
      <path d="m2.33,13.23v5.83H.23v-8.4h8.4v2.57H2.33Z" fill="#fff"/>
      <path d="m8.87,34.31c0,.89-.08,1.67-.23,2.32s-.41,1.21-.75,1.67-.8.81-1.37,1.04-1.26.34-2.07.34c-.69,0-1.29-.08-1.8-.23s-.93-.37-1.27-.65-.61-.65-.81-1.1-.35-.95-.43-1.49-.13-1.18-.13-1.9v-9.33c0-.68.04-1.29.12-1.82s.23-1.02.43-1.48.47-.83.81-1.13.76-.53,1.27-.69,1.11-.25,1.8-.25c.81,0,1.5.11,2.07.34s1.03.57,1.37,1.03.6,1.02.75,1.67.23,1.42.23,2.32v9.33Zm-6.76,0c0,.43.03.79.1,1.09s.19.56.36.79.41.4.72.51.69.17,1.15.17.84-.05,1.15-.16.55-.28.72-.5.29-.49.36-.79.1-.67.1-1.11v-9.33c0-.43-.03-.8-.1-1.1s-.19-.57-.36-.79-.41-.4-.72-.51-.69-.17-1.15-.17-.84.06-1.15.17-.55.28-.72.51-.29.49-.36.79-.1.67-.1,1.1v9.33Z" fill="#fff"/>
      <path d="m4.67,46.1v5.13H.23v-1.86h.37c-.4-.8-.6-1.97-.6-3.5,0-.68.04-1.29.12-1.82s.23-1.02.43-1.48.47-.83.81-1.13.76-.53,1.27-.69,1.11-.25,1.8-.25c.81,0,1.5.11,2.07.34s1.03.57,1.37,1.03.6,1.02.75,1.67.23,1.42.23,2.32c0,1.57-.25,2.79-.76,3.66s-1.34,1.41-2.5,1.61v-2.88c.43-.16.74-.43.91-.82s.26-.91.26-1.57c0-.43-.03-.8-.1-1.1s-.19-.57-.36-.79-.41-.4-.72-.51-.69-.17-1.15-.17-.84.06-1.15.17-.55.28-.72.51-.29.49-.36.79-.1.67-.1,1.1c0,.52.05.95.16,1.3s.29.63.54.83v-1.9h1.87Z" fill="#fff"/>
    </g>
  </g>
</svg>