<?xml version="1.0" encoding="UTF-8"?>
<svg id="Layer_2" data-name="Layer 2" xmlns="http://www.w3.org/2000/svg" viewBox="0 0 8.87 147.03">
  <g id="Layer_1-2" data-name="Layer 1">
    <g>
      <path d="m5.48,5.17c-.01.39-.03.72-.04,1s-.04.58-.07.9-.07.59-.11.81-.1.46-.17.69-.15.43-.24.59-.21.31-.34.46-.28.26-.44.35-.35.15-.56.2-.45.08-.7.08h0c-.33,0-.62-.05-.89-.13s-.49-.2-.69-.34-.36-.34-.51-.57-.26-.48-.35-.76-.17-.59-.22-.95-.09-.73-.11-1.11-.03-.8-.03-1.27c0-.5.01-.94.03-1.32s.06-.76.12-1.12.14-.68.23-.95.22-.52.38-.74.34-.41.55-.55.46-.25.75-.33c.29-.08.61-.12.98-.12v2.57c-.09,0-.18,0-.25.03s-.14.05-.2.1-.11.1-.16.14-.08.11-.12.21-.06.17-.08.24-.04.17-.06.3-.03.24-.04.33-.01.21-.02.38,0,.3,0,.4v.44c0,.48,0,.83.01,1.05s.03.47.07.75.11.47.21.58.23.16.4.16c.12,0,.23-.02.31-.07s.16-.12.22-.21.1-.2.14-.32.06-.26.08-.44.03-.35.04-.52.02-.37.02-.61c0-.06,0-.1,0-.13s0-.07,0-.13,0-.1,0-.14h0c.01-.4.03-.73.04-1.01s.04-.58.07-.89.07-.58.11-.8.1-.44.16-.67.15-.42.24-.58.2-.3.32-.44.26-.25.42-.33.34-.15.54-.19.42-.07.67-.07c.36,0,.69.05.97.15s.52.25.71.46.36.44.49.72.23.61.31,1,.13.8.16,1.22.05.91.05,1.46c0,.49-.01.93-.03,1.31s-.06.75-.12,1.11-.14.67-.23.93-.22.5-.38.72-.33.4-.55.53-.46.24-.75.31-.61.11-.98.11v-2.57c.09,0,.18,0,.25-.02s.14-.04.2-.09.11-.08.16-.13.08-.11.12-.19.06-.16.08-.22.04-.15.06-.28.03-.23.04-.31.01-.2.02-.37,0-.3,0-.39v-.48c0-.46,0-.8,0-1.01s-.03-.44-.06-.7-.09-.43-.18-.53-.19-.14-.33-.14c-.12,0-.23.03-.31.09s-.15.15-.19.26-.08.25-.11.41-.04.34-.05.55-.02.43-.03.68c0,.2,0,.36-.01.46h0Z" fill="#currentColor"/>
      <path d="m8.64,20.19h-2.1v-3.38H.23v-2.57h6.3v-3.38h2.1v9.33Z" fill="#currentColor"/>
      <path d="m4.44,20.88h4.2v2.57h-4.2c-.37,0-.69.04-.96.11s-.5.18-.67.3-.31.29-.42.5-.18.42-.22.64-.06.49-.06.79.02.55.06.78.12.44.22.64.25.37.42.5.39.23.67.3.59.11.96.11h4.2v2.57h-4.2c-.68,0-1.28-.08-1.8-.25s-.94-.39-1.27-.67-.6-.63-.81-1.05-.35-.87-.43-1.34-.12-1-.12-1.59.04-1.12.12-1.59.23-.92.43-1.34.48-.77.81-1.05.75-.5,1.27-.67,1.12-.25,1.8-.25Z" fill="#currentColor"/>
      <path d="m.23,36.87v-4.9h8.4v4.9c0,.86-.07,1.59-.22,2.21s-.39,1.15-.71,1.6-.76.77-1.3.99-1.19.33-1.96.33c-.66,0-1.23-.07-1.71-.22s-.88-.35-1.2-.62-.57-.62-.77-1.05-.33-.9-.41-1.42-.12-1.12-.12-1.82Zm2.1-2.33v2.33c0,.34.02.63.05.87s.09.48.18.7c.09.22.21.41.37.54s.35.25.61.33.55.12.9.12.65-.04.9-.12.45-.19.61-.33.28-.32.37-.54.15-.46.18-.7.05-.54.05-.88v-2.33H2.33Z" fill="#currentColor"/>
      <path d="m.23,45.68v-2.57h8.4v2.57H.23Z" fill="#currentColor"/>
      <path d="m8.87,61.51c0,.89-.08,1.67-.23,2.32s-.41,1.21-.75,1.67-.8.81-1.37,1.04-1.26.34-2.07.34c-.69,0-1.29-.08-1.8-.23s-.93-.37-1.27-.65-.61-.65-.81-1.1-.35-.95-.43-1.49-.13-1.18-.13-1.9v-9.33c0-.68.04-1.29.12-1.82s.23-1.02.43-1.48.47-.83.81-1.13.76-.53,1.27-.69,1.11-.25,1.8-.25c.81,0,1.5.11,2.07.34s1.03.57,1.37,1.03.6,1.02.75,1.67.23,1.42.23,2.32v9.33Zm-6.76,0c0,.43.03.79.1,1.09s.19.56.36.79.41.4.72.51.69.17,1.15.17.84-.05,1.15-.16.55-.28.72-.5.29-.49.36-.79c.07-.3.1-.67.1-1.11v-9.33c0-.43-.03-.8-.1-1.1-.07-.3-.19-.57-.36-.79s-.41-.4-.72-.51-.69-.17-1.15-.17-.84.06-1.15.17-.55.28-.72.51-.29.49-.36.79-.1.67-.1,1.1v9.33Z" fill="#currentColor"/>
      <g>
        <path d="m5.48,83.58c-.01.39-.03.72-.04,1s-.04.58-.07.9-.07.59-.11.81-.1.46-.17.69-.15.43-.24.59-.21.31-.34.46-.28.26-.44.35-.35.15-.56.2-.45.08-.7.08h0c-.33,0-.62-.05-.89-.13s-.49-.2-.69-.34-.36-.34-.51-.57-.26-.48-.35-.76-.17-.59-.22-.95-.09-.73-.11-1.11-.03-.8-.03-1.27c0-.5.01-.94.03-1.32s.06-.76.12-1.12.14-.68.23-.95.22-.52.38-.74.34-.41.55-.55.46-.25.75-.33c.29-.08.61-.12.98-.12v2.57c-.09,0-.18,0-.25.03s-.14.05-.2.1-.11.1-.16.14-.08.11-.12.21-.06.17-.08.24-.04.17-.06.3-.03.24-.04.33-.01.21-.02.38,0,.3,0,.4v.44c0,.48,0,.83.01,1.05s.03.47.07.75.11.47.21.58.23.16.4.16c.12,0,.23-.02.31-.07s.16-.12.22-.21.1-.2.14-.32.06-.26.08-.44.03-.35.04-.52.02-.37.02-.61c0-.06,0-.1,0-.13s0-.07,0-.13,0-.1,0-.14h0c.01-.4.03-.73.04-1.01s.04-.58.07-.89.07-.58.11-.8.1-.44.16-.67.15-.42.24-.58.2-.3.32-.44.26-.25.42-.33.34-.15.54-.19.42-.07.67-.07c.36,0,.69.05.97.15s.52.25.71.46.36.44.49.72.23.61.31,1,.13.8.16,1.22.05.91.05,1.46c0,.49-.01.93-.03,1.31s-.06.75-.12,1.11-.14.67-.23.93-.22.5-.38.72-.33.4-.55.53-.46.24-.75.31-.61.11-.98.11v-2.57c.09,0,.18,0,.25-.02s.14-.04.2-.09.11-.08.16-.13.08-.11.12-.19.06-.16.08-.22.04-.15.06-.28.03-.23.04-.31.01-.2.02-.37,0-.3,0-.39v-.48c0-.46,0-.8,0-1.01s-.03-.44-.06-.7-.09-.43-.18-.53-.19-.14-.33-.14c-.12,0-.23.03-.31.09s-.15.15-.19.26-.08.25-.11.41-.04.34-.05.55-.02.43-.03.68c0,.2,0,.36-.01.46h0Z" fill="#currentColor"/>
        <path d="m8.87,104.23c0,.89-.08,1.67-.23,2.32s-.41,1.21-.75,1.67-.8.81-1.37,1.04-1.26.34-2.07.34c-.69,0-1.29-.08-1.8-.23s-.93-.37-1.27-.65-.61-.65-.81-1.1-.35-.95-.43-1.49-.13-1.18-.13-1.9v-9.33c0-.68.04-1.29.12-1.82s.23-1.02.43-1.48.47-.83.81-1.13.76-.53,1.27-.69,1.11-.25,1.8-.25c.81,0,1.5.11,2.07.34s1.03.57,1.37,1.03.6,1.02.75,1.67.23,1.42.23,2.32v9.33Zm-6.76,0c0,.43.03.79.1,1.09s.19.56.36.79.41.4.72.51.69.17,1.15.17.84-.05,1.15-.16.55-.28.72-.5.29-.49.36-.79c.07-.3.1-.67.1-1.11v-9.33c0-.43-.03-.8-.1-1.1-.07-.3-.19-.57-.36-.79s-.41-.4-.72-.51-.69-.17-1.15-.17-.84.06-1.15.17-.55.28-.72.51-.29.49-.36.79-.1.67-.1,1.1v9.33Z" fill="#currentColor"/>
        <path d="m5.48,115.62c-.01.39-.03.72-.04,1s-.04.58-.07.9-.07.59-.11.81-.1.46-.17.69-.15.43-.24.59-.21.31-.34.46-.28.26-.44.35-.35.15-.56.2-.45.08-.7.08h0c-.33,0-.62-.05-.89-.13s-.49-.2-.69-.34-.36-.34-.51-.57-.26-.48-.35-.76-.17-.59-.22-.95-.09-.73-.11-1.11-.03-.8-.03-1.27c0-.5.01-.94.03-1.32s.06-.76.12-1.12.14-.68.23-.95.22-.52.38-.74.34-.41.55-.55.46-.25.75-.33c.29-.08.61-.12.98-.12v2.57c-.09,0-.18,0-.25.03s-.14.05-.2.1-.11.1-.16.14-.08.11-.12.21-.06.17-.08.24-.04.17-.06.3-.03.24-.04.33-.01.21-.02.38,0,.3,0,.4v.44c0,.48,0,.83.01,1.05s.03.47.07.75.11.47.21.58.23.16.4.16c.12,0,.23-.02.31-.07s.16-.12.22-.21.1-.2.14-.32.06-.26.08-.44.03-.35.04-.52.02-.37.02-.61c0-.06,0-.1,0-.13s0-.07,0-.13,0-.1,0-.14h0c.01-.4.03-.73.04-1.01s.04-.58.07-.89.07-.58.11-.8.1-.44.16-.67.15-.42.24-.58.2-.3.32-.44.26-.25.42-.33.34-.15.54-.19.42-.07.67-.07c.36,0,.69.05.97.15s.52.25.71.46.36.44.49.72.23.61.31,1,.13.8.16,1.22.05.91.05,1.46c0,.49-.01.93-.03,1.31s-.06.75-.12,1.11-.14.67-.23.93-.22.5-.38.72-.33.4-.55.53-.46.24-.75.31-.61.11-.98.11v-2.57c.09,0,.18,0,.25-.02s.14-.04.2-.09.11-.08.16-.13.08-.11.12-.19.06-.16.08-.22.04-.15.06-.28.03-.23.04-.31.01-.2.02-.37,0-.3,0-.39v-.48c0-.46,0-.8,0-1.01s-.03-.44-.06-.7-.09-.43-.18-.53-.19-.14-.33-.14c-.12,0-.23.03-.31.09s-.15.15-.19.26-.08.25-.11.41-.04.34-.05.55-.02.43-.03.68c0,.2,0,.36-.01.46h0Z" fill="#currentColor"/>
        <path d="m5.48,126.78c-.01.39-.03.72-.04,1s-.04.58-.07.9-.07.59-.11.81-.1.46-.17.69-.15.43-.24.59-.21.31-.34.46-.28.26-.44.35-.35.15-.56.2-.45.08-.7.08h0c-.33,0-.62-.05-.89-.13s-.49-.2-.69-.34-.36-.34-.51-.57-.26-.48-.35-.76-.17-.59-.22-.95-.09-.73-.11-1.11-.03-.8-.03-1.27c0-.5.01-.94.03-1.32s.06-.76.12-1.12.14-.68.23-.95.22-.52.38-.74.34-.41.55-.55.46-.25.75-.33c.29-.08.61-.12.98-.12v2.57c-.09,0-.18,0-.25.03s-.14.05-.2.1-.11.1-.16.14-.08.11-.12.21-.06.17-.08.24-.04.17-.06.3-.03.24-.04.33-.01.21-.02.38,0,.3,0,.4v.44c0,.48,0,.83.01,1.05s.03.47.07.75.11.47.21.58.23.16.4.16c.12,0,.23-.02.31-.07s.16-.12.22-.21.1-.2.14-.32.06-.26.08-.44.03-.35.04-.52.02-.37.02-.61c0-.06,0-.1,0-.13s0-.07,0-.13,0-.1,0-.14h0c.01-.4.03-.73.04-1.01s.04-.58.07-.89.07-.58.11-.8.1-.44.16-.67.15-.42.24-.58.2-.3.32-.44.26-.25.42-.33.34-.15.54-.19.42-.07.67-.07c.36,0,.69.05.97.15s.52.25.71.46.36.44.49.72.23.61.31,1,.13.8.16,1.22.05.91.05,1.46c0,.49-.01.93-.03,1.31s-.06.75-.12,1.11-.14.67-.23.93-.22.5-.38.72-.33.4-.55.53-.46.24-.75.31-.61.11-.98.11v-2.57c.09,0,.18,0,.25-.02s.14-.04.2-.09.11-.08.16-.13.08-.11.12-.19.06-.16.08-.22.04-.15.06-.28.03-.23.04-.31.01-.2.02-.37,0-.3,0-.39v-.48c0-.46,0-.8,0-1.01s-.03-.44-.06-.7-.09-.43-.18-.53-.19-.14-.33-.14c-.12,0-.23.03-.31.09s-.15.15-.19.26-.08.25-.11.41-.04.34-.05.55-.02.43-.03.68c0,.2,0,.36-.01.46h0Z" fill="#currentColor"/>
        <path d="m.23,135.61v-2.57h8.4v2.57H.23Z" fill="#currentColor"/>
        <path d="m5.48,141.94c-.01.39-.03.72-.04,1s-.04.58-.07.9-.07.59-.11.81-.1.46-.17.69-.15.43-.24.59-.21.31-.34.46-.28.26-.44.35-.35.15-.56.2-.45.08-.7.08h0c-.33,0-.62-.05-.89-.13s-.49-.2-.69-.34-.36-.34-.51-.57-.26-.48-.35-.76-.17-.59-.22-.95-.09-.73-.11-1.11-.03-.8-.03-1.27c0-.5.01-.94.03-1.32s.06-.76.12-1.12.14-.68.23-.95.22-.52.38-.74.34-.41.55-.55.46-.25.75-.33c.29-.08.61-.12.98-.12v2.57c-.09,0-.18,0-.25.03s-.14.05-.2.1-.11.1-.16.14-.08.11-.12.21-.06.17-.08.24-.04.17-.06.3-.03.24-.04.33-.01.21-.02.38,0,.3,0,.4v.44c0,.48,0,.83.01,1.05s.03.47.07.75.11.47.21.58.23.16.4.16c.12,0,.23-.02.31-.07s.16-.12.22-.21.1-.2.14-.32.06-.26.08-.44.03-.35.04-.52.02-.37.02-.61c0-.06,0-.1,0-.13s0-.07,0-.13,0-.1,0-.14h0c.01-.4.03-.73.04-1.01s.04-.58.07-.89.07-.58.11-.8.1-.44.16-.67.15-.42.24-.58.2-.3.32-.44.26-.25.42-.33.34-.15.54-.19.42-.07.67-.07c.36,0,.69.05.97.15s.52.25.71.46.36.44.49.72.23.61.31,1,.13.8.16,1.22.05.91.05,1.46c0,.49-.01.93-.03,1.31s-.06.75-.12,1.11-.14.67-.23.93-.22.5-.38.72-.33.4-.55.53-.46.24-.75.31-.61.11-.98.11v-2.57c.09,0,.18,0,.25-.02s.14-.04.2-.09.11-.08.16-.13.08-.11.12-.19.06-.16.08-.22.04-.15.06-.28.03-.23.04-.31.01-.2.02-.37,0-.3,0-.39v-.48c0-.46,0-.8,0-1.01s-.03-.44-.06-.7-.09-.43-.18-.53-.19-.14-.33-.14c-.12,0-.23.03-.31.09s-.15.15-.19.26-.08.25-.11.41-.04.34-.05.55-.02.43-.03.68c0,.2,0,.36-.01.46h0Z" fill="#currentColor"/>
      </g>
      <polygon points="1.31 69.97 4.42 66.84 7.56 69.96 5.93 71.59 4.43 70.09 2.94 71.59 1.31 69.97" fill="#currentColor"/>
    </g>
  </g>
</svg>