<?xml version="1.0" encoding="UTF-8"?>
<svg id="uuid-1f986f8a-6633-4e70-b7bf-ccd3dbb804d3" data-name="Laag 2" xmlns="http://www.w3.org/2000/svg" viewBox="0 0 20.9 21">
  <g id="uuid-39004cef-192e-4e5e-9c50-24ca8130b6ee" data-name="Layer 1">
    <g>
      <g>
        <path d="m5.27,10.5H1.83c-.81,0-1.44-.73-1.32-1.53C1.3,3.88,5.92.05,11.34.54c3.94.36,7.17,3.07,8.46,6.6" fill="none" stroke="#e7dfcd" stroke-linecap="round" stroke-linejoin="round"/>
        <polyline points="12.91 10.5 12.91 10.5 10.97 10.5" fill="none" stroke="#e7dfcd" stroke-linecap="round" stroke-linejoin="round"/>
        <polyline points="18.73 13.83 14.38 13.83 13.28 13.83" fill="none" stroke="#e7dfcd" stroke-linecap="round" stroke-linejoin="round"/>
        <path d="m20.33,11.68c-.21-.68-.85-1.18-1.6-1.18" fill="none" stroke="#e7dfcd" stroke-linecap="round" stroke-linejoin="round"/>
        <path d="m18.73,10.5c.75,0,1.39.5,1.6,1.18" fill="none" stroke="#e7dfcd" stroke-linecap="round" stroke-linejoin="round"/>
        <path d="m18.73,10.5c.75,0,1.39.5,1.6,1.18.04.15.07.32.07.49,0,.4-.14.77-.38,1.06-.03.04-.07.08-.11.12-.3.3-.72.49-1.18.49" fill="none" stroke="#e7dfcd" stroke-linecap="round" stroke-linejoin="round"/>
        <path d="m11.6,17.17H3.4c-.92,0-1.67-.75-1.67-1.67h0c0-.92.75-1.67,1.67-1.67" fill="none" stroke="#e7dfcd" stroke-linecap="round" stroke-linejoin="round"/>
        <path d="m10.4,20.5h3.86c.92,0,1.67-.75,1.67-1.67h0c0-.92-.75-1.67-1.67-1.67h-3.84" fill="none" stroke="#e7dfcd" stroke-linecap="round" stroke-linejoin="round"/>
      </g>
      <polyline points="8.95 13.83 8.95 13.83 7.02 13.83" fill="none" stroke="#e7dfcd" stroke-linecap="round" stroke-linejoin="round"/>
    </g>
  </g>
</svg>