<?xml version="1.0" encoding="utf-8"?>
<!-- Generator: $$$/GeneralStr/196=Adobe Illustrator 27.6.0, SVG Export Plug-In . SVG Version: 6.00 Build 0)  -->
<svg version="1.1" id="Layer_1" shape-rendering="crispEdges"
	 xmlns="http://www.w3.org/2000/svg" xmlns:xlink="http://www.w3.org/1999/xlink" x="0px" y="0px" viewBox="0 0 267 57.2"
	 style="enable-background:new 0 0 267 57.2;" xml:space="preserve">
<g>
	<rect y="0" width="3" height="57.2"/>
	<rect x="4.5" y="0" width="1.5" height="57.2"/>
	<rect x="9" y="0" width="1.5" height="57.2"/>
	<rect x="16.5" y="0" width="1.5" height="57.2"/>
	<rect x="19.5" y="0" width="6" height="57.2"/>
	<rect x="28.5" y="0" width="1.5" height="57.2"/>
	<rect x="33" y="0" width="1.5" height="57.2"/>
	<rect x="37.5" y="0" width="6" height="57.2"/>
	<rect x="45" y="0" width="1.5" height="57.2"/>
	<rect x="49.5" y="0" width="1.5" height="57.2"/>
	<rect x="54" y="0" width="6" height="57.2"/>
	<rect x="63" y="0" width="1.5" height="57.2"/>
	<rect x="66" y="0" width="1.5" height="57.2"/>
	<rect x="73.5" y="0" width="1.5" height="57.2"/>
	<rect x="78" y="0" width="3" height="57.2"/>
	<rect x="82.5" y="0" width="1.5" height="57.2"/>
	<rect x="90" y="0" width="3" height="57.2"/>
	<rect x="94.5" y="0" width="1.5" height="57.2"/>
	<rect x="99" y="0" width="1.5" height="57.2"/>
	<rect x="105" y="0" width="6" height="57.2"/>
	<rect x="112.5" y="0" width="1.5" height="57.2"/>
	<rect x="115.5" y="0" width="3" height="57.2"/>
	<rect x="120" y="0" width="3" height="57.2"/>
	<rect x="126" y="0" width="3" height="57.2"/>
	<rect x="132" y="0" width="1.5" height="57.2"/>
	<rect x="135" y="0" width="6" height="57.2"/>
	<rect x="144" y="0" width="1.5" height="57.2"/>
	<rect x="148.5" y="0" width="1.5" height="57.2"/>
	<rect x="154.5" y="0" width="6" height="57.2"/>
	<rect x="162" y="0" width="1.5" height="57.2"/>
	<rect x="165" y="0" width="1.5" height="57.2"/>
	<rect x="168" y="0" width="6" height="57.2"/>
	<rect x="177" y="0" width="1.5" height="57.2"/>
	<rect x="181.5" y="0" width="1.5" height="57.2"/>
	<rect x="184.5" y="0" width="6" height="57.2"/>
	<rect x="193.5" y="0" width="1.5" height="57.2"/>
	<rect x="198" y="0" width="1.5" height="57.2"/>
	<rect x="205.5" y="0" width="3" height="57.2"/>
	<rect x="210" y="0" width="1.5" height="57.2"/>
	<rect x="214.5" y="0" width="1.5" height="57.2"/>
	<rect x="217.5" y="0" width="6" height="57.2"/>
	<rect x="226.5" y="0" width="1.5" height="57.2"/>
	<rect x="231" y="0" width="1.5" height="57.2"/>
	<rect x="234" y="0" width="4.5" height="57.2"/>
	<rect x="240" y="0" width="6" height="57.2"/>
	<rect x="247.5" y="0" width="3" height="57.2"/>
	<rect x="255" y="0" width="4.5" height="57.2"/>
	<rect x="261" y="0" width="1.5" height="57.2"/>
	<rect x="264" y="0" width="3" height="57.2"/>
</g>
</svg>
